<svg xmlns="http://www.w3.org/2000/svg" viewBox="0 0 510 354.43"><defs><style>.cls-1{fill:#fff;}</style></defs><title>jg-logo-box-inverse</title><g id="Layer_2" data-name="Layer 2"><g id="AB2"><path class="cls-1" d="M199.35,93.11c-.78.47-1.54.94-2.3,1.42-73.73,45.67-84.41,86.39-79.81,108.87,4.66,22.72,52,99.63,78.83,90.32,18.06-43.24,19.7-194.32,19.7-194.32S218.23,78.88,199.35,93.11Zm-1.21,37.35S197,235.05,184.5,265c-18.57,6.44-51.35-46.8-54.57-62.53s4.36-44.33,56.85-76.35C199.85,116.25,198.14,130.46,198.14,130.46Z"/><path class="cls-1" d="M435.74,36.86c-24.25,4.55-101.18,56.85-101.18,56.85-40.92,26.14-60.25,67.07-60.25,108,0,28.42,36.76,87.53,70.87,66.31C376.63,243.39,365,100.78,365,100.78l-.13-3.47c8.65-10.62,81.54-45.33,84.38-50.22S451.48,34.21,435.74,36.86ZM328,246.93c-17,6.17-44.72-48.76-33.86-77.31,7.58-17.18,33.6-49,45.73-52C339.87,117.58,345,240.75,328,246.93Z"/><path class="cls-1" d="M350.29,17.35c-10.53-10.53-19-12.13-34.15-12.13s-46.33,27.49-56.42,41.12-11.79,35.37-.94,50c21.6,29.18,74.9-25.52,77.55-22.87l1.17,21.22,23.87-16.2C357.19,52,360.82,27.88,350.29,17.35ZM298.94,82.53s-16.48,13.83-29,1.19c-7.78-7.78-1.85-24.7,6.1-32.65s17.81-16.29,27.09-24.15c8.53-6.34,22.65-6.06,29.08.69C345,40.4,325.85,60,325.85,60Z"/><path class="cls-1" d="M215.53,112.28l46-35.12s9.35-30.82,0-33.17c-13.89,20.4-45.67,44.09-45.67,44.09s-.3-70.54-1.25-74.9S206.25,3.33,198.22.48s-10.88,7.58-12,11.75c-3.08,12.41-84.7,82-110.28,85.08-11.54,1.22-20.84.18-13.07,9.37s14.4,9.76,34.86,3.7,100.5-77.69,100.5-77.69L197,97.47"/><polygon class="cls-1" points="510 36.25 510 354.43 0 354.43 0 97.17 76.84 97.17 78.36 114.36 17 114.36 17 337.43 493 337.43 493 52.46 441.46 52.46 441.52 36.35 510 36.25"/></g></g></svg>