<svg xmlns="http://www.w3.org/2000/svg" viewBox="0 0 390.58 294.5"><defs><style>.cls-1{fill:#303030;}</style></defs><title>Asset 1</title><g id="Layer_2" data-name="Layer 2"><g id="AB2"><path class="cls-1" d="M139.35,93.11c-.78.47-1.54.94-2.3,1.42C63.32,140.2,52.64,180.92,57.24,203.4c4.66,22.72,52,99.63,78.83,90.32,18.06-43.24,19.7-194.32,19.7-194.32S158.23,78.88,139.35,93.11Zm-1.21,37.35S137,235.05,124.5,265c-18.57,6.44-51.35-46.8-54.57-62.53s4.36-44.33,56.85-76.35C139.85,116.25,138.14,130.46,138.14,130.46Z"/><path class="cls-1" d="M155.87,96.67s-.29-79.13-1.24-83.49S146.25,3.33,138.22.48s-10.88,7.58-12,11.75c-3.08,12.41-84.7,82-110.28,85.08-11.54,1.22-20.84.18-13.07,9.37s14.4,9.76,34.86,3.7,100.5-77.69,100.5-77.69l-1.17,61.84"/><path class="cls-1" d="M375.74,36.86c-24.25,4.55-101.18,56.85-101.18,56.85-40.92,26.14-60.25,67.07-60.25,108,0,28.42,36.76,87.53,70.87,66.31C316.63,243.39,305,100.78,305,100.78l-.13-3.47c8.65-10.62,81.54-45.33,84.38-50.22S391.48,34.21,375.74,36.86ZM268,246.93c-17,6.17-44.72-48.76-33.86-77.31,7.58-17.18,33.6-49,45.73-52C279.87,117.58,285,240.75,268,246.93Z"/><path class="cls-1" d="M290.29,17.35c-10.53-10.53-19-12.13-34.15-12.13s-46.33,27.49-56.42,41.12-11.79,35.37-.94,50c21.6,29.18,74.9-25.52,77.55-22.87l1,18.37,23.56-15.34C296.69,50,300.82,27.88,290.29,17.35ZM238.94,82.53s-16.48,13.83-29,1.19c-7.78-7.78-1.85-24.7,6.1-32.65s17.81-16.29,27.09-24.15c8.53-6.34,22.65-6.06,29.08.69C285,40.4,265.85,60,265.85,60Z"/><path class="cls-1" d="M155.88,88.08S187.66,64.39,201.55,44c9.35,2.35,0,33.17,0,33.17l-46,35.12"/></g></g></svg>