<?xml version="1.0" encoding="utf-8"?>
<!-- Generator: Adobe Illustrator 24.0.0, SVG Export Plug-In . SVG Version: 6.00 Build 0)  -->
<svg version="1.1" id="Layer_1" xmlns="http://www.w3.org/2000/svg" xmlns:xlink="http://www.w3.org/1999/xlink" x="0px" y="0px"
	 viewBox="0 0 175 199" style="enable-background:new 0 0 175 199;" xml:space="preserve">
<style type="text/css">
	.st0{fill:none;}
	.st1{fill:#D5B86F;stroke:#D5B86F;stroke-width:10;stroke-linecap:round;stroke-linejoin:round;}
	.st2{fill:#1A535C;stroke:#1A535C;stroke-width:10;stroke-linecap:round;stroke-linejoin:round;}
	.st3{fill:#485851;stroke:#485851;stroke-width:10;stroke-linecap:round;stroke-linejoin:round;}
	.st4{fill:none;stroke:#000000;stroke-width:10;stroke-linecap:round;stroke-linejoin:round;}
	.st5{fill:none;stroke:#000000;stroke-width:4;stroke-linecap:round;}
</style>
<path class="st0" d="M92.3,95c0-1.9-1-3.6-2.7-4.4L12.5,49.8c-1.5-0.8-3.4-0.8-4.9,0.1c-1.5,0.9-2.4,2.5-2.4,4.3v84.6
	c0,1.7,0.9,3.3,2.3,4.2l77.2,49.7c1.5,1,3.5,1.1,5.1,0.2c1.6-0.9,2.6-2.6,2.6-4.4V95z"/>
<path class="st1" d="M92.3,179.5V98.2l67.2-35.5v73.2L92.3,179.5z"/>
<path class="st2" d="M14.6,135.6V62.4l67.2,35.5v81.3L14.6,135.6z"/>
<path class="st0" d="M15.1,62.7l67.2,35.5v81.3l-67.2-43.3V62.7z"/>
<path class="st3" d="M87.3,16.3l66.8,37.9L87.3,89.5L20.6,54.2L87.3,16.3z"/>
<path class="st4" d="M10.1,54.4l77.2-43.8l77.2,43.8V139l-77.2,50.1L10.1,139V54.4z"/>
<path d="M62.5,126.8c-3.5,0-6.9-0.6-10.2-1.8c-3.3-1.2-5.9-3-8-5.4c-2-2.4-3-5.3-3-8.6c0-0.8,0.1-1.7,0.2-2.6
	c0.1-0.5,0.3-0.9,0.7-1.2c0.4-0.4,0.8-0.6,1.3-0.6h10.9c0.7,0,1.3,0.2,1.6,0.6c0.3,0.4,0.5,0.9,0.6,1.7c0,2.2,0.6,3.9,1.7,4.9
	c1.1,1,2.8,1.5,5.1,1.5c5.6,0,9.1-3.4,10.6-10.2L79,81.9H53.2c-0.6,0-1-0.2-1.4-0.6c-0.3-0.4-0.3-0.9-0.2-1.4l1.7-7.9
	c0.1-0.6,0.4-1.1,0.9-1.4s1-0.6,1.5-0.6h38.7c0.6,0,1,0.2,1.4,0.6c0.3,0.3,0.4,0.6,0.4,1c0,0.1,0,0.2-0.1,0.4l-7.1,33.4
	c-1.5,7.1-4.4,12.4-8.7,16C75.9,125,70,126.8,62.5,126.8z"/>
<path d="M100.9,137.8c-6.7,0-11.8-1.4-15.4-4.3c-3.6-2.9-5.4-7-5.4-12.5c0-1.5,0.2-3.1,0.5-4.9c0.7-4.4,1.8-9.3,3.1-14.7
	c1.7-6.7,5.1-11.9,10.2-15.6c5.2-3.7,11.6-5.6,19.1-5.6c4.7,0,8.7,0.7,11.9,2.2c3.3,1.4,5.7,3.2,7.3,5.4c1.7,2.2,2.5,4.6,2.5,7.2
	c0,0.4-0.1,1.1-0.2,1.9c-0.1,0.5-0.4,0.9-0.8,1.2c-0.4,0.3-0.8,0.5-1.4,0.5h-11.7c-0.5,0-0.9-0.1-1.2-0.2c-0.3-0.2-0.5-0.5-0.6-0.9
	c-0.3-1.5-1.1-2.9-2.4-4c-1.2-1.2-3.2-1.8-5.8-1.8c-6.4,0-10.5,3.4-12.2,10.1c-1,3.8-1.9,8.4-3,13.9c-0.2,1.1-0.2,2.1-0.2,3
	c0,5.1,2.7,7.6,8.2,7.6c3.1,0,5.8-0.8,8.1-2.4c2.2-1.7,3.7-4.2,4.4-7.5l0.3-1.5h-7.5c-0.6,0-1-0.2-1.4-0.6c-0.3-0.4-0.3-0.9-0.2-1.5
	l1.3-5.9c0.1-0.6,0.4-1.1,0.9-1.4c0.5-0.4,1-0.6,1.6-0.6h20.2c0.6,0,1,0.2,1.4,0.6c0.2,0.3,0.3,0.7,0.3,1c0,0.2,0,0.3-0.1,0.5
	l-1.9,9.1c-1,4.5-2.9,8.5-5.7,11.8c-2.8,3.3-6.3,5.8-10.5,7.5C110.5,136.9,105.9,137.8,100.9,137.8z"/>
<path class="st5" d="M87,189v-35"/>
<path class="st5" d="M136,69.6L165,54"/>
<path class="st5" d="M40,70L10,54"/>
</svg>
