<svg width="175" height="199" viewBox="0 0 175 199" fill="none" xmlns="http://www.w3.org/2000/svg">
<path d="M166.861 58.7758C168.475 57.922 169.496 56.2559 169.523 54.4298C169.55 52.6036 168.579 50.9081 166.991 50.0069L89.8024 6.21743C88.2721 5.34932 86.3982 5.34932 84.868 6.21743L7.6798 50.0069C6.0913 50.9081 5.12051 52.6036 5.14752 54.4298C5.17453 56.2559 6.19503 57.922 7.80949 58.7758L84.9977 99.5965C86.4601 100.37 88.2103 100.37 89.6727 99.5965L166.861 58.7758Z" fill="#8ED79A" stroke="#8ED79A" stroke-width="10" stroke-linecap="round" stroke-linejoin="round"/>
<path d="M169.523 54.1765C169.523 52.4233 168.605 50.7982 167.103 49.8936C165.601 48.9889 163.736 48.9369 162.186 49.7565L84.9977 90.5772C83.3598 91.4434 82.3352 93.1444 82.3352 94.9972L82.3352 188.514C82.3352 190.347 83.3381 192.033 84.9488 192.907C86.5596 193.782 88.5198 193.706 90.0573 192.708L167.245 142.61C168.666 141.688 169.523 140.109 169.523 138.416L169.523 54.1765Z" fill="#7FAECF" stroke="#7FAECF" stroke-width="10" stroke-linecap="round" stroke-linejoin="round"/>
<path d="M92.3352 94.9972C92.3352 93.1444 91.3106 91.4434 89.6727 90.5772L12.4845 49.7565C10.9346 48.9369 9.06877 48.9889 7.56699 49.8936C6.06522 50.7982 5.14697 52.4233 5.14697 54.1765V138.787C5.14697 140.486 6.01033 142.069 7.4391 142.99L84.6274 192.717C86.1657 193.708 88.1225 193.779 89.729 192.903C91.3356 192.027 92.3352 190.344 92.3352 188.514V94.9972Z" fill="#CFA07F" stroke="#CFA07F" stroke-width="10" stroke-linecap="round" stroke-linejoin="round"/>
<path d="M92.3353 179.487L92.3353 98.1884L159.523 62.6562L159.523 135.879L92.3353 179.487Z" fill="#7FAECF" stroke="#7FAECF" stroke-width="10" stroke-linecap="round" stroke-linejoin="round"/>
<path d="M15.147 62.6562L82.3352 98.1884V179.524L15.147 136.239V62.6562Z" fill="#CFA07F" stroke="#CFA07F" stroke-width="10" stroke-linecap="round" stroke-linejoin="round"/>
<path d="M87.3352 16.3149L154.119 54.2019L87.3352 89.5204L20.5513 54.2019L87.3352 16.3149Z" fill="#8ED79A" stroke="#8ED79A" stroke-width="10" stroke-linecap="round" stroke-linejoin="round"/>
<path d="M10.147 54.3558L87.3352 10.5663L164.523 54.3558V138.966L87.3352 189.064L10.147 138.966V54.3558Z" stroke="black" stroke-width="10" stroke-linecap="round" stroke-linejoin="round"/>
<path d="M62.5203 126.8C59.0003 126.8 55.6136 126.187 52.3603 124.96C49.107 123.733 46.4403 121.947 44.3603 119.6C42.3336 117.2 41.3203 114.347 41.3203 111.04C41.3203 110.24 41.4003 109.36 41.5603 108.4C41.667 107.92 41.907 107.52 42.2803 107.2C42.6536 106.827 43.0803 106.64 43.5603 106.64H54.4403C55.187 106.64 55.7203 106.827 56.0403 107.2C56.3603 107.573 56.5736 108.133 56.6803 108.88C56.6803 111.12 57.2403 112.747 58.3603 113.76C59.4803 114.773 61.187 115.28 63.4803 115.28C69.0803 115.28 72.627 111.867 74.1203 105.04L79.0003 81.92H53.1603C52.5736 81.92 52.1203 81.7333 51.8003 81.36C51.5336 80.9867 51.4536 80.5067 51.5603 79.92L53.2403 72C53.347 71.4133 53.6403 70.9333 54.1203 70.56C54.6003 70.1867 55.107 70 55.6403 70H94.3603C94.947 70 95.4003 70.1867 95.7203 70.56C95.987 70.8267 96.1203 71.1733 96.1203 71.6C96.1203 71.7067 96.0936 71.84 96.0403 72L88.9203 105.44C87.427 112.533 84.5203 117.867 80.2003 121.44C75.9336 125.013 70.0403 126.8 62.5203 126.8Z" fill="black"/>
<path d="M100.851 137.8C94.1843 137.8 89.0643 136.36 85.4909 133.48C81.9176 130.6 80.1309 126.44 80.1309 121C80.1309 119.507 80.2909 117.88 80.6109 116.12C81.3576 111.747 82.3976 106.84 83.7309 101.4C85.3843 94.68 88.7976 89.48 93.9709 85.8C99.1976 82.0667 105.571 80.2 113.091 80.2C117.784 80.2 121.758 80.92 125.011 82.36C128.264 83.7467 130.691 85.56 132.291 87.8C133.944 90.04 134.771 92.44 134.771 95C134.771 95.4267 134.718 96.0667 134.611 96.92C134.504 97.4 134.238 97.8 133.811 98.12C133.438 98.44 132.984 98.6 132.451 98.6H120.771C120.238 98.6 119.838 98.52 119.571 98.36C119.304 98.2 119.091 97.9067 118.931 97.48C118.611 95.9333 117.811 94.6 116.531 93.48C115.304 92.3067 113.358 91.72 110.691 91.72C104.291 91.72 100.238 95.08 98.5309 101.8C97.5709 105.587 96.5843 110.227 95.5709 115.72C95.4109 116.84 95.3309 117.827 95.3309 118.68C95.3309 123.747 98.0776 126.28 103.571 126.28C106.718 126.28 109.411 125.48 111.651 123.88C113.891 122.227 115.358 119.72 116.051 116.36L116.371 114.84H108.851C108.264 114.84 107.811 114.653 107.491 114.28C107.224 113.853 107.144 113.347 107.251 112.76L108.531 106.84C108.638 106.253 108.931 105.773 109.411 105.4C109.891 104.973 110.424 104.76 111.011 104.76H131.171C131.758 104.76 132.211 104.947 132.531 105.32C132.744 105.64 132.851 105.987 132.851 106.36C132.851 106.52 132.824 106.68 132.771 106.84L130.851 115.96C129.838 120.493 127.944 124.413 125.171 127.72C122.398 130.973 118.904 133.48 114.691 135.24C110.531 136.947 105.918 137.8 100.851 137.8Z" fill="black"/>
<path d="M87 189V154" stroke="black" stroke-width="4" stroke-linecap="round"/>
<path d="M136 69.6015L165 54" stroke="black" stroke-width="4" stroke-linecap="round"/>
<path d="M40 70L10 54" stroke="black" stroke-width="4" stroke-linecap="round"/>
</svg>
