<svg xmlns="http://www.w3.org/2000/svg" xmlns:xlink="http://www.w3.org/1999/xlink" viewBox="0 0 1920 360"><defs><style>.cls-1{fill:none;}.cls-2{fill:#d5b86f;}.cls-3{fill:#1a535c;}.cls-4{opacity:0.75;fill:url(#New_Pattern);}</style><pattern id="New_Pattern" data-name="New Pattern" width="453.09" height="451.54" patternUnits="userSpaceOnUse" viewBox="0 0 453.09 451.54"><rect class="cls-1" width="453.09" height="451.54"/><path class="cls-2" d="M8.28,51.21c.88,0,1.93,0,3.06.11,1.38.06,2.94.16,4.54.16,3.39,0,8.3-.32,11.77-3,4.19-3.21,5.69-8,4.89-15.62-.58-5.39-2.24-10.59-4-16.11A92.23,92.23,0,0,1,24.39,0h-.86a93.44,93.44,0,0,0,4.23,17c1.75,5.48,3.37,10.65,3.92,15.94.78,7.27-.63,11.86-4.56,14.87-3.24,2.49-8,2.78-11.24,2.78-1.59,0-3.15-.08-4.51-.14-1.13-.07-2.2-.11-3.09-.11a10.37,10.37,0,0,0-1.76.11A19.54,19.54,0,0,0,0,52.88v1A19.62,19.62,0,0,1,6.66,51.3,11.26,11.26,0,0,1,8.28,51.21Z"/><path class="cls-2" d="M155.5,11.57c.09.7.19,1.36.24,2,1.68,7.66,6.12,11.54,13.22,11.54h0a22.14,22.14,0,0,0,3.61-.3c6.93-1.11,21.51-5.23,27.63-8.92C206.75,11.91,210,5.23,211.65,0h-.45c-1.6,5.14-4.84,11.67-11.2,15.49-6.09,3.67-20.57,7.77-27.49,8.85a21.75,21.75,0,0,1-3.55.32h0c-6.86,0-11.19-3.78-12.81-11.19-.05-.58-.13-1.24-.24-1.94a23.39,23.39,0,0,1-.2-6.95A16.74,16.74,0,0,1,157.26,0h-.46a17,17,0,0,0-1.52,4.5A24.82,24.82,0,0,0,155.5,11.57Z"/><path class="cls-2" d="M2.94,21.43c3.1,0,7.27-.59,9.56-3.39C15.18,14.79,16.3,7.31,16,0h-.38c.33,7.19-.77,14.56-3.41,17.77-1.7,2.09-5,3.23-9.22,3.23h0A25.94,25.94,0,0,1,0,20.83v.41a22.33,22.33,0,0,0,2.94.19Z"/><path class="cls-2" d="M2.51,4.69A5.71,5.71,0,0,0,4.64,0H4.21A5.33,5.33,0,0,1,2.26,4.36,3.77,3.77,0,0,1,0,5.09s0,0,0,0v.42H0A4.27,4.27,0,0,0,2.51,4.69Z"/><path class="cls-2" d="M53.64,27.71c-.25-1.48-.52-3-.87-4.42-.78-5,.39-10.67,2.81-13.48,2-2.35,4.67-2.54,7.55-.53,4.47,3.12,5.66,9.94,6.61,15.43.24,1.38.48,2.68.74,3.83.11,3.64-1.37,9-4.06,11.76a5,5,0,0,1-3.7,1.8h0A5.78,5.78,0,0,1,59,40.52C55.32,37.43,54.47,32.48,53.64,27.71Zm-.46-4.51c.35,1.43.62,2.95.87,4.43.81,4.71,1.66,9.57,5.23,12.58a5.45,5.45,0,0,0,3.44,1.46h0A4.78,4.78,0,0,0,66.12,40c2.61-2.67,4-7.92,3.93-11.43-.26-1.12-.48-2.42-.72-3.82-1-5.41-2.13-12.11-6.45-15.15a6.21,6.21,0,0,0-3.5-1.3A4.53,4.53,0,0,0,55.9,10.1C53.58,12.81,52.43,18.33,53.18,23.2Z"/><path class="cls-2" d="M219.11,56A18.27,18.27,0,0,1,211.86,70c-7.13,5.65-16.09,9.16-23.4,9.16h0c-.62,0-1.25,0-1.85-.08a37.55,37.55,0,0,1-13-3.94,42.52,42.52,0,0,1-18.31-17.84c-2.15-5.31,3.82-8.81,5.79-10,8.06-4.74,20.09-9.84,28.84-10.64,1.66-.14,3.27-.24,4.75-.24,9.14,0,13.93,2.94,17.76,6.11A17.17,17.17,0,0,1,219.11,56Zm-.43,0a16.66,16.66,0,0,0-6.47-13.11c-3.76-3.15-8.48-6-17.49-6-1.46,0-3.05.08-4.71.24-8.68.8-20.65,5.88-28.68,10.57-1.89,1.1-7.63,4.47-5.61,9.4a42.12,42.12,0,0,0,18.11,17.65,37,37,0,0,0,12.81,3.89c.59.05,1.2.08,1.82.08,7.23,0,16.08-3.47,23.13-9.05A17.8,17.8,0,0,0,218.68,56Z"/><path class="cls-2" d="M206.52,56.53v0c-1.13,9.44-10,13.75-17.81,13.75h0c-6.21,0-13.8-2.78-16.4-10.57l0,0v0a11.83,11.83,0,0,0-.08-1.88,8.84,8.84,0,0,1,.13-3.12c1.91-6.72,11.17-10.74,19.06-10.74a15.94,15.94,0,0,1,9.48,2.64A15.09,15.09,0,0,1,206.52,56.53Zm-.43,0a14.62,14.62,0,0,0-5.49-9.66,15.66,15.66,0,0,0-9.22-2.54c-7.73,0-16.8,3.91-18.66,10.43a8.38,8.38,0,0,0-.1,3,16.89,16.89,0,0,1,.06,1.89c2.58,7.57,10,10.27,16,10.27h0C196.31,69.92,205,65.74,206.09,56.56Z"/><path class="cls-2" d="M283.79,66.12a18.39,18.39,0,0,0-.85,1.88,24.32,24.32,0,0,0-1.45,6,23.77,23.77,0,0,1-.4,2.48c.19,1.68.42,3.48.65,5.21.91,6.71,1.82,13.64.16,18.09a124.3,124.3,0,0,1-7.74,16.81c-5.55,9.35-15.93,18.55-24.34,25.51-5.31,3.72-12.45,4.66-19.38,5.58-5.18.69-10.08,1.34-14.24,3.06a42.87,42.87,0,0,0-12.4,7.8c-5,4.33-7.67,9.73-10.73,16-.5,1-1,2-1.52,3.09-3.84,7.64-14.84,19.58-21.71,22.06a20.81,20.81,0,0,1-6.81,1.21h0c-6.07,0-12.06-3-16.47-8.27-4.65-5.53-6.86-12.79-5.78-19,.55-5.6,3.89-8.75,7.79-12.43a58.82,58.82,0,0,0,5.1-5.3c3.27-4,3.62-7.79,3.26-15.42-.54-11,1-20.6,4.78-29.49l.27-.64c1.69-4,4.49-10.63,11.45-10.63a12,12,0,0,1,1.67.11,26.75,26.75,0,0,1,4.9,1.26,22.45,22.45,0,0,0,7.37,1.41,23.22,23.22,0,0,0,2.93-.21,50.53,50.53,0,0,0,9.94-3,71.93,71.93,0,0,0,11-5.5c1.89-1.22,3.71-2.59,5.63-4s4-3,6.23-4.45a82.82,82.82,0,0,1,12-6.51c10-4.36,17.62-8.8,24.12-14a61.69,61.69,0,0,0,5.21-4.86,64.21,64.21,0,0,1,5.81-5.29,12.68,12.68,0,0,1,7.25-2.17,10.38,10.38,0,0,1,6,1.74C288.12,57.44,285.53,62.66,283.79,66.12Zm-.54-11.57a10,10,0,0,0-5.73-1.66,12.56,12.56,0,0,0-7,2.07,59.44,59.44,0,0,0-5.75,5.28,69.16,69.16,0,0,1-5.25,4.86c-6.54,5.23-14.23,9.68-24.21,14.06a81.15,81.15,0,0,0-12,6.5c-2.19,1.43-4.25,2.94-6.22,4.43s-3.75,2.82-5.66,4a73.94,73.94,0,0,1-11.05,5.54,51.76,51.76,0,0,1-10,3,21,21,0,0,1-10.51-1.23,25.68,25.68,0,0,0-4.8-1.22,9,9,0,0,0-1.62-.13c-6.69,0-9.41,6.5-11,10.38l-.29.65c-3.75,8.81-5.29,18.4-4.75,29.3.38,7.75,0,11.64-3.34,15.71a57.21,57.21,0,0,1-5.17,5.33c-3.83,3.61-7.12,6.74-7.66,12.19-1.07,6.08,1.11,13.2,5.69,18.63,4.31,5.16,10.21,8.1,16.15,8.1h0a19.6,19.6,0,0,0,6.65-1.18c6.79-2.43,17.66-14.26,21.49-21.84.53-1,1-2.09,1.51-3.07,3.09-6.28,5.74-11.72,10.83-16.12A43.65,43.65,0,0,1,216,150.36c4.23-1.75,9.14-2.4,14.36-3.08,6.88-.91,14-1.86,19.19-5.5,8.36-6.93,18.69-16.11,24.24-25.41a120.89,120.89,0,0,0,7.68-16.74c1.62-4.35.72-11.22-.16-17.85-.24-1.76-.48-3.58-.67-5.28v0l0,0c.17-.81.27-1.62.41-2.48a25.4,25.4,0,0,1,1.43-6.14c.23-.52.53-1.16.89-1.89C285.07,62.61,287.58,57.58,283.25,54.55Z"/><path class="cls-2" d="M102.35,101.72c-.46-3.42.05-9.43,2.55-12.31A4.37,4.37,0,0,1,109.68,88a7.46,7.46,0,0,1,4.67,5.2c1.13,3.48.64,7.43-1.24,9.81a7,7,0,0,1-5.4,2.66h0A5.5,5.5,0,0,1,102.35,101.72Zm.41-.12a5.08,5.08,0,0,0,4.95,3.69h0a6.65,6.65,0,0,0,5.07-2.49c1.8-2.29,2.26-6.06,1.18-9.43-.83-2.56-2.42-4.34-4.39-4.91a4.57,4.57,0,0,0-1.37-.21,3.87,3.87,0,0,0-3,1.45C102.8,92.46,102.32,98.31,102.76,101.6Z"/><path class="cls-2" d="M254.43,100.57l0,.92c-.08,1.58-.06,3.26-.05,5a55.33,55.33,0,0,1-.41,8.89,31.61,31.61,0,0,1-6.06,13c-6,7.6-11.4,8.68-23.1,9.48a89.92,89.92,0,0,0-8.95,1.21,50.9,50.9,0,0,1-6.76.9,5.72,5.72,0,0,1-.58,0c-9.07,0-11.24-6.2-13.33-12.16-.14-.42-.28-.81-.43-1.21v-.07a12.28,12.28,0,0,1,2.64-8.49c3.18-4.14,8.14-6.66,13.38-9.3,4.23-2.14,8.64-4.35,12.48-7.63,1.29-1.09,2.34-2.11,3.33-3.07s1.78-1.71,2.83-2.63c4.65-4.06,11.86-6.9,17.45-6.9a15.52,15.52,0,0,1,2.43.2C255,89.78,254.78,94.31,254.43,100.57Zm-5.25-11.32a12.43,12.43,0,0,0-2.35-.19c-5.51,0-12.59,2.78-17.18,6.79-1,.89-1.9,1.73-2.8,2.61s-2,2-3.36,3.08c-3.88,3.31-8.29,5.53-12.56,7.7-5.19,2.6-10.12,5.12-13.24,9.19a11.81,11.81,0,0,0-2.54,8.17c.13.38.28.78.41,1.16,2.05,5.85,4.17,11.89,12.93,11.89l.57,0a49.83,49.83,0,0,0,6.69-.87,80.28,80.28,0,0,1,9-1.23c11.57-.79,16.87-1.86,22.78-9.31a31.2,31.2,0,0,0,6-12.86,51.39,51.39,0,0,0,.39-8.83c0-1.78,0-3.46.06-5l.06-.92C254.34,94.28,254.56,90.14,249.18,89.25Z"/><path class="cls-2" d="M21,119.25c8.55.84,14.18,1.32,23.1,1.77a5.63,5.63,0,0,0,2.19.39,16.93,16.93,0,0,0,3.61-.54c.52-.12,1-.24,1.51-.32l.08,0a5.91,5.91,0,0,0,.82-.76,8,8,0,0,1,.61-.57l.08,0v-.08c.81-4.85,1.79-16.74-6.38-22.49l-.08,0a34.73,34.73,0,0,0-7.72-.84c-5.26,0-10.57,1-15.71,2A83.67,83.67,0,0,1,7.79,99.81a50.25,50.25,0,0,1-7-1A6.5,6.5,0,0,1,0,98.58V99l.7.14a51.47,51.47,0,0,0,7.07,1A84.61,84.61,0,0,0,23.2,98.15c5.1-1,10.38-2.05,15.61-2.05a33.16,33.16,0,0,1,7.6.83c7.88,5.61,7,17.17,6.16,22-.2.17-.38.36-.57.55a8.89,8.89,0,0,1-.73.67c-.46.1-1,.19-1.46.32a17.1,17.1,0,0,1-3.53.52,5.3,5.3,0,0,1-2.07-.38h-.06c-8.94-.43-14.58-.91-23.13-1.75A62,62,0,0,1,8.2,115.67,82.15,82.15,0,0,0,0,113.35v.45a75.59,75.59,0,0,1,8.08,2.29A60.17,60.17,0,0,0,21,119.25Z"/><path class="cls-2" d="M49.79,161a20.7,20.7,0,0,1,.89-7.12c1.43-4.68,6.6-16,8.76-17.12a3.5,3.5,0,0,1,1.77-.48,5.44,5.44,0,0,1,3.21,1.45c4.72,3.67,10.14,12.89,11.13,19,.71,4.41,0,7.86-2,10.29-1.91,2.24-5,3.48-8.61,3.48h0c-6.05,0-13.53-3.59-15.09-9.38Zm.43,0c1.53,5.59,8.79,9,14.68,9h0c3.52,0,6.47-1.17,8.28-3.32,2-2.32,2.64-5.69,1.95-9.95-1-6-6.31-15.07-11-18.7a4.93,4.93,0,0,0-2.94-1.37,3.55,3.55,0,0,0-1.58.43c-2,1.05-7.1,12.23-8.52,16.89A19.81,19.81,0,0,0,50.22,160.94Z"/><path class="cls-2" d="M124.82,151.76c-1,6.11-4.68,13.07-10.51,14.84a9.45,9.45,0,0,1-2.74.39h0c-5.67,0-10.19-4.77-10.49-11.11-.06-7.44,6.55-17.74,14.37-19.17a6.23,6.23,0,0,1,1.42-.15,7,7,0,0,1,3.89,1.12C124.34,140.24,125.87,145.5,124.82,151.76ZM120.52,138a6.65,6.65,0,0,0-3.65-1,10.09,10.09,0,0,0-1.34.11c-7.65,1.42-14.1,11.51-14,18.78.3,6.09,4.64,10.7,10.08,10.7h0a8.66,8.66,0,0,0,2.61-.4c5.67-1.7,9.22-8.49,10.21-14.48S124,140.49,120.52,138Z"/><path class="cls-2" d="M7.65,177.14c3.11-9.56,1.71-17.33-4.26-23.77A13.94,13.94,0,0,0,0,150.94v.47a12.22,12.22,0,0,1,3.07,2.26C8.93,160,10.3,167.6,7.25,177c-1.24,3.79-3.56,7.28-5.84,10.65-.47.74-.95,1.44-1.41,2.17v.78c.57-.91,1.18-1.82,1.76-2.71C4,184.5,6.41,181,7.65,177.14Z"/><path class="cls-2" d="M311.6,229c.21,2.84-1.16,6.21-3.64,9s-5.52,4.43-8.22,4.54l-.33,0h0a5.7,5.7,0,0,1-4.71-2.23c-2.15-2.75-2.24-7.42-1.38-10.82.56-3.58,1.67-6.12,3.42-7.76a8,8,0,0,1,5.66-2.34C306.53,219.47,311.17,222.81,311.6,229Zm-.41,0c-.43-6-4.85-9.16-8.79-9.16a7.64,7.64,0,0,0-5.36,2.21c-1.67,1.59-2.75,4.06-3.29,7.54-.85,3.32-.77,7.85,1.29,10.47a5.28,5.28,0,0,0,4.37,2.09h0l.31,0c2.6-.13,5.55-1.76,7.92-4.42S311.39,231.81,311.19,229.06Z"/><path class="cls-2" d="M190.9,228v0a4.15,4.15,0,0,1,1.61-3.59l.08,0a7.55,7.55,0,0,1,2-.24,17.11,17.11,0,0,1,5.58,1.22,23.51,23.51,0,0,0,4.68,1.23c.71.06,1.49.11,2.46.11l1.88,0c.65,0,1.28,0,1.9,0a17.66,17.66,0,0,1,4.53.48,8,8,0,0,1,6.09,6c1.56,5.93-2.08,14.49-6.47,18.77-2,2-3.91,3-5.67,3h0c-4.09,0-6.58-5.12-8.79-9.66-.7-1.4-1.34-2.74-2-3.79-.9-1.47-1.92-2.87-2.89-4.22C193.81,234.1,191.83,231.32,190.9,228Zm.43-.08c.88,3.28,2.85,6,4.93,8.94,1,1.35,2,2.75,2.89,4.26a39.74,39.74,0,0,1,2,3.8c2.16,4.42,4.61,9.44,8.43,9.44h0c1.63,0,3.45-1,5.39-2.86,4.29-4.2,7.88-12.58,6.34-18.36a7.55,7.55,0,0,0-5.8-5.65,17.5,17.5,0,0,0-4.41-.46l-1.87,0c-.65,0-1.27,0-1.91,0a20.28,20.28,0,0,1-2.51-.13A23.19,23.19,0,0,1,200,225.7a17,17,0,0,0-5.44-1.2,8.16,8.16,0,0,0-1.86.2A3.69,3.69,0,0,0,191.33,227.88Z"/><path class="cls-2" d="M54.88,265.89a6.42,6.42,0,0,1,2.4-3.43c3.82-2.92,10.89-3.12,14.69-3.24h.1c.23,0,.46,0,.68,0,4.34,0,10,1.24,12.75,4.66A8.45,8.45,0,0,1,87,271.24c-.8,3.83-4.18,5.85-9.81,5.85a41.09,41.09,0,0,1-13.66-2.8l-.42-.16C59.81,272.83,53.66,270.38,54.88,265.89Zm8.39,7.84.42.18a41.46,41.46,0,0,0,13.51,2.76c5.47,0,8.63-1.86,9.4-5.51a8,8,0,0,0-1.43-7c-2.69-3.32-8.16-4.5-12.42-4.5-.22,0-.45,0-.67,0H72c-3.74.11-10.75.31-14.43,3.14a6,6,0,0,0-2.25,3.2C54.17,270.12,60.08,272.46,63.27,273.73Z"/><path class="cls-2" d="M308.66.51a6.67,6.67,0,0,0,2-.51H305A7.61,7.61,0,0,0,308.66.51Z"/><path class="cls-2" d="M429.18,5.88a35.91,35.91,0,0,1-.3,4.34,30.62,30.62,0,0,1-2.89,8c-2,4.25-4.09,8.6-3.8,16.87v.11c.64,2,1.18,4.42,1.75,7,1.78,8.09,3.8,17.25,10,19.08a9,9,0,0,0,2.62.33,18.29,18.29,0,0,0,2.7-.22c3.85-.62,6.73-2.69,9.8-4.88,1.3-.92,2.62-1.86,4-2.7v-1a48.94,48.94,0,0,0-4.51,3c-3,2.11-5.81,4.13-9.46,4.72a16.32,16.32,0,0,1-2.56.22,8,8,0,0,1-2.4-.32c-5.68-1.67-7.63-10.57-9.38-18.42-.57-2.61-1.11-5.06-1.75-7-.27-8,1.75-12.27,3.72-16.39a30.8,30.8,0,0,0,3-8.25A36.48,36.48,0,0,0,430,5.91a29.18,29.18,0,0,1,.54-5.53l0-.09V0h-.84V.14A27.93,27.93,0,0,0,429.18,5.88Z"/><path class="cls-2" d="M375.07,10.25c3.33,1.36,11.62,4.57,16,5.19a14.17,14.17,0,0,0,2.13.16h0a10.24,10.24,0,0,0,8.41-3.83c1.86-2.49,2.3-5.84,1.24-9.42a5.33,5.33,0,0,0-.65-1.22,4.54,4.54,0,0,1-.5-.86c0-.08-.09-.17-.12-.27h-.45l.17.45a9.71,9.71,0,0,0,.55.92,4.39,4.39,0,0,1,.58,1.11c1,3.45.62,6.65-1.16,9a9.74,9.74,0,0,1-8.07,3.66h0a14.76,14.76,0,0,1-2.08-.15c-4.28-.63-12.52-3.81-15.86-5.15A34.44,34.44,0,0,1,362,0h-.54A34.68,34.68,0,0,0,375.07,10.25Z"/><path class="cls-2" d="M444.08,18.25c1.75,1.45,5.33,2.58,9,3v-.41c-3.84-.45-7.26-1.69-8.74-2.9C438.85,13.5,437.42,6.41,438,0h-.43C437,6.5,438.47,13.74,444.08,18.25Z"/><path class="cls-2" d="M448.69,2.11a4.8,4.8,0,0,0,4.4,3.38V5.07a4.33,4.33,0,0,1-4-3.07,7.22,7.22,0,0,1-.22-2h-.43A7.28,7.28,0,0,0,448.69,2.11Z"/><path class="cls-2" d="M333.4,26.53c2-6.31,4.38-14.19,9.09-18.26a5.17,5.17,0,0,1,3.39-1.37c4.18,0,8,5.71,11.05,10.3a39.29,39.29,0,0,0,2.87,4,56.07,56.07,0,0,0,7.35,4.88c5.85,3.43,11.37,6.68,12.7,14.47,1,6-.83,12.75-1.94,15.46-1.67,4.09-4.59,7.24-7.39,10.31s-5.45,5.91-7,9.62c-2.75,6.51-1.6,13.84-.51,20.9.24,1.61.48,3.12.67,4.63.4,3.18.57,6.71-1.32,8.85-1.11,1.27-2.84,1.89-5.15,1.89H357a40.81,40.81,0,0,1-9.8-1.55c-1.6-.42-3.21-.88-4.77-1.34s-2.79-.81-4.16-1.16-2.75-.7-4.15-1.07c-6.31-1.58-12.86-3.24-18.77-6-5.46-2.58-12.15-8.1-14-14.17-1.94-6.56,1.3-13.26,8.23-17.06,5.71-3.11,10.76-9,15.49-18.12A71.48,71.48,0,0,0,330,37.92c.66-2.44,1.38-5,2.19-7.36C332.55,29.33,333,28,333.4,26.53Zm.82.24c-.44,1.47-.87,2.8-1.28,4.06-.8,2.4-1.51,4.89-2.17,7.29-1.32,4.73-2.65,9.59-4.94,14-4.8,9.24-10,15.29-15.83,18.49-6.59,3.61-9.66,9.92-7.84,16.07,1.65,5.58,8,11.07,13.51,13.63,5.83,2.73,12.34,4.39,18.62,6l4.15,1.06,4.19,1.18c1.55.45,3.15.92,4.76,1.32a40.38,40.38,0,0,0,9.58,1.54h.21c2.08,0,3.56-.52,4.52-1.6,1.66-1.91,1.47-5.36,1.12-8.19-.2-1.5-.44-3-.66-4.61-1.12-7.17-2.29-14.61.55-21.35,1.64-3.87,4.45-6.92,7.19-9.89s5.61-6.11,7.23-10c1.26-3.07,2.8-9.62,1.89-15-1.27-7.39-6.63-10.54-12.3-13.9a55.27,55.27,0,0,1-7.47-5l-.05,0a38.82,38.82,0,0,1-3-4.14c-2.78-4.18-6.61-9.92-10.33-9.92a4.27,4.27,0,0,0-2.83,1.18C338.52,12.83,336.13,20.57,334.22,26.77Z"/><path class="cls-2" d="M342.24,39.79c-2.67-4.62-1.67-11.46.39-15.85.94-2,2.44-4.35,4.2-4.35a2.4,2.4,0,0,1,1.53.63c1.51,1.29,2.51,4.52,3.27,7.09.32,1,.61,2,.89,2.64l.42,1.08a26.89,26.89,0,0,0,2.94,6.08,12.37,12.37,0,0,0,4.75,3.29,13.79,13.79,0,0,1,3.94,2.37,7.71,7.71,0,0,1,2.09,8.47c-1.26,3.83-4.87,7-8.37,7.42v0h0v-.22l0,.22a5.92,5.92,0,0,1-1-.09c-2.26-.93-2.71-3.17-3.17-5.36A22,22,0,0,0,353.6,51c-1.16-3.4-3.51-4.88-6-6.42l-1.21-.77A11.7,11.7,0,0,1,342.24,39.79Zm.36-.2a12.15,12.15,0,0,0,4,3.88c.42.25.81.5,1.23.74,2.43,1.53,5,3.12,6.16,6.66a16.87,16.87,0,0,1,.56,2.28c.45,2.18.84,4.21,2.88,5a3,3,0,0,0,.83.07h0c3.37-.39,6.8-3.45,8-7.14a7.32,7.32,0,0,0-1.95-8,15.07,15.07,0,0,0-3.83-2.32,12.45,12.45,0,0,1-4.9-3.38,26.14,26.14,0,0,1-3-6.2c-.14-.37-.29-.72-.43-1.07-.27-.7-.57-1.67-.88-2.67-.77-2.53-1.71-5.69-3.14-6.9a2,2,0,0,0-1.26-.52c-1.64,0-3.08,2.57-3.82,4.11C341,28.41,340,35.07,342.6,39.59Z"/><path class="cls-2" d="M398.69,62.73a10.81,10.81,0,0,1,1.92-10.31l.05-.05a3.91,3.91,0,0,1,4.1.11l.05.06c1.38,1.83,1.45,5,.18,7.52-1,2-2.61,3.18-4.36,3.18h0a4.53,4.53,0,0,1-1.83-.39l-.09,0Zm.37-.23a4.42,4.42,0,0,0,1.57.33h0c1.59,0,3-1.08,4-3,1.22-2.45,1.19-5.32-.08-7a3.4,3.4,0,0,0-3.59-.11A10.39,10.39,0,0,0,399.06,62.5Z"/><path class="cls-2" d="M332.65,66.68a20.28,20.28,0,0,1,9.94-2.52,13.87,13.87,0,0,1,4.49.67,6.24,6.24,0,0,1,3.66,2.9c3.24,5.93,1.72,13.38.4,20-.16.74-.3,1.43-.45,2.13-.08.45-.17,1-.25,1.51-.41,2.66-.94,5.93-2.94,7.43a4,4,0,0,1-2.47.78c-2.75,0-5.88-2.26-7.56-3.5l-1.31-.92c-4.37-3.12-9.82-7-10.71-12.23A16.17,16.17,0,0,1,332.65,66.68Zm.24.35a15.81,15.81,0,0,0-7.05,15.78c.88,5.06,6.27,8.87,10.58,12,.44.32.89.62,1.28.93,1.66,1.19,4.73,3.4,7.33,3.4a3.72,3.72,0,0,0,2.23-.7c1.84-1.38,2.35-4.58,2.77-7.12.08-.56.15-1.08.25-1.56.14-.68.29-1.4.43-2.12,1.34-6.51,2.83-13.89-.33-19.69A5.85,5.85,0,0,0,347,65.25a12.83,12.83,0,0,0-4.37-.67A20.07,20.07,0,0,0,332.89,67Z"/><path class="cls-2" d="M444.86,97.69A56.66,56.66,0,0,0,436.51,99a51.5,51.5,0,0,1-8.66,1.25c-4.2-.36-7.92-2.19-11.5-3.94-4.1-2-8.33-4.1-13.38-4.1A22.35,22.35,0,0,0,392.9,94.8l0,0,0,0a6.91,6.91,0,0,0-.54,4.15l.05.57.05.07a3,3,0,0,1,.62,1.06c.09.21.16.38.25.56l0,0c5.17,6.21,12.78,6.6,20.13,7,4.59.22,9.33.46,13.41,2.12a37.23,37.23,0,0,0,15.08,3.27h0a31.67,31.67,0,0,0,4.29-.27,16.92,16.92,0,0,1,2.19-.14,24.24,24.24,0,0,1,4.72.51v-.42a25,25,0,0,0-4.72-.52,15,15,0,0,0-2.26.16,33.76,33.76,0,0,1-4.22.27h0A36.86,36.86,0,0,1,427,110c-4.15-1.68-8.93-1.92-13.56-2.16-7.25-.35-14.75-.73-19.78-6.79a2.56,2.56,0,0,1-.23-.47,4.44,4.44,0,0,0-.67-1.18l0-.4a6.93,6.93,0,0,1,.46-3.86A21.88,21.88,0,0,1,403,92.62c4.94,0,9.15,2,13.19,4,3.61,1.79,7.38,3.62,11.69,4a50.07,50.07,0,0,0,8.74-1.29,56.47,56.47,0,0,1,8.28-1.24,34.88,34.88,0,0,1,8.22.91v-.45A37.12,37.12,0,0,0,444.86,97.69Z"/><path class="cls-2" d="M430,146a23.83,23.83,0,0,0-2.51-.16c-7.4,0-12.42,4.33-17.72,8.94l-.58.51c-1.29,1.09-2.61,2.09-3.87,3.08a41,41,0,0,0-8.23,7.69c-3.91,5.17-3.69,11.77-3.48,18.19a69.52,69.52,0,0,1,0,7.22l0,0,0,0a19,19,0,0,0,3.08,7.68,23.49,23.49,0,0,0,6.58,5.36,24.91,24.91,0,0,1,6.28,5c.81,1,1.54,2.05,2.31,3.16a23.86,23.86,0,0,0,5.12,6,24.2,24.2,0,0,0,14.15,4.45h0c6.15,0,11.24-2.24,13.94-6.14,2-2.9,2.3-6.5,2.59-10.3a48.11,48.11,0,0,1,.56-5.08,30.78,30.78,0,0,1,4.89-11v-.78c-2.37,3.61-4.53,7.41-5.31,11.72a47.9,47.9,0,0,0-.55,5.15c-.29,3.75-.56,7.27-2.52,10.09-2.63,3.77-7.59,5.95-13.6,5.95h0a23.66,23.66,0,0,1-13.88-4.37,22.59,22.59,0,0,1-5-5.9c-.73-1.08-1.5-2.19-2.32-3.19a25.75,25.75,0,0,0-6.39-5.06c-2.34-1.48-4.79-3-6.48-5.26a19,19,0,0,1-3-7.49c.16-2.34.06-4.83,0-7.23-.23-6.33-.43-12.88,3.38-17.92a40.3,40.3,0,0,1,8.16-7.62c1.27-1,2.59-2,3.88-3.09l.58-.51c5.25-4.54,10.21-8.84,17.45-8.84a18.72,18.72,0,0,1,2.46.17c.92.11,1.92.24,3,.35,6.47.78,14.91,1.77,20.2,4.63v-.48c-5.4-2.81-13.72-3.8-20.15-4.58C431.9,146.23,430.91,146.12,430,146Z"/><path class="cls-2" d="M363.41,195c4.63,10,2.45,28.25-6.69,35.4-2.94,2.29-6.74,3.72-10.08,4.82-1,.36-2.05.68-3.08,1-1.48.48-2.9.9-4.26,1.4-2.17.76-4.44,1.52-6.62,2.24a136.38,136.38,0,0,0-18,6.95,57.34,57.34,0,0,0-7.58,4.81c-3.91,2.79-7.6,5.39-12.66,6.54a14.87,14.87,0,0,1-3.16.36,9.84,9.84,0,0,1-9.18-5.5c-2.67-5.42-1.25-13.13-.12-19.31.27-1.47.52-2.83.71-4.12,1.4-9.38,4.77-15.82,10.3-19.71a28.69,28.69,0,0,1,11.37-4.49,19.19,19.19,0,0,1,3.34-.22h1.54A18.6,18.6,0,0,0,312,205a9.37,9.37,0,0,0,3.43-1.4,16.46,16.46,0,0,1,2.1-1.06,14.47,14.47,0,0,1,3.73-.8,14,14,0,0,0,3.53-.7,15,15,0,0,0,7.14-5.77,37.48,37.48,0,0,0,2.55-5.26c2.38-5.56,5.08-11.91,12.08-11.46S360.58,188.89,363.41,195Zm-.36.15c-2.82-6-9.78-15.75-16.54-16.16s-9.35,5.75-11.67,11.19a37,37,0,0,1-2.59,5.34,15.47,15.47,0,0,1-7.33,5.93,15,15,0,0,1-3.62.73,14.55,14.55,0,0,0-3.64.75,15.13,15.13,0,0,0-2.05,1.05,10,10,0,0,1-3.58,1.46,20.91,20.91,0,0,1-2.8.14h-1.54a16.86,16.86,0,0,0-3.28.24,28.06,28.06,0,0,0-11.19,4.41c-5.44,3.83-8.74,10.17-10.12,19.41-.18,1.3-.43,2.68-.7,4.13-1.13,6.14-2.55,13.78.08,19.05a9.41,9.41,0,0,0,8.79,5.27,13.91,13.91,0,0,0,3.07-.35c5-1.11,8.63-3.7,12.49-6.45a59.83,59.83,0,0,1,7.65-4.87,140.52,140.52,0,0,1,18.06-7c2.18-.73,4.43-1.49,6.61-2.24,1.37-.49,2.78-.94,4.29-1.4l3.09-1a33.83,33.83,0,0,0,9.94-4.77c4.1-3.23,7.13-9.23,8.31-16.46C365.89,206.83,365.24,199.93,363.05,195.16Z"/><path class="cls-2" d="M18.47,273.59c9.85,5.18,17,10.43,21.26,15.64s9.4,10.48,16.45,11.75a64.78,64.78,0,0,0,11.31,1A38.68,38.68,0,0,0,85,298.36,23.24,23.24,0,0,0,92.54,292c1-1.27,2-2.59,3-3.9a42,42,0,0,1,7.28-8.28c.56-.45,1.15-.94,1.78-1.43,3.34-2.74,7.51-6.14,11-7.86a27.13,27.13,0,0,1,6.68-1.89c4-.76,8.1-1.56,10.65-5.1,2.78-3.85,3.38-10.49,3.86-15.82.13-1.27.24-2.45.35-3.51,1.23-10-2.62-14.77-6.34-19.38-2.13-2.67-4.18-5.2-5.33-8.68l-.17-.54a35.07,35.07,0,0,0-1.53-4.15c-1.43-3-3.47-4.48-6-4.48-3.77,0-7.84,3.3-9.8,4.89-1.48,1.19-2.94,2.26-4.48,3.39l-2.31,1.7c-5.69,4.26-9.28,10.21-12.75,16a97.76,97.76,0,0,1-6.09,9.3,20.22,20.22,0,0,1-11.16,5.18,66.23,66.23,0,0,1-9.26.61c-2.22.05-4.49.08-6.81.24-1.37.11-2.75.24-4.09.39-2.11.23-4.13.43-6.07.46a42.31,42.31,0,0,1-10.36-1.35c-1.82-.39-3.5-.76-5.28-1a24.93,24.93,0,0,0-2.9-.19,34.3,34.3,0,0,0-8.63,1.25c-1.59.45-3.26.81-4.86,1.16C8.49,250,4,251,0,253.18v.49c4-2.24,8.55-3.29,13-4.28,1.6-.38,3.27-.74,4.85-1.17A32.31,32.31,0,0,1,26.37,247a20.22,20.22,0,0,1,2.84.19c1.76.2,3.45.59,5.22,1a44,44,0,0,0,10.48,1.36c2,0,4-.25,6.14-.47,1.32-.15,2.69-.29,4.05-.38,2.31-.16,4.58-.21,6.79-.26a64.63,64.63,0,0,0,9.33-.59,20.6,20.6,0,0,0,11.39-5.34,96.52,96.52,0,0,0,6.15-9.35c3.46-5.72,7-11.63,12.64-15.85.79-.59,1.56-1.14,2.29-1.7,1.56-1.13,3-2.19,4.5-3.39,1.92-1.57,5.93-4.81,9.54-4.81,2.38,0,4.29,1.44,5.64,4.26.51,1.08,1,2.69,1.51,4.1l.17.54c1.18,3.56,3.33,6.22,5.41,8.81,3.64,4.53,7.44,9.24,6.25,19.06-.13,1.07-.24,2.26-.35,3.5-.48,5.31-1.08,11.87-3.79,15.64-2.44,3.39-6.5,4.18-10.41,4.93a27.42,27.42,0,0,0-6.76,1.92c-3.54,1.74-7.72,5.17-11.08,7.92-.63.48-1.22,1-1.78,1.43a43.16,43.16,0,0,0-7.37,8.35c-.94,1.29-1.94,2.62-3,3.88A23,23,0,0,1,84.78,298a38.78,38.78,0,0,1-17.29,3.63,63.51,63.51,0,0,1-11.21-1.05c-7-1.24-11.91-6.33-16.23-11.61s-11.48-10.54-21.39-15.74a59.64,59.64,0,0,0-9.74-3.72A66.09,66.09,0,0,1,0,266.18v.46a67.06,67.06,0,0,0,8.78,3.26A62.44,62.44,0,0,1,18.47,273.59Z"/><path class="cls-2" d="M140.32,302.81a26.47,26.47,0,0,1,0-10.38,25.66,25.66,0,0,0,.17-4,19,19,0,0,1,.34-5,26.18,26.18,0,0,1,3.69-7.2c.59-.91,1.14-1.78,1.62-2.63,6.06-10.54,9.79-22.4,13.43-33.86.84-2.67,1.72-5.42,2.59-8.11a25.06,25.06,0,0,1,8.35-11.44c6-4.95,13.53-11.1,19.24-12.82a14.56,14.56,0,0,1,4.19-.62,25.73,25.73,0,0,1,7.64,1.51c1.17.37,2.41.73,3.62,1a17.27,17.27,0,0,0,3.85.45,9.9,9.9,0,0,0,7.74-3.2c2.89-3.22,4-8.69,3.21-15.8-.1-.84-.24-1.59-.4-2.38s-.33-1.67-.46-2.69c-.65-5.72.75-10.7,4.06-14.42,3.59-4,9.23-6.25,15.86-6.25a33.93,33.93,0,0,1,6.39.64c9.46,1.87,16.16,8.53,18.38,18.3,1.13,5,2.24,12.41,1.08,19.66-1.62,10.07-8.63,14.09-15.28,16.68-.31.11-.62.25-1,.36-3.92,1.53-7.64,3-9.63,8a39.38,39.38,0,0,0-1.56,6.53l-.11.59a43.82,43.82,0,0,1-3.11,11,30.26,30.26,0,0,1-2.58,4.11,25.76,25.76,0,0,0-3,5.11c-2.75,7-2.11,14.19-1.48,21.14.41,4.69.86,9.56.24,14.36,0,.39-.11.81-.18,1.2-1.51,9.27-8.75,13.88-15.75,18.35-1.64,1-3.32,2.13-4.93,3.26-7.5,5.26-13.85,8.22-20.56,9.6a38.8,38.8,0,0,1-13.7.23C161.83,322.28,143.75,317.15,140.32,302.81Zm.82-.17c3.32,13.84,21,18.85,31.27,20.6a37.27,37.27,0,0,0,6.06.49,36.81,36.81,0,0,0,7.35-.71c6.58-1.36,12.81-4.28,20.22-9.48,1.62-1.14,3.32-2.22,5-3.27,7.17-4.57,13.92-8.89,15.39-17.76.06-.42.11-.8.16-1.18.6-4.72.16-9.54-.26-14.2-.63-7-1.27-14.3,1.54-21.51a26.51,26.51,0,0,1,3.12-5.29,26.52,26.52,0,0,0,2.51-4,42.59,42.59,0,0,0,3-10.73l.13-.59a36.28,36.28,0,0,1,1.6-6.71c2.1-5.42,6.19-7,10.11-8.5l1-.38c9.22-3.61,13.5-8.26,14.74-16,1.14-7.12.05-14.44-1.07-19.33-2.14-9.41-8.6-15.85-17.71-17.65a33.21,33.21,0,0,0-6.23-.62c-6.41,0-11.79,2.12-15.24,6-3.14,3.51-4.46,8.27-3.82,13.72.11,1,.29,1.84.43,2.65s.3,1.56.41,2.44c.83,7.34-.36,13-3.41,16.45a10.72,10.72,0,0,1-8.38,3.5,19.22,19.22,0,0,1-4-.48c-1.26-.27-2.5-.65-3.71-1a25.26,25.26,0,0,0-7.38-1.46,14,14,0,0,0-3.95.57c-5.54,1.67-13,7.76-18.94,12.66A24.28,24.28,0,0,0,163,231.87c-.9,2.67-1.75,5.42-2.6,8.1-3.64,11.49-7.39,23.4-13.49,34-.5.86-1.05,1.73-1.66,2.64-1.48,2.31-3,4.66-3.57,7a18.41,18.41,0,0,0-.32,4.81,25.91,25.91,0,0,1-.18,4.13A26.19,26.19,0,0,0,141.14,302.64Z"/><path class="cls-2" d="M149.52,298.45c-3.67-8.31-2.08-17.09,4.32-24.13a29.62,29.62,0,0,1,5.41-4.28,26.23,26.23,0,0,0,5.52-4.48,15.89,15.89,0,0,0,2.33-4.2c.88-2.06,1.78-4.22,4-5.59A12.63,12.63,0,0,1,177.6,254a9.92,9.92,0,0,1,6.71,2.37,15.34,15.34,0,0,1,1.33,1.46,7.59,7.59,0,0,0,2.61,2.23,18.13,18.13,0,0,0,2.83,1.07,15.24,15.24,0,0,1,3.08,1.2,68.48,68.48,0,0,1,11.56,7.57c7,6.09,9.63,14.21,6.88,21.19a18.64,18.64,0,0,1-6.23,7.94c-1.81,1.38-3.56,2.83-5.24,4.23-6.81,5.64-13.25,11-23.26,11.92-.8.06-1.62.09-2.44.09A29.06,29.06,0,0,1,149.52,298.45Zm.4-.15a28.6,28.6,0,0,0,25.51,16.56,19,19,0,0,0,2.4-.13c9.89-.9,16.27-6.2,23-11.79,1.68-1.42,3.45-2.88,5.24-4.26a18.06,18.06,0,0,0,6.09-7.75c2.7-6.8.11-14.73-6.76-20.71A67.31,67.31,0,0,0,194,262.7a15.18,15.18,0,0,0-3-1.16,17.54,17.54,0,0,1-2.87-1.08,8.38,8.38,0,0,1-2.74-2.36,17.41,17.41,0,0,0-1.3-1.43,9.45,9.45,0,0,0-6.42-2.24,12.32,12.32,0,0,0-6.27,1.7c-2.1,1.29-2.94,3.29-3.84,5.41a15.71,15.71,0,0,1-2.41,4.31,27,27,0,0,1-5.61,4.54,29.06,29.06,0,0,0-5.31,4.22C147.85,281.51,146.33,290.14,149.92,298.3Z"/><path class="cls-2" d="M160.78,294.91c-.67-3.56,1-7,4.46-9.3,2.34-1.56,6.57-2.61,10.53-2.61,6.55,0,10.6,2.67,10.81,7.14a10.7,10.7,0,0,1-.18,2.41c-1.22,6.62-8.28,10.56-14.41,10.56a13.33,13.33,0,0,1-2.79-.28C164.81,301.87,161.51,298.77,160.78,294.91Zm.43-.08c.68,3.69,3.87,6.68,8.07,7.58a13.24,13.24,0,0,0,2.71.29c5.83,0,12.84-3.9,14-10.21a9.53,9.53,0,0,0,.18-2.33c-.29-6.24-8-6.73-10.38-6.73-3.9,0-8,1-10.29,2.53C162.13,288.2,160.55,291.44,161.21,294.83Z"/><path class="cls-2" d="M24.09,443.05c0-1.7.08-3.33,0-4.92,0-.55-.05-1.13-.08-1.68-.29-5.09-.56-9.89,1.7-12.35a6.19,6.19,0,0,1,4.56-1.82c3.85-.12,7.76,2,11.94,4.34a63.63,63.63,0,0,0,8.06,4,46.51,46.51,0,0,0,13.86,3.09,14.42,14.42,0,0,0,1.45.06c7.07,0,13-2.77,14.31-6.74a6.54,6.54,0,0,0,.16-3.43l-.07-.24a26.62,26.62,0,0,0-2.41-6.49,28.12,28.12,0,0,1-3-8.49c-1.26-8.61,2.6-13.89,6.07-16.8,6.31-5.34,14.18-6.28,23.83-7l1.24-.08c9.79-.7,19.06-1.36,23.86-9.61,3.91-6.7,8.52-15.47,9.37-24,.65-6.62-2.1-11.09-5-15.83a55.29,55.29,0,0,1-3.53-6.33l0-.06,0-.06a32.69,32.69,0,0,1-4.84-6.86c-2.86-4.86-5.82-9.88-11.35-10.87a8.41,8.41,0,0,0-1.44-.11,14.86,14.86,0,0,0-5,1,53.13,53.13,0,0,0-5.71,2.69,41.29,41.29,0,0,1-8.15,3.52,69.22,69.22,0,0,1-7.14,1.34,67.37,67.37,0,0,0-7.35,1.34c-4.67,1.16-9.2,2.48-13.59,3.72-8.9,2.54-17.31,5-27,6.45s-17.22,3-22,9.09a42.4,42.4,0,0,0-5,8.53,39.36,39.36,0,0,1-5.62,9.3C5,358.87,4,360,3,361s-2,2.12-3,3.2v1.32c1.1-1.35,2.31-2.63,3.58-3.93,1-1.06,2.08-2.16,3.11-3.35a39.65,39.65,0,0,0,5.77-9.48,42.34,42.34,0,0,1,4.87-8.38c4.64-5.82,11.84-7.31,21.52-8.77s18.62-4,27.16-6.47c4.37-1.24,8.9-2.55,13.58-3.71a72.06,72.06,0,0,1,7.23-1.33,65.44,65.44,0,0,0,7.23-1.35,41.53,41.53,0,0,0,8.36-3.6,55.12,55.12,0,0,1,5.6-2.65,15.16,15.16,0,0,1,4.68-.91,7.87,7.87,0,0,1,1.3.1c5.13.93,8,5.78,10.78,10.47a33.08,33.08,0,0,0,4.89,7,57.4,57.4,0,0,0,3.55,6.36c2.81,4.6,5.48,8.95,4.86,15.3-.82,8.34-5.39,17-9.25,23.65-4.58,7.84-13.23,8.46-23.19,9.19l-1.24.08c-9.81.72-17.81,1.69-24.31,7.19-3.63,3.05-7.68,8.57-6.36,17.56a29.45,29.45,0,0,0,3.07,8.76,24.46,24.46,0,0,1,2.37,6.25l0,.24a5.48,5.48,0,0,1-.12,3c-1.23,3.63-6.78,6.19-13.5,6.19-.45,0-.92,0-1.4-.06a46.55,46.55,0,0,1-13.61-3,67,67,0,0,1-8-3.94c-4.26-2.37-8.29-4.6-12.37-4.44a7,7,0,0,0-5.15,2.07c-2.52,2.73-2.24,7.71-1.93,13,0,.59.07,1.15.08,1.72.08,1.54.05,3.13,0,4.81s-.08,3.55,0,5.31c0,1.09.14,2.15.27,3.22h.86c-.13-1.07-.24-2.15-.29-3.25C24,446.54,24.05,444.78,24.09,443.05Z"/><path class="cls-2" d="M301.55,343.41c-.31-3.18-.74-11.33,2.36-17.76,1.95-4.08,8.76-11.68,14.81-11.68a6.33,6.33,0,0,1,5.12,2.56c5.3,6.57,4.17,18.23-3.27,33.74-2.07,4.27-4.34,6.88-6.81,7.75a5.4,5.4,0,0,1-1.9.34,7,7,0,0,1-3.76-1.21C303.16,354.05,302,347.83,301.55,343.41Zm.43,0c.43,4.33,1.56,10.42,6.35,13.42a6,6,0,0,0,5.31.83c2.33-.83,4.53-3.37,6.55-7.57,7.36-15.33,8.5-26.84,3.34-33.26a6,6,0,0,0-4.81-2.42c-5.78,0-12.57,7.57-14.45,11.47C301.24,332.17,301.65,340.22,302,343.38Z"/><path class="cls-2" d="M270.84,315.12c1.22,3.86-1.27,8-4.1,10.26l-.05,0h-.43a3.63,3.63,0,0,1-1.07-.11h0l0,0c-.94-.92-1.88-2.75-1-4,.7-3,3.47-6.22,6.54-6.3h.15Zm-.38.28c-2.79.19-5.36,3.28-6,6l0,.06c-.71,1,.12,2.64.91,3.45a2.93,2.93,0,0,0,.89.1h.27C269.19,322.87,271.52,319,270.46,315.4Z"/><path class="cls-2" d="M0,400.23v-3.91a10.83,10.83,0,0,1,1.67-3.53c.21-.32.41-.63.62-1A42,42,0,0,0,5.87,382c.49-1.83,1-3.69,1.6-5.45,1.35-3.84,4.1-7.48,6.73-11a64.33,64.33,0,0,0,4.61-6.71c.62-1.33,1.16-2.67,1.68-3.93,1.89-4.56,3.53-8.47,7.38-11.41,3.53-2.69,9.21-3,14.69-3.32,1.37-.07,2.78-.15,4.15-.27,6.37-.53,13.4-2.91,20.22-5.24,6.55-2.24,12.74-4.32,18.38-4.91a41.34,41.34,0,0,1,4.48-.2c1.94,0,3.93.09,5.22.23,6.21.72,16,5.08,22.37,9a14.79,14.79,0,0,1,6.75,10.35c1.18,6.39-.84,14-5.09,19.44-2.57,3.31-6.42,5.28-11.74,6a79.33,79.33,0,0,1-11.37.54c-7.82,0-15.22,0-20.8,4.23a24.14,24.14,0,0,0-3.78,3.79l-.14.2c-5.68,6.7-9.75,14.1-10.88,19.8a42.41,42.41,0,0,0-.6,5.8c-.27,4.9-.53,9.16-5.29,9.31h-.07c-6.25-1.64-9.87-5.83-13.38-9.89-4.3-5-8.35-9.7-16.86-9.7-.86,0-1.76.07-2.7.16a39.6,39.6,0,0,0-8,2,40.49,40.49,0,0,1-6.51,1.74A13.16,13.16,0,0,1,5,402.7H5C2.53,402.7.81,401.85,0,400.23Zm.21-.54c.68,1.69,2.32,2.59,4.78,2.59H5a14.77,14.77,0,0,0,1.81-.14,39.63,39.63,0,0,0,6.46-1.73,41.46,41.46,0,0,1,8.14-2c.94-.09,1.86-.14,2.73-.14,8.7,0,12.83,4.77,17.17,9.84,3.47,4,7.05,8.14,13.14,9.76,4.38-.19,4.61-4,4.86-8.92a44.13,44.13,0,0,1,.62-5.88c1.14-5.75,5.25-13.23,11-20l.16-.19A23.31,23.31,0,0,1,74.88,379c5.69-4.29,13.5-4.31,21.05-4.31a82.77,82.77,0,0,0,11.3-.52c5.22-.77,9-2.69,11.5-5.92a25.3,25.3,0,0,0,5-19.11,14.35,14.35,0,0,0-6.59-10c-6.36-3.91-16-8.25-22.18-9-1.27-.14-3.24-.23-5.17-.23-1.68,0-3.23.07-4.45.19-5.58.57-11.75,2.68-18.27,4.89-6.83,2.32-13.91,4.74-20.31,5.28-1.39.1-2.8.19-4.19.26-5.42.3-11,.6-14.46,3.24-3.74,2.86-5.36,6.72-7.22,11.21-.54,1.28-1.08,2.62-1.7,4a60.79,60.79,0,0,1-4.64,6.77c-2.63,3.52-5.35,7.14-6.68,10.93-.6,1.71-1.11,3.59-1.61,5.4-.92,3.43-1.86,7-3.62,10A10.37,10.37,0,0,1,2,393,9,9,0,0,0,.21,399.69Z"/><path class="cls-2" d="M234.89,358.15c.83,5.55-.44,16.38-4.38,21.4-1.77,2.24-4.11,3.24-7.64,3.24h0a25.09,25.09,0,0,1-2.73-.17,50.73,50.73,0,0,1-19.4-6.47,50.11,50.11,0,0,1-5.54-4,54.52,54.52,0,0,0-6.65-4.73c-4.48-2.63-9.41-3.6-14.21-4.52-4.37-.84-8.51-1.63-11.7-3.65l0-.05,0-.05c-.31-.62-.7-1.22-1.06-1.81-.23-.38-.46-.73-.67-1.1l0,0A12.12,12.12,0,0,1,171,341.59c8.36-.35,17.64-1,24.85-1.77A95,95,0,0,0,210,336.93a79.59,79.59,0,0,1,9.76-2.13,12,12,0,0,1,1.32-.08c3.72,0,5.43,2.14,6.61,4.24a108.74,108.74,0,0,1,6,14.49C234,354.65,234.8,357.59,234.89,358.15Zm-.43.05a44.46,44.46,0,0,0-1.27-4.63,109.07,109.07,0,0,0-5.9-14.4c-1.12-2-2.75-4-6.24-4a7.11,7.11,0,0,0-1.28.1,78.78,78.78,0,0,0-9.69,2.11,97.44,97.44,0,0,1-14.22,2.91c-7.21.76-16.5,1.41-24.84,1.75a11.6,11.6,0,0,0-8,4.89,11.46,11.46,0,0,0-1.83,9.15c.19.33.41.7.63,1,.35.59.75,1.19,1,1.81,3.12,1.94,7.19,2.74,11.48,3.58,4.85.94,9.83,1.89,14.36,4.56a55.58,55.58,0,0,1,6.71,4.79,44.48,44.48,0,0,0,24.72,10.39,26.57,26.57,0,0,0,2.68.16c3.42,0,5.6-.92,7.29-3.08C233.68,374.8,235.37,364.27,234.46,358.2Z"/><path class="cls-2" d="M68.87,355.3c-.32-3.68,1.86-5.65,3.91-7.21A23.16,23.16,0,0,1,86.07,344c5.38,0,11.11,2.15,11.11,8.16,0,2.73-1.66,5-4.86,6.53a24.23,24.23,0,0,1-10.3,2h0C76.37,360.71,69.87,359,68.87,355.3Zm.43-.06c.78,3,6,5,12.72,5h0a23.65,23.65,0,0,0,10.11-2c2.11-1,4.63-2.91,4.63-6.15,0-4.85-4-7.73-10.69-7.73a22.7,22.7,0,0,0-13,4C71.06,349.92,69,351.81,69.3,355.24Z"/><path class="cls-2" d="M218.28,362.81a7,7,0,0,1-4.8,5.29,10.25,10.25,0,0,1-3.21.54h0c-6.87,0-12.75-7.53-15.92-11.55l0-.07v-.08a3.2,3.2,0,0,0-.26-1.1,2.17,2.17,0,0,1-.13-1.81L194,354a1.16,1.16,0,0,0,.38-.73l0-.08.08-.06a20.34,20.34,0,0,1,10.87-3.2,14,14,0,0,1,9.72,3.47A10.5,10.5,0,0,1,218.28,362.81Zm-3.53-9.13a13.66,13.66,0,0,0-9.43-3.37,19.81,19.81,0,0,0-10.57,3.1,1.83,1.83,0,0,1-.43.83,1.75,1.75,0,0,0,.11,1.46,2.93,2.93,0,0,1,.29,1.18c3.13,4,8.93,11.33,15.55,11.33h0a9.18,9.18,0,0,0,3.08-.52,6.5,6.5,0,0,0,4.52-5A10.07,10.07,0,0,0,214.75,353.68Z"/><path class="cls-2" d="M189,403.62a16.86,16.86,0,0,1-3.62,6.61c-8.38,9.92-17.89,17.17-26.27,23.56l-2.4,1.83c-1.48,1.13-2.84,2.36-4.16,3.5-4.79,4.2-9.3,8.19-18.13,8.19h0a37.77,37.77,0,0,1-4.13-.27c-6.92-.83-15.64-3.69-19.83-6.49a26.51,26.51,0,0,1-8.53-9.76l0-.05v-.06c0-3.5,2.18-5.15,4.34-6.74,1.12-.81,2.31-1.61,3.47-2.37a44.32,44.32,0,0,0,5-3.6c6.45-5.56,8.82-10.68,11.59-16.61a90.82,90.82,0,0,1,4.49-8.79c4.61-7.79,16.76-12.43,32.45-12.43a80.56,80.56,0,0,1,8.06.41,28.54,28.54,0,0,1,4.88.95C183.56,383.83,190.9,394.48,189,403.62Zm-12.91-21.7a30.52,30.52,0,0,0-4.81-1,79.31,79.31,0,0,0-8-.39c-15.53,0-27.53,4.56-32.1,12.21a85.66,85.66,0,0,0-4.46,8.77c-2.77,6-5.17,11.12-11.7,16.76a47.76,47.76,0,0,1-5,3.62c-1.16.75-2.37,1.55-3.45,2.36-2.07,1.51-4.2,3.06-4.18,6.34a26,26,0,0,0,8.37,9.57c4.15,2.78,12.77,5.58,19.64,6.41a34.45,34.45,0,0,0,4.08.25c8.67,0,13.12-3.91,17.84-8.06,1.34-1.16,2.7-2.37,4.2-3.51.78-.59,1.57-1.21,2.4-1.81,8.38-6.41,17.85-13.63,26.18-23.52a16.78,16.78,0,0,0,3.56-6.42C190.46,394.6,183.27,384.18,176.1,381.92Z"/><path class="cls-2" d="M173.07,394.51c1.66,2,2.19,4.66,1.55,7.84-.81,4-4.54,9.22-7.9,12.56a41.19,41.19,0,0,1-9.33,6.71c-1.34.66-2.69,1.36-4,2.05-3.75,1.9-7.29,3.72-10.36,5.15a13.42,13.42,0,0,1-3.49,1.27,6.38,6.38,0,0,1-1.22.09h0a6.34,6.34,0,0,1-5.58-3,7.34,7.34,0,0,1,.05-7.22c1.22-2.51,2.34-5.35,3.4-8.1,2.15-5.46,4.36-11.12,7.81-15.06,3.3-3.8,10.54-6.45,17.58-6.45C166.79,390.38,170.87,391.85,173.07,394.51Zm-.34.27c-2.1-2.56-6.09-4-11.19-4-6.93,0-14,2.59-17.27,6.29-3.4,3.9-5.59,9.51-7.72,14.95-1.08,2.74-2.2,5.59-3.44,8.13a6.86,6.86,0,0,0,0,6.81,5.89,5.89,0,0,0,5.2,2.77h0a7.8,7.8,0,0,0,1.16-.08,14.62,14.62,0,0,0,3.37-1.24c3.05-1.45,6.6-3.25,10.37-5.16l4-2a40.23,40.23,0,0,0,9.24-6.63c3.3-3.3,7-8.39,7.77-12.33C174.81,399.22,174.31,396.7,172.73,394.78Z"/><path class="cls-2" d="M99.32,411.19h0c-4.49,0-8-2.13-9.67-5.84l0-.06v-.05a11.22,11.22,0,0,0-.07-1.84,5.1,5.1,0,0,1,.11-2.31c1.45-4.42,8.81-7.38,14.82-7.38,5.25,0,8.46,2.14,8.81,5.87.21,2.23-1.59,5.34-2.93,6.85A15.3,15.3,0,0,1,99.32,411.19Zm10.73-5c1.25-1.4,3-4.46,2.83-6.52-.48-5-6-5.5-8.4-5.5-5.74,0-13,2.92-14.4,7.1a4.46,4.46,0,0,0-.11,2.1,11.63,11.63,0,0,1,.09,1.88c1.59,3.53,5,5.55,9.26,5.55A14.88,14.88,0,0,0,110.05,406.15Z"/><path class="cls-2" d="M304.89,419.28c-.22-1.32-.56-3.31,1-4.23a2.53,2.53,0,0,1,1.43-.14h.05l0,0a5.67,5.67,0,0,1,2.44,3.21,2.48,2.48,0,0,1-.51,2l-.05.07a2.83,2.83,0,0,1-1.61.49,3.75,3.75,0,0,1-2.73-1.35l0-.06Zm.43-.13a3.29,3.29,0,0,0,2.35,1.18,2.32,2.32,0,0,0,1.34-.43,2.17,2.17,0,0,0,.43-1.69,5,5,0,0,0-2.23-2.89,2.49,2.49,0,0,0-1.14.1C304.81,416.18,305.1,417.88,305.32,419.15Z"/><path class="cls-2" d="M215.8,433c.38-3.56,0-6.95-1-8.23-2.35-3.17-9.17-4.3-14.8-4.3a28.53,28.53,0,0,0-9.36,1.31c-4.14,1.52-8.68,5.61-12.34,8.9-2.1,1.86-4.47,3.74-6.74,5.56-5.87,4.66-11.89,9.45-14.77,15.27h.46c2.9-5.65,8.81-10.37,14.58-15,2.27-1.81,4.64-3.67,6.76-5.56,3.62-3.28,8.14-7.33,12.21-8.83a28.65,28.65,0,0,1,9.2-1.28c5.27,0,12.2,1.08,14.47,4.11.87,1.2,1.26,4.54.91,8a132.21,132.21,0,0,1-3.88,17.57c-.11.33-.21.65-.31,1h.43c.11-.29.19-.58.27-.86A128.31,128.31,0,0,0,215.8,433Z"/><path class="cls-2" d="M2.67,431.09a12.76,12.76,0,0,0-2.67.29v.44a12.81,12.81,0,0,1,2.67-.32,10.9,10.9,0,0,1,8.83,4.57c2.39,3.11,3.78,9.22,4.07,15.47H16c-.29-6.35-1.67-12.55-4.11-15.74A11.37,11.37,0,0,0,2.67,431.09Z"/><path class="cls-2" d="M193.78,444.51v.09a6.25,6.25,0,0,1-5.82,6.2h0a4.33,4.33,0,0,1-2-.47l-.05,0,0-.06a1.27,1.27,0,0,1-.13-.32,1.15,1.15,0,0,0-.25-.41l-.11-.1v-.11c.35-3,3.09-6.39,6.14-6.39a4.16,4.16,0,0,1,1.37.24l.06,0a1.23,1.23,0,0,1,.45.73.91.91,0,0,0,.28.52Zm-.41.19a1.17,1.17,0,0,1-.35-.64,1,1,0,0,0-.29-.52,4.51,4.51,0,0,0-1.19-.21c-2.81,0-5.34,3.17-5.71,5.92a1.33,1.33,0,0,1,.3.54c0,.06.05.12.08.17a3.86,3.86,0,0,0,1.75.42h0a5.43,5.43,0,0,0,3.82-1.82A5.54,5.54,0,0,0,193.37,444.7Z"/><path class="cls-2" d="M2.54,446.81a4.14,4.14,0,0,0-2.35-.76l-.19,0v.43H.19a3.72,3.72,0,0,1,2.1.65,5.16,5.16,0,0,1,1.94,4.23c0,.06,0,.11,0,.16h.43v-.16A5.45,5.45,0,0,0,2.54,446.81Z"/><path class="cls-2" d="M447.51,374.7a68,68,0,0,1-4.58,10.24c-.43.73-.9,1.46-1.41,2.23-2.69,4.16-5.74,8.87-4.53,17.93a34.41,34.41,0,0,0,1.41,5.59c.86,2.71,1.75,5.5,1.51,8.38a19.85,19.85,0,0,1-2.08,6.57c-.87,1.79-1.75,3.34-2.58,4.83-3.05,5.53-5.46,9.92-5.51,21.07h.84c.05-10.93,2.31-15,5.42-20.67.85-1.48,1.69-3,2.58-4.85a20.42,20.42,0,0,0,2.18-6.87c.24-3-.67-5.94-1.55-8.73a33.81,33.81,0,0,1-1.39-5.45c-1.17-8.73,1.81-13.31,4.43-17.36.48-.76,1-1.49,1.41-2.26A68.59,68.59,0,0,0,448.31,375a48.14,48.14,0,0,1,3.11-7.1,26.52,26.52,0,0,1,1.67-2.37v-1.31a27.05,27.05,0,0,0-2.4,3.23A49.06,49.06,0,0,0,447.51,374.7Z"/><path class="cls-2" d="M400.76,361.44c-8.89-1.46-16.2-9.89-18.17-21-.19-6.36.38-15.34,7.29-20.35a12.77,12.77,0,0,1,7.71-2.38c6.79,0,15,4.42,20.92,11.25,4.73,5.46,7,11.4,6.33,16.32-1.24,8.61-13.26,16.29-21.87,16.29h0A14.55,14.55,0,0,1,400.76,361.44Zm.08-.43a11.41,11.41,0,0,0,2.13.18c8.45,0,20.23-7.51,21.44-15.93.7-4.8-1.59-10.62-6.21-16-5.85-6.74-13.95-11.09-20.61-11.09a12.5,12.5,0,0,0-7.45,2.29c-6.74,4.89-7.32,13.73-7.14,20C384.94,351.3,392.11,359.6,400.84,361Z"/><path class="cls-2" d="M452.9,399.79l0,0a2.59,2.59,0,0,1,.17.38v-3.87A10.57,10.57,0,0,0,452.9,399.79Z"/><path class="cls-2" d="M403.25,345.53c-1,0-2.95-.43-4.15-3.33v0a4.38,4.38,0,0,1,.92-3.61,4.78,4.78,0,0,1,3.64-1.59,4.27,4.27,0,0,1,3,1.16,3.87,3.87,0,0,1,.95,4.39,5,5,0,0,1-4.39,3Zm0-.43a4.53,4.53,0,0,0,4-2.77,3.43,3.43,0,0,0-.88-3.91,3.9,3.9,0,0,0-2.73-1.05,4.36,4.36,0,0,0-3.32,1.45,3.86,3.86,0,0,0-.81,3.24C400.33,344,401.65,345.1,403.25,345.1Z"/><path class="cls-2" d="M410,396.62a7.27,7.27,0,0,1-2.16,5.42,11.69,11.69,0,0,1-8.19,3.34h0c-3.23,0-5.75-1.39-6.93-3.84l0-.05c-1.11-5.88.63-12.72,6.14-14.45a6.83,6.83,0,0,1,1.81-.27C405.45,386.77,409.88,392.28,410,396.62Zm-.41,0c-.16-4.12-4.53-9.44-8.95-9.44a5.21,5.21,0,0,0-1.7.27c-5.25,1.62-6.9,8.23-5.82,13.91,1.09,2.29,3.46,3.57,6.53,3.57h0a11.22,11.22,0,0,0,7.89-3.21A6.93,6.93,0,0,0,409.63,396.64Z"/><path class="cls-2" d="M392.19,428.8c-2.8-4.43-6.84-7.12-11.4-7.57-.45,0-.89-.06-1.37-.06-7.69,0-17.23,5.8-21.33,11.22a10.86,10.86,0,0,0-2.21,7.65,27,27,0,0,0,5.58,11.5H362A26.4,26.4,0,0,1,356.29,440a10.47,10.47,0,0,1,2.13-7.33c4-5.34,13.43-11,21-11,.46,0,.91,0,1.34.06,4.42.42,8.34,3.06,11.08,7.38,2.34,3.67,4.2,8.9,6,14,1,2.92,2.11,5.93,3.24,8.54h.46c-1.16-2.66-2.25-5.71-3.32-8.68C396.43,437.77,394.56,432.52,392.19,428.8Z"/><path class="cls-2" d="M438.37,446.73a30.17,30.17,0,0,0-.81,4.81H438a32,32,0,0,1,.79-4.73c.89-6.82,7.57-13.51,14.31-15v-.44C446.08,432.82,439.31,439.61,438.37,446.73Z"/><path class="cls-2" d="M449.71,448a6.19,6.19,0,0,0-1.26,3.58h.43a5.76,5.76,0,0,1,1.16-3.33,4.23,4.23,0,0,1,3-1.71v-.43A4.57,4.57,0,0,0,449.71,448Z"/><path class="cls-2" d="M8.74,79.24c4.17,1.89,8.49,3.83,15.57,2C31.06,79.49,45.76,71,47.47,65c.73-2.61.08-4.93-.49-7a17.45,17.45,0,0,1-.54-2.19c-.57-3.4-.88-5.94-1.24-8.92-.13-1.17-.29-2.41-.45-3.77-.82-6.45-2.1-12.51-3.43-18.93-.4-2-.83-4-1.24-6.11-.51-2.57-1.26-5.08-2-7.53C37.44,8.27,36.76,6,36.26,3.63A30.78,30.78,0,0,1,35.71,0H34.42A32.41,32.41,0,0,0,35,3.88c.51,2.38,1.21,4.72,1.87,7s1.43,4.88,1.94,7.41l1.27,6.12c1.33,6.39,2.56,12.42,3.39,18.82.18,1.35.32,2.58.46,3.77.34,2.85.65,5.55,1.24,9a23,23,0,0,0,.58,2.35c.54,2,1.11,4,.49,6.26C44.77,69.86,31.08,78.17,24,80c-6.66,1.71-10.75-.13-14.72-1.93C6.49,76.84,3.63,75.53,0,75.55v1.27C3.34,76.82,6,78,8.74,79.24Z"/><path class="cls-2" d="M17.3,130.73c3.27.7,6.66,1.43,9.54,2.21,5.66,1.54,8.58,4.23,9.44,8.66.62,3.21.48,7.13.3,11.26a77.53,77.53,0,0,0,.13,12c1.41,12.62,9.71,13.91,17.73,15.13a95.62,95.62,0,0,0,14.64,1.46c8.26,0,14.54-2.25,16.21-10,1.35-6.28.42-13.77-.57-21.72-.48-3.78-1-7.69-1.21-11.57a73.47,73.47,0,0,0-.86-8.55c-1.16-6.49-4.13-10.83-7-15s-5.45-8-6.57-13.79c-1.43-7.52-1.49-13.54-.22-17.9,1.4-4.72,5.77-4.42,11.3-4.07a46.07,46.07,0,0,0,7.06.1l.27,0a32.92,32.92,0,0,0,5.77-.84c9.37-2.5,8.54-10.13,6.76-18.39-.17-.75-.35-1.51-.54-2.26-.67-2.66-1.32-5.22-.52-7.57a19.9,19.9,0,0,1,3.48-5.93,23.69,23.69,0,0,0,4.15-7.22c.14-.49.31-.95.46-1.44.39-1.21.76-2.37,1.22-3.61a45.78,45.78,0,0,1,3.85-7.46,45.84,45.84,0,0,0,3.78-7.37,7,7,0,0,0,.21-3.36C114.4,7.39,99.59,3.4,99,3.23a43.4,43.4,0,0,0-5.82-1,34,34,0,0,1-4.85-.83A45.31,45.31,0,0,1,83.86,0H80.27A65.2,65.2,0,0,0,88,2.62a42.88,42.88,0,0,0,5,.86,43.8,43.8,0,0,1,5.66,1c5.92,1.58,15.14,5.38,16.26,9.35a5.24,5.24,0,0,1-.19,2.59A42.27,42.27,0,0,1,111,23.55a46.3,46.3,0,0,0-3.94,7.64c-.46,1.27-.83,2.44-1.24,3.67-.14.47-.3,1-.48,1.45a22.59,22.59,0,0,1-3.94,6.85,21.22,21.22,0,0,0-3.67,6.28c-.93,2.71-.23,5.43.51,8.29.15.73.34,1.48.52,2.21,1.72,7.93,2.45,14.69-5.87,16.9a36.09,36.09,0,0,1-5.53.81h-.28a49.05,49.05,0,0,1-6.86-.11c-5.61-.37-10.9-.7-12.59,5-1.35,4.58-1.3,10.8.18,18.52,1.17,6,4,10.21,6.77,14.26s5.69,8.35,6.8,14.57a83,83,0,0,1,.85,8.39c.22,3.91.71,7.85,1.19,11.65,1,7.84,1.91,15.22.59,21.29-2.32,10.81-15.23,9.75-29.4,7.55-9.57-1.49-15.45-3.18-16.68-14a80.32,80.32,0,0,1-.11-11.81c.18-4.22.34-8.19-.31-11.56-1-5-4.17-7.93-10.39-9.65-2.87-.76-6.29-1.51-9.58-2.23-1.75-.36-3.56-.76-5.26-1.16-3.07-.7-7.19-1.43-12.31-2.17v1.28q7.52,1.1,12,2.15C13.72,130,15.55,130.33,17.3,130.73Z"/><path class="cls-2" d="M327.52,19.24a73.54,73.54,0,0,0-4.15,12.16c-.8,3.64-3.22,7.11-6,8.62a7.11,7.11,0,0,1-6.07.44c-8.61-3.19-16.63-11.32-19.67-14.67-.51-.54-1-1.1-1.48-1.66-3.35-3.73-6.8-7.58-11.57-10.16-4.12-2.3-9.92-2.48-19.84-2l-.55,0c-5.15.26-11,.54-12.94-2-.89-1.18-1-2.91-.2-5.3A17.41,17.41,0,0,1,247.63,0h-1.56a18,18,0,0,0-2.21,4.34c-.89,2.81-.76,4.91.41,6.44,2.36,3.05,8.29,2.77,14,2.48l.54,0c9.68-.46,15.31-.31,19.17,1.85,4.58,2.48,8,6.25,11.21,9.89.51.55,1,1.11,1.51,1.67,3.1,3.41,11.3,11.7,20.18,15a8.44,8.44,0,0,0,3,.55A8.54,8.54,0,0,0,318,41.13a14.68,14.68,0,0,0,6.61-9.46,75.93,75.93,0,0,1,4.07-12A78.79,78.79,0,0,0,332.78,7.9c.6-2.57,1.17-5.21,1.73-7.76,0,0,0-.09.05-.14h-1.31c-.55,2.5-1.11,5.09-1.71,7.62A82.26,82.26,0,0,1,327.52,19.24Z"/><path class="cls-2" d="M415.56,15.26A41.41,41.41,0,0,0,411,26.18c-1.28,5.46.92,11,3.05,16.49a51.32,51.32,0,0,1,2.64,7.95c1.35,6.44.33,11.61-.7,17.09-.13.57-.24,1.14-.35,1.73A13.66,13.66,0,0,0,417.51,80c1.94,2.77,5.14,4.61,9.24,5.28a12.59,12.59,0,0,0,2.29.21c4.18,0,7.5-1.94,11-4,3.14-1.83,6.42-3.75,10.62-4.45a15.33,15.33,0,0,1,2.41-.19V75.55a15.25,15.25,0,0,0-2.64.22c-4.42.72-7.79,2.7-11.05,4.6S432.87,84.2,429,84.2a14,14,0,0,1-2.1-.18c-3.74-.63-6.64-2.29-8.38-4.77a12.26,12.26,0,0,1-1.63-9.57c.09-.57.22-1.18.33-1.75,1.08-5.59,2.11-10.89.71-17.56a53.56,53.56,0,0,0-2.71-8.18c-2.07-5.24-4.17-10.65-3-15.72a41.88,41.88,0,0,1,4.42-10.6c2.51-4.65,4.88-9.07,4.44-15.87h-1.27C420.26,6.5,418,10.76,415.56,15.26Z"/><path class="cls-2" d="M354.14,4.13C355.57,6,357,7.9,358.63,9.68c4.31,4.87,9.68,7.68,14.88,10.4a53.58,53.58,0,0,1,9.16,5.53c5.16,4.22,7.8,8.35,6.08,17-1.24,6.2-3.38,14.6-5.46,19.37-1.61,3.67-4.15,6.44-6.62,9.12-4.43,4.82-8.63,9.4-6.75,18.36a80.94,80.94,0,0,0,4.18,12.61c1.06,2.7,2.16,5.49,3,8.24a99.84,99.84,0,0,1,2.48,10c.15.74.3,1.49.48,2.22,1,4.76,4.21,7.09,9.74,7.09a36.42,36.42,0,0,0,6.49-.71c3.58-.64,6.74-1.51,9.79-2.35a67.05,67.05,0,0,1,10.51-2.31A51.06,51.06,0,0,1,422,124a118.46,118.46,0,0,1,15.62,1.43c1.92.27,3.92.51,6,.77,3.47.43,6.65.84,9.49,1.25v-1.28c-2.81-.4-5.91-.82-9.35-1.21-2.08-.26-4.08-.53-6-.78A116.39,116.39,0,0,0,422,122.72a48.78,48.78,0,0,0-5.48.28,66.6,66.6,0,0,0-10.7,2.34c-3,.83-6.17,1.7-9.67,2.34a35.76,35.76,0,0,1-6.28.66c-4.91,0-7.61-1.92-8.5-6.07-.18-.71-.32-1.46-.48-2.22a98.68,98.68,0,0,0-2.51-10.11c-.89-2.8-2-5.6-3-8.32a78.55,78.55,0,0,1-4.14-12.38c-1.73-8.35,2.07-12.5,6.48-17.27,2.52-2.77,5.13-5.61,6.81-9.47,2.12-4.87,4.31-13.36,5.55-19.62,1.85-9.25-1.14-13.83-6.51-18.24A56,56,0,0,0,374.1,19c-5.11-2.67-10.37-5.42-14.52-10.11-1.56-1.75-3-3.66-4.44-5.48-.85-1.12-1.73-2.25-2.62-3.36h-1.65l.16.21C352.09,1.49,353.14,2.83,354.14,4.13Z"/><path class="cls-2" d="M19.05,227.66c3.52-.56,7.69-.84,11.7-1.13,5.75-.41,11.19-.79,15.07-1.86a19.82,19.82,0,0,0,11.68-9.19,14,14,0,0,0,1.4-10.92c-2.32-7.87-10.94-6.69-16.61-5.91-6.23.85-15.22,1.81-21.38.22-5.87-1.53-7.59-6.49-5.41-15.6a63.1,63.1,0,0,1,2.31-7.06c1.92-5.23,3.92-10.63,2.54-15.7A21.68,21.68,0,0,0,19,157,31,31,0,0,0,0,141v1.34a29.61,29.61,0,0,1,17.88,15.19,18.27,18.27,0,0,1,1.25,3.28c1.28,4.67-.64,9.89-2.52,14.93A68.36,68.36,0,0,0,14.24,183c-.84,3.59-3.44,14.56,6.35,17.1,6.37,1.66,15.55.7,21.86-.17,7-1,13.37-1.31,15.24,5a12.8,12.8,0,0,1-1.3,9.95,18.65,18.65,0,0,1-10.92,8.57c-3.75,1.05-9.13,1.41-14.8,1.81-4.06.29-8.24.57-11.83,1.13a97,97,0,0,0-13.4,3.38c-1.77.54-3.6,1.09-5.44,1.59v1.32c2-.54,3.93-1.12,5.82-1.7A94.83,94.83,0,0,1,19.05,227.66Z"/><path class="cls-2" d="M57,441.17a81,81,0,0,0-10.32-2.26l-1.3-.17a10.41,10.41,0,0,0-4.9,0c-4.56,1.38-6.69,6-6.07,12.8h1.29c-.39-4.38.12-10.07,5.15-11.59a9.28,9.28,0,0,1,4.32,0l1.34.2a74.55,74.55,0,0,1,10.16,2.23,127.35,127.35,0,0,1,16.82,6.3c2.33,1,4.62,2,6.82,2.83h3.59c-3.1-1.1-6.44-2.52-9.9-4A133.43,133.43,0,0,0,57,441.17Z"/><path class="cls-2" d="M442.17,244.23c-7.84,2.83-14.07,9.84-14.78,16.63-.4,3.54.52,8.66,7,12.75.43.25.81.5,1.22.74,3.52,2.18,6.52,4.06,8.59,7.81,2.4,4.37,1.95,8.27,1.45,12.78-.13,1.19-.28,2.43-.35,3.69-.39,5.74,3.4,9.62,7.75,13.39v-1.71c-3.72-3.3-6.82-6.78-6.5-11.62.1-1.22.22-2.43.37-3.61.5-4.53,1-8.8-1.61-13.53-2.23-4.05-5.39-6-9.05-8.28l-1.17-.73c-4.74-3-7-7-6.5-11.56.7-6.33,6.56-12.87,14-15.56a93.32,93.32,0,0,1,10.46-2.85h0v-1.31l-.3.07A93.67,93.67,0,0,0,442.17,244.23Z"/><path class="cls-2" d="M436.26,131.48c-5.87-.84-11.61-1.51-17.19-.19-7,1.67-12.54,5.21-18,9-3.1,2.15-6.53,4.26-9.87,6.31-4.93,3.07-9.6,5.93-12.62,8.56-6.41,5.56-8.67,11.43-7.79,20.28a159.93,159.93,0,0,0,4.72,24.75c1.35,5.41,2.75,11,3.74,17.24.25,1.54.52,3.1.81,4.75,1.24,7.11,2.64,15.15,1.94,21.35-.94,8.32-7,15.33-15.92,18.3l-2.61.49h2.14a.75.75,0,0,0-.08.18.65.65,0,0,0,0,.43c0,.09-2.49.28-2.4.35a8.49,8.49,0,0,0,3.52-.29v0c9.24-3.15,15.58-10.54,16.57-19.3.7-6.36-.72-14.52-2-21.7-.28-1.66-.56-3.21-.79-4.74-1-6.28-2.42-11.91-3.79-17.34A163.79,163.79,0,0,1,372,175.31c-.82-8.38,1.31-13.95,7.36-19.17,3-2.57,7.57-5.43,12.47-8.45,3.34-2.05,6.8-4.18,9.93-6.36,5.59-3.86,10.77-7.2,17.6-8.82,5.35-1.26,11-.62,16.7.22l5.37.77c4.09.55,8,1.09,11.65,1.79V134c-3.62-.7-7.47-1.23-11.49-1.79C439.85,132,438.09,131.75,436.26,131.48Z"/><path class="cls-2" d="M416.05,439.37c-2.67-3.83-5.2-7.45-3.8-12.64.92-3.43,3.69-5.27,6.61-7.23,3.1-2.08,6.32-4.2,7.24-8.39,1.24-5.47.82-18.76-.08-22.8a23.19,23.19,0,0,0-1.86-4.63c-1.56-3.22-3.32-6.88-2.18-10.28,1.51-4.44,7.09-7.7,12.51-10.86,2.24-1.3,4.36-2.56,6.17-3.85,4.88-3.54,12.24-8.9,10.8-17.39-1.18-6.87-6.87-9.81-12.9-12.93a68,68,0,0,1-10.38-7.23c-4.08-3.23-8.3-6.57-13-8.46l-1.54-.65a23.65,23.65,0,0,0-3.56-1.37c-.43-.12-.91-.24-1.38-.38-4-1.08-9.38-2.54-14.61-2.54a21.74,21.74,0,0,0-4.72.48c-7.91,1.7-13.79,11.27-15.49,19.8-3,14.92,2.59,23.61,7.49,31.31a47.33,47.33,0,0,1,5.06,9.3,14.24,14.24,0,0,1,.6,8.09c-2.31,9.14-9.36,17.15-16.85,25.64-1.82,2-3.69,4.17-5.49,6.32a97,97,0,0,1-11.3,11.57l-.29.24A33.29,33.29,0,0,0,347,426.7c-.22.3-.43.62-.62.92-4.19,6.76-4.75,12.36-1.7,17.17a22.33,22.33,0,0,0,3.76,4.2,35.07,35.07,0,0,1,2.47,2.55h1.64l-.51-.62a30.85,30.85,0,0,0-2.73-2.85,21.39,21.39,0,0,1-3.55-4c-2.76-4.36-2.21-9.52,1.7-15.8.18-.29.39-.57.56-.86a33,33,0,0,1,6-6l.28-.24a96.18,96.18,0,0,0,11.44-11.7c1.81-2.14,3.68-4.26,5.48-6.29,7.6-8.61,14.77-16.74,17.12-26.17a15.61,15.61,0,0,0-.63-8.86,48.7,48.7,0,0,0-5.19-9.55c-4.76-7.48-10.19-15.95-7.29-30.37,1.63-8.14,7.14-17.21,14.5-18.82a21.4,21.4,0,0,1,4.45-.43c5.05,0,10.38,1.45,14.27,2.51l1.39.37a21.55,21.55,0,0,1,3.38,1.3c.51.22,1,.46,1.56.65,4.5,1.85,8.65,5.12,12.66,8.29A67.59,67.59,0,0,0,438,329.5c6,3.1,11.14,5.77,12.21,12,1.32,7.71-5.66,12.79-10.3,16.15a70.07,70.07,0,0,1-6.06,3.78c-5.61,3.29-11.41,6.66-13,11.54-1.32,3.91.55,7.81,2.22,11.24a23.35,23.35,0,0,1,1.77,4.36c.89,3.93,1.24,17.09.09,22.26-.82,3.68-3.7,5.59-6.72,7.6s-6.07,4.07-7.12,8c-1.56,5.74,1.25,9.77,4,13.68,2,2.93,4.16,6,4.67,9.86.07.54.1,1.07.15,1.58h1.27c0-.56-.08-1.13-.16-1.74C420.41,445.61,418.2,442.44,416.05,439.37Z"/><path class="cls-2" d="M441.68,138.87c-6.82-1.21-13.86-2.48-20.51-.81-6.33,1.59-11.21,5.5-16.41,9.63-1.87,1.5-3.81,3-5.83,4.49l-.81.57c-3.55,2.51-7.2,5.1-10.64,7.9l-.05,0c-4.65,4.78-5,11.41-4.81,17.25,0,1.06.06,2.16.11,3.27.24,6.89.49,14,1.6,18.06,1.32,4.79,4.07,8.62,6.73,12.35,4,5.68,7.87,11,6.58,19.16a24.37,24.37,0,0,1-.84,3.34,21.39,21.39,0,0,0-1,4.42,12.76,12.76,0,0,0,.38,3.64,20.64,20.64,0,0,1,.35,2.32,24,24,0,0,1-2.72,12,27.29,27.29,0,0,1-19.43,14.13c-2.76.53-5.56,1.18-8.28,1.82a102.56,102.56,0,0,1-14.1,2.64c-1.12.07-2.18.17-3.24.25-9.37.76-17.43,1.4-26.43,5.6-2.18,1-4.55,1.86-6.83,2.68-6.9,2.47-14,5-17,12.47a101.16,101.16,0,0,1-6.6,12.76c-3.39,5.85-6.9,11.89-8.54,18.81-1.24,5.22-.46,10.51.32,15.64.11.66.19,1.32.28,2,1,7,1.45,12.84.24,18.42-1.44,6.73-5.69,10-16.23,12.48-9.86,2.34-13.94,3.71-16,14.23-.35,1.91-.69,3.86-1,5.76-2.15,12.44-4.15,24.21-15.23,27.48-3,.89-7.79.73-11-1.35a7.16,7.16,0,0,1-3.31-5.28,54.65,54.65,0,0,1-.35-5.5,30.75,30.75,0,0,0-1.08-8.68c-1.86-5.36-7.11-8.57-13.17-12.32-2.73-1.7-5.56-3.43-8.28-5.52-2-1.49-3.66-3-5.31-4.37-4.42-3.81-8.23-7.09-14.45-8.46a67.23,67.23,0,0,0-11.7-1.12c-8.27-.35-16.07-.67-18.17-5.89-.75-1.9-.3-4.73.11-7.23.05-.3.1-.6.13-.89.16-1,.3-2.07.46-3.18,1.14-8.43,2.73-20,10.62-21.13a41.28,41.28,0,0,1,9.68.29c1.22.11,2.48.25,3.74.33a64.13,64.13,0,0,0,24.81-2.77c5.58-1.7,10-4.89,14.31-8,4.13-3,8-5.77,12.81-7.26,1.82-.56,3.82-1,5.95-1.48,7.68-1.68,16.39-3.59,18.89-12.27,2-7-1.18-14.5-4.25-21.77a66.3,66.3,0,0,1-3.65-9.93c-1.8-7.54,1.46-16.08,4.32-23.6.59-1.57,1.15-3,1.67-4.51,1.73-4.95,4.09-8,8.92-11.75,7.36-5.66,11.81-11.76,16.48-22.53.34-.79.67-1.54,1-2.32,1.46-3.38,2.85-6.56,4.48-10.78a48.76,48.76,0,0,1,6.09-7.68c3.06-3.3,5.71-6.16,6.66-11.12a28.75,28.75,0,0,0,.4-2.91,30,30,0,0,1,.46-3.45c1.09-5.3,4.81-8.4,8.4-11.39,3.1-2.57,6.31-5.24,7.55-9.23,1.13-3.63,1.16-6,.79-10.08-.78-8.52-3.68-15.07-8-18-2.83-1.91-6.22-2.29-10-1.14-7.55,2.27-19,16.67-21.27,19.54-.52.66-1,1.35-1.54,2-3.48,4.58-6.76,8.88-11.56,10.68-4.17,1.56-9.7,2.15-15.55,2.8-3.53.38-7.2.78-10.63,1.42-13.91,2.55-23.77,12.27-25.68,25.35-.13.88-.17,1.89-.24,2.93a19.79,19.79,0,0,1-1,6.23c-1.4,3.35-4.93,4.1-8.65,4.91-1.16.26-2.35.51-3.48.84-4,1.2-7.54,3.5-11,5.76-4.08,2.67-8.3,5.45-13.57,6.52a62.32,62.32,0,0,1-6.89.82,45.42,45.42,0,0,0-8.85,1.31c-8,2.46-6.11,10-4.61,16,.33,1.3.63,2.52.82,3.64,1,5.66.58,11.74-1.35,19.15-.39,1.56-.71,3.09-1,4.55-.83,4-1.63,7.71-3.92,11.46-1.89,3.13-3.56,3.87-6.32,5.09-.75.32-1.58.68-2.48,1.14-8.3,4.11-14.58,9.72-21.21,15.66l-1.43,1.28a73.87,73.87,0,0,0-6,6.26,67.7,67.7,0,0,1-6.71,6.85c-4.11,3.43-9.2,6.08-16,8.28-4.67,1.53-9.47,2.83-14.08,4.11a198.64,198.64,0,0,0-21.4,6.74c-6.2,2.48-20,4.24-28.38,1.46-4.4-1.43-9.86-5-16.73-10.87-.41-.34-.79-.67-1.14-1V312l.32.28c7.07,6.07,12.54,9.59,17.15,11.11,9,3,23,1,29.25-1.51A197.66,197.66,0,0,1,68,315.21c4.64-1.26,9.43-2.58,14.15-4.12,6.91-2.27,12.11-5,16.36-8.52a62.78,62.78,0,0,0,6.87-7,75.85,75.85,0,0,1,5.91-6.15l1.43-1.29c6.58-5.88,12.78-11.43,20.92-15.45.89-.43,1.72-.81,2.45-1.13,2.78-1.22,4.79-2.11,6.9-5.58,2.39-3.94,3.2-7.81,4.06-11.88.3-1.44.63-3,1-4.46,2-7.62,2.4-13.88,1.37-19.72-.21-1.16-.51-2.4-.84-3.72-1.53-6.07-3.07-12.35,3.73-14.46a45.63,45.63,0,0,1,8.59-1.24c2.42-.23,4.91-.43,7-.85,5.53-1.11,9.86-4,14-6.72,3.48-2.29,6.76-4.45,10.61-5.6,1.09-.32,2.25-.57,3.4-.81,3.89-.84,7.88-1.7,9.55-5.64a20.57,20.57,0,0,0,1.08-6.66,24.78,24.78,0,0,1,.24-2.83c1.82-12.51,11.28-21.83,24.65-24.3,3.37-.62,7-1,10.54-1.39,5.93-.64,11.54-1.24,15.85-2.87,5.13-1.92,8.53-6.39,12.13-11.09.5-.67,1-1.34,1.51-2,6.05-7.79,15.08-17.44,20.63-19.13,3.44-1,6.44-.68,8.94,1,4,2.68,6.72,8.9,7.45,17.06.35,3.81.4,6-.73,9.55s-4.07,6.07-7.15,8.66c-3.77,3.14-7.65,6.36-8.83,12.12a33,33,0,0,0-.49,3.54q-.13,1.5-.36,2.82c-.91,4.59-3.44,7.33-6.35,10.51a46.64,46.64,0,0,0-6.28,7.91l0,.11c-1.62,4.22-3,7.41-4.48,10.78-.35.78-.68,1.53-1,2.32-4.57,10.54-8.91,16.52-16.07,22-5.09,3.89-7.54,7.12-9.36,12.34-.53,1.43-1.08,2.91-1.67,4.46-2.94,7.7-6.27,16.41-4.36,24.36A70,70,0,0,0,245,280.35c3,7,6.09,14.38,4.2,20.93-2.28,7.94-10.59,9.77-17.92,11.37-2.16.48-4.21.92-6.06,1.49-5,1.56-9.16,4.57-13.18,7.46-4.21,3-8.55,6.17-13.94,7.81a63.58,63.58,0,0,1-24.34,2.7c-1.24-.08-2.49-.21-3.69-.33a44.43,44.43,0,0,0-10-.27c-8.87,1.28-10.49,13.38-11.71,22.21-.15,1.12-.29,2.16-.43,3.14-.07.29-.11.59-.16.89-.42,2.67-.91,5.69,0,7.92,2.4,6,10.59,6.31,19.3,6.66a69.91,69.91,0,0,1,11.5,1.1c5.88,1.3,9.41,4.35,13.88,8.19,1.65,1.43,3.37,2.89,5.35,4.43,2.77,2.1,5.65,3.88,8.41,5.58,5.85,3.61,10.89,6.73,12.61,11.66a29.54,29.54,0,0,1,1,8.31,53,53,0,0,0,.35,5.63,8.53,8.53,0,0,0,3.88,6.17c3.51,2.27,8.69,2.48,12,1.51,11.84-3.52,14-16.22,16.12-28.51.31-1.89.66-3.83,1-5.71,1.86-9.65,5.31-10.95,15-13.24,9.3-2.19,15.4-5.21,17.18-13.45,1.24-5.77.83-11.73-.2-18.87-.1-.67-.21-1.32-.31-2-.77-5.23-1.52-10.19-.33-15.16,1.57-6.71,5.06-12.69,8.39-18.45a97.49,97.49,0,0,0,6.68-12.94c2.75-6.93,9.32-9.28,16.27-11.75a74,74,0,0,0,6.94-2.73c8.78-4.1,16.76-4.74,26-5.47l3.24-.25a100.6,100.6,0,0,0,14.3-2.67c2.7-.62,5.5-1.31,8.21-1.8a28.63,28.63,0,0,0,20.34-14.82,24.79,24.79,0,0,0,2.86-12.67,23.81,23.81,0,0,0-.38-2.48,11.6,11.6,0,0,1-.35-3.29,18.45,18.45,0,0,1,.94-4.15,24.67,24.67,0,0,0,.9-3.53c1.35-8.63-2.8-14.45-6.82-20.09-2.59-3.63-5.28-7.38-6.55-11.94-1.08-3.91-1.3-11-1.54-17.78,0-1.09-.08-2.19-.13-3.27-.22-5.56.16-11.85,4.44-16.28,3.4-2.77,7-5.36,10.52-7.84l.83-.59c2-1.44,4-3,5.9-4.5,5.07-4.05,9.89-7.87,15.94-9.39,6.36-1.61,13-.43,20,.83,2.13.38,4.3.79,6.48,1.08a30.84,30.84,0,0,1,5.15,1.16V141a32.52,32.52,0,0,0-5-1.08C446,139.65,443.78,139.27,441.68,138.87Z"/><path class="cls-2" d="M435.13,234.27c-2.18.16-4.44.31-6.79.61-5.84.71-7.44,2.72-10.08,6-.4.49-.79,1-1.27,1.56s-1.1,1.3-1.62,1.92c-3.2,3.75-5.74,6.73-6,13-.22,5.35,2.12,8.61,4.82,12.38l1.26,1.73c.35.51.74,1.08,1.17,1.66,4.52,6.37,11.39,16,7.49,23.1-4.39,8-18.51,5.26-26.07,3.78l-.73-.13c-.81-.16-1.64-.32-2.47-.51-6.37-1.3-13-2.67-15.94,1.42l-1,1.54c-4.58,6.77-8.9,13.16-10.7,20.52a62.62,62.62,0,0,0-1.07,21.85c.58,4.69,3.1,9.43,5.55,14,3.5,6.55,6.77,12.72,4.45,18.3-2.16,5.15-6.56,9.19-10.82,13.12a70.3,70.3,0,0,0-7.19,7.26c-1,1.24-2,2.45-3,3.63-4.15,4.93-8.05,9.59-10.62,15.5-.62,1.4-1.24,2.8-1.86,4.15a84.35,84.35,0,0,0-4.12,10.06c-2.15,6.79-3.71,13.82-5.2,20.61a.76.76,0,0,1,0,.16h1.32c1.46-6.73,3-13.71,5.12-20.39a82.27,82.27,0,0,1,4.05-9.9c.62-1.37,1.26-2.77,1.89-4.18,2.48-5.76,6.35-10.34,10.42-15.2,1-1.18,2-2.4,3-3.62a69.08,69.08,0,0,1,7.08-7.14c4.37-4,8.88-8.16,11.12-13.56,2.58-6.14-1-12.88-4.5-19.38-2.38-4.49-4.86-9.11-5.4-13.56a61,61,0,0,1,1.05-21.4c1.73-7.14,6-13.45,10.51-20.11l1-1.51c2.48-3.42,8.66-2.15,14.64-.91.85.16,1.67.35,2.48.49l.73.14c7.9,1.53,22.6,4.38,27.44-4.41,4.3-7.83-2.84-17.83-7.56-24.46-.43-.58-.81-1.14-1.2-1.67s-.82-1.17-1.24-1.73c-2.67-3.73-4.8-6.66-4.59-11.59.24-5.83,2.53-8.5,5.71-12.22.54-.62,1.08-1.26,1.65-1.94s.87-1.08,1.26-1.58c2.62-3.29,3.94-4.92,9.25-5.58,2.32-.27,4.55-.44,6.71-.58a102.15,102.15,0,0,0,10.25-1.1,77.68,77.68,0,0,0,7.63-1.77v-1.32c-2.49.7-5.08,1.34-7.82,1.83A100.13,100.13,0,0,1,435.13,234.27Z"/><path class="cls-2" d="M319.31,445.45c8-4.18,11.61-12.05,14.05-19.19.64-1.81,1.23-3.68,1.8-5.47.65-2,1.32-4.1,2-6.14a99.83,99.83,0,0,1,6.73-15.85l.43-.75a20,20,0,0,1,3.81-5.37c2.16-2,3.18-4.1,4.48-6.77l.42-.83A47.9,47.9,0,0,1,356.1,380a43.31,43.31,0,0,0,3.48-6c1.81-4.07.64-8-.51-11.89-.38-1.32-.78-2.69-1.05-4-1-5.09-.25-9.62.56-14.44.35-2.11.71-4.31.92-6.56s.27-4.83.32-7.2a76.08,76.08,0,0,1,.52-8.89,33.53,33.53,0,0,1,3.36-9.68,37.5,37.5,0,0,0,2.56-6.35c.87-3.18,1.06-8.95-1.88-11.82-2.05-2-5-2.06-7.53-2.12-.77,0-1.51-.06-2.21-.13a23.6,23.6,0,0,1-5.46-1.36,29.68,29.68,0,0,0-5.05-1.34c-5.77-.86-12.56.11-16.11.75-5.24,1-12.84,3.54-16.56,6.39-3.37,2.59-6,7.58-8.41,12-1,1.91-2,3.69-2.91,5.19l-.83,1.28c-4.47,7-8.69,13.53-7.5,27.51.25,3,1.21,13.22,3,19.17a30.42,30.42,0,0,0,4.85,9c2.71,3.88,5.05,7.23,4.22,11.95a9.69,9.69,0,0,1-3.7,6.35,7.71,7.71,0,0,1-6,1.14,27.1,27.1,0,0,1-4.64-1.46,27,27,0,0,0-4.66-1.51,23.87,23.87,0,0,0-11.75.24c-11.35,3.07-14,14-16.8,25.58-.25,1-.51,2.07-.75,3.1-3,11.78-7.49,19.09-16.15,26.12-.71.57-1.41,1.1-2.1,1.57-.44.35-.89.65-1.27,1a55.94,55.94,0,0,0-9,8h1.69a61.59,61.59,0,0,1,8.09-7c.38-.31.81-.62,1.24-.93.7-.51,1.41-1,2.16-1.62,8.9-7.22,13.55-14.73,16.57-26.81.25-1,.5-2.07.76-3.1,2.72-11.21,5.28-21.78,15.9-24.64a22.35,22.35,0,0,1,11.16-.22,25.78,25.78,0,0,1,4.45,1.43,26.9,26.9,0,0,0,4.88,1.54,9,9,0,0,0,6.93-1.37,11,11,0,0,0,4.23-7.15c.91-5.25-1.68-9-4.45-12.91-1.81-2.59-3.71-5.28-4.66-8.57-1.73-5.85-2.7-16-3-18.95-1.14-13.53,3-19.92,7.32-26.68l.84-1.32c.95-1.52,1.94-3.32,3-5.24,2.29-4.31,4.88-9.18,8.05-11.59,3.56-2.74,10.9-5.22,16-6.14,3.45-.65,10.08-1.59,15.69-.76a29.52,29.52,0,0,1,4.84,1.3,27.71,27.71,0,0,0,5.74,1.42c.74.06,1.51.09,2.29.11,2.44.06,5,.16,6.66,1.79,2.56,2.47,2.3,7.78,1.55,10.56a34.79,34.79,0,0,1-2.48,6.14,34.26,34.26,0,0,0-3.48,10,76.61,76.61,0,0,0-.51,9c-.08,2.36-.12,4.79-.33,7.11s-.57,4.39-.92,6.5c-.78,4.71-1.61,9.57-.54,14.87.28,1.4.7,2.78,1.09,4.1,1.12,3.8,2.18,7.39.56,11A42.42,42.42,0,0,1,355,379.3a55.35,55.35,0,0,0-3.14,5.21l-.4.84c-1.24,2.55-2.23,4.56-4.2,6.39a21,21,0,0,0-4.07,5.71l-.43.73a98.7,98.7,0,0,0-6.8,16.06c-.72,2-1.39,4.13-2,6.15-.57,1.81-1.17,3.66-1.78,5.47-2.38,6.9-5.82,14.5-13.43,18.46a22.42,22.42,0,0,0-3.93,2.84c-2,1.66-4.07,3.36-6.29,3.6-4.06.43-6.81-2.83-9.45-6-.76-.92-1.47-1.78-2.22-2.54a23.45,23.45,0,0,1-5.19-6.94,37.86,37.86,0,0,1-2.22-7.17c-.29-1.36-.56-2.83-.84-4.37-1.85-9.95-4.12-22.32-15.74-21.49h-.13l-.13.05c-5.34,2.74-7.18,9.21-8.8,14.91l-.16.58c-2.79,9.8-5.35,17.86-10.5,24.8-1,1.38-2.16,2.72-3.24,4a62.11,62.11,0,0,0-3.83,4.92h1.56c1-1.36,2.08-2.72,3.24-4.11s2.21-2.64,3.27-4.07c5.32-7.09,7.89-15.26,10.72-25.21l.16-.56c1.53-5.42,3.28-11.56,8.06-14.07,10.35-.66,12.43,10.58,14.28,20.48.28,1.56.55,3,.85,4.4a39.75,39.75,0,0,0,2.28,7.4,24.84,24.84,0,0,0,5.45,7.33c.7.73,1.42,1.57,2.16,2.44,2,2.34,4.07,4.89,6.89,6h5.59a20.47,20.47,0,0,0,5-3.39A21.41,21.41,0,0,1,319.31,445.45Z"/><path class="cls-2" d="M10.75,239.52c7.66-2.51,14.93-4.88,25.45-2.75,9.14,1.86,18.65,1.92,26.11.21,12.11-2.82,12.62-12.66,13.38-27.54,0-.81.1-1.62.14-2.4a28.33,28.33,0,0,0,0-6.63c-1.07-7.57-8.26-10.17-15.14-11.72-4.93-1.11-9.94-1-14.77-1a69.19,69.19,0,0,1-10.28-.31c-3.07-.39-5.14-1.36-6.33-2.93-2-2.62-1.5-6.74-.72-11.84,2.31-14.66-1-21.77-7.14-28.46C16,138.2,8.62,135.66,0,134v1.28c8.3,1.61,15.39,4.1,20.54,9.75,5.87,6.42,9.05,13.24,6.85,27.39-.84,5.42-1.32,9.79.94,12.8,1.4,1.87,3.75,3,7.17,3.45A80.06,80.06,0,0,0,46,189c4.75-.07,9.68-.15,14.48.93,6.77,1.53,13.18,3.87,14.17,10.67a30.76,30.76,0,0,1,0,6.35c0,.79-.13,1.6-.16,2.43-.83,16-1.7,23.86-12.4,26.36-7.28,1.68-16.6,1.6-25.57-.21-10.85-2.2-18.25.21-26.1,2.78-2.73.89-5.55,1.8-8.51,2.51L0,241.25v1.31c.7-.18,1.41-.32,2.13-.51C5.15,241.35,8,240.41,10.75,239.52Z"/><path class="cls-2" d="M372.54,135a1.22,1.22,0,0,1-.24-.43,2.13,2.13,0,0,0-.7-1.06c-1.26-1-4.05-1.39-7-1.83l-2.57-.41c-9.57-1.75-18.59-6-27.33-10.18-3-1.43-6.14-2.89-9.22-4.24l-1.16-.51c-8.38-3.63-15.6-6.79-21.83-13.64-5.1-5.61-8.2-11.72-9-17.68-1.24-9.6,2.34-13.83,6.14-18.32a51.61,51.61,0,0,0,3.26-4.13c1.79-2.59,3.29-5.58,2-9.86-1.19-4-4.69-6.83-8.76-10.11l-1.78-1.46A87.23,87.23,0,0,1,286.82,34c-4.12-4.27-7.68-7.94-12.6-9.46-4.61-1.45-10-.55-14.76,2.47-5,3.14-8.49,8.05-9.18,12.8a40.07,40.07,0,0,0-.11,6.78,32.66,32.66,0,0,1-.3,8c-1.5,6.61-8.16,10.17-13.78,12.51a156.44,156.44,0,0,0-16.86,8.76c-8,4.54-15.47,8.84-22.89,10.69-8,2-15.52-.5-22.21-2.73A63.13,63.13,0,0,0,167,81.7c-7.55-1.6-12.72,1-14.13,7.2a43.82,43.82,0,0,0-.81,6c-.13,1.39-.27,2.82-.46,4.18-1.07,6.73-3.8,12.26-6.47,17.6-2.25,4.55-4.55,9.23-5.82,14.57a70.56,70.56,0,0,0-1.12,8.47,71.78,71.78,0,0,1-1.43,10.14,65,65,0,0,1-5.1,12.47c-1.26,2.6-2.59,5.31-3.77,8.23-.33.83-.65,1.67-.95,2.48-2.31,6.14-4.29,11.43-12.91,9.89-9-1.59-17-8.09-19.25-15.82-1.66-5.53-2.13-15.31-1.07-21.32,1.24-7,4.88-16.85,11-21.46a31.27,31.27,0,0,1,7.2-3.89c3.67-1.61,7.48-3.26,11-7.86,3.78-5,6.39-16.55,4.15-27.2a55.19,55.19,0,0,0-4.05-11.37,87.6,87.6,0,0,1-4-10.3,30.59,30.59,0,0,1-.62-11.16A53.08,53.08,0,0,1,120,45.87l.38-1.24c2.36-8,5.31-17.83,13.68-19.75,4.42-1,8.06,2.05,11.9,5.3,2.5,2.09,5.09,4.27,8.06,5.46,6.82,2.77,14.25.61,22.12-1.71,2.68-.8,5.5-1.62,8.35-2.26,3.17-.73,6.4-1.18,9.5-1.61a68.91,68.91,0,0,0,13-2.64c6.18-2.14,10.16-6.23,13.73-14.07,3-6.53,5.08-10.14,8-13.35h-1.69c-2.64,3.12-4.72,6.76-7.47,12.81-3.42,7.51-7.19,11.39-13,13.39a68.4,68.4,0,0,1-12.77,2.61c-3.15.43-6.37.89-9.62,1.64-2.91.65-5.72,1.47-8.45,2.27-7.62,2.24-14.85,4.37-21.26,1.75-2.78-1.13-5.29-3.25-7.72-5.28-3.92-3.29-8-6.69-13-5.53-9.08,2.1-12.15,12.35-14.61,20.6l-.37,1.24A48.33,48.33,0,0,0,117,52.4a31.59,31.59,0,0,0,.65,11.72,85.16,85.16,0,0,0,4.06,10.43,57.51,57.51,0,0,1,4,11.12c2.11,10.18-.4,21.51-3.93,26.17-3.28,4.33-6.77,5.85-10.46,7.47a33.92,33.92,0,0,0-7.46,4c-6.37,4.84-10.14,15-11.44,22.26A56.87,56.87,0,0,0,93.5,167.5c2.43,8.17,10.76,15.06,20.27,16.74,9.66,1.69,12-4.61,14.32-10.7.3-.81.62-1.65.94-2.46,1.16-2.88,2.48-5.57,3.75-8.14a68.94,68.94,0,0,0,5.17-12.7,74.83,74.83,0,0,0,1.46-10.35,72.62,72.62,0,0,1,1.1-8.32c1.22-5.2,3.41-9.6,5.72-14.27,2.7-5.46,5.48-11.07,6.56-18,.23-1.4.35-2.85.48-4.25a46.51,46.51,0,0,1,.8-5.88c1.7-7.39,8.65-7.08,12.64-6.23a62.2,62.2,0,0,1,7,2.06c6.86,2.31,14.61,4.88,22.93,2.79,7.57-1.93,15.51-6.46,23.21-10.85a154.7,154.7,0,0,1,16.71-8.68c5.91-2.46,12.91-6.21,14.51-13.41a32.9,32.9,0,0,0,.37-8.35,35.25,35.25,0,0,1,.08-6.54c.63-4.4,3.93-9,8.58-11.9,4.47-2.82,9.48-3.68,13.74-2.34,4.58,1.41,8,5,12,9.12a95,95,0,0,0,7.67,7.29c.6.51,1.21,1,1.81,1.46,4,3.26,7.25,5.82,8.33,9.49,1.16,3.94-.33,6.61-1.84,8.76-1,1.46-2.14,2.77-3.2,4-3.8,4.47-7.73,9.11-6.44,19.29.81,6.23,4,12.56,9.3,18.39,6.41,7,13.77,10.24,22.28,13.93l1.14.51c3.05,1.33,6.17,2.81,9.19,4.23,8.81,4.18,17.92,8.49,27.65,10.27.81.15,1.68.28,2.62.43,2.54.38,5.42.82,6.44,1.6.14.08.19.24.28.49a3.46,3.46,0,0,0,.3.62,11.3,11.3,0,0,1-5.08,7.84c-1.74,1.13-3.23,1.05-5.12.94-.54,0-1.08-.06-1.67-.08-7.12-.06-14.82,7.06-18,12.13a66.25,66.25,0,0,0-4.38,9c-.73,1.7-1.46,3.45-2.25,5.09-4.64,9.55-9.61,15.67-14.36,17.67-1.29.55-2.51,1.23-3.72,1.88a27.38,27.38,0,0,1-4.75,2.26,59.53,59.53,0,0,1-6.76,1.67,60.54,60.54,0,0,0-6.77,1.63c-12.69,4.12-19.06,14.58-24.72,29l-.26.67c-.55,1.43-1.14,2.92-1.84,4.38a43.32,43.32,0,0,1-6.11,8.75c-3,3.59-5.78,7-6.66,11.32a47.59,47.59,0,0,0-.65,8.65c0,1.76-.05,3.57-.19,5.39-.43,4.92-.91,10.5,2,15.58,2,3.48,4.07,6.71,6.23,10.12l1,1.67a36.84,36.84,0,0,1,2.36,4.53,26.19,26.19,0,0,0,4.18,7l.17.21h.27a5.72,5.72,0,0,0,.61,0,5.18,5.18,0,0,0,1.37-.15l.14,0,.13-.11a35.18,35.18,0,0,0,4.8-6.74,34.64,34.64,0,0,1,4.94-6.8A96.6,96.6,0,0,1,299.6,278a83.56,83.56,0,0,1,30.7-13.26c9.89-2,21.36-3.93,32.35-1.51h.06l.43.1h.13c2.54.41,3.69-.42,3.69-.42s1.11-1.71-.54-1.16a7.14,7.14,0,0,1-3.28.26h0c-11.31-2.55-23-.57-33.09,1.49a85.18,85.18,0,0,0-31.17,13.44,99.49,99.49,0,0,0-13.39,11.31,36.52,36.52,0,0,0-5.13,7.08,34.77,34.77,0,0,1-4.52,6.37,8.41,8.41,0,0,1-1.13,0,26.46,26.46,0,0,1-3.8-6.47,35.54,35.54,0,0,0-2.41-4.66l-1.07-1.68c-2.15-3.42-4.2-6.61-6.18-10.1-2.74-4.7-2.26-10.08-1.86-14.8.16-1.87.19-3.72.2-5.5a45.48,45.48,0,0,1,.62-8.41c.81-4,3.53-7.28,6.39-10.76a44.36,44.36,0,0,0,6.28-9c.72-1.51,1.32-3,1.89-4.5l.24-.63c5.54-14.11,11.72-24.31,23.95-28.27a52.07,52.07,0,0,1,6.63-1.61,66.9,66.9,0,0,0,6.91-1.7,29.88,29.88,0,0,0,5-2.37,35,35,0,0,1,3.57-1.79c5.11-2.18,10.16-8.35,15-18.32.81-1.67,1.56-3.43,2.27-5.15a64.75,64.75,0,0,1,4.3-8.81c3-4.83,10.3-11.6,16.91-11.52.56,0,1.1,0,1.63.06,1.95.11,3.79.22,5.86-1.14a12.65,12.65,0,0,0,5.71-9.05v-.3Z"/><path class="cls-2" d="M453.09,266.18c-4-1.87-6.07-3.51-6.09-5.66s2.07-4.83,6.09-6.85v-.49c-4.34,2.14-6.55,4.94-6.52,7.36s2.2,4.13,6.52,6.1Z"/></pattern></defs><title>topographic-header-v1_6</title><g id="Layer_2" data-name="Layer 2"><g id="Professional_Experience" data-name="Professional Experience"><polygon class="cls-3" points="0.47 239.71 956.75 360 1919.53 239.71 1919.06 0 0 0 0.47 239.71"/><polygon class="cls-4" points="0.47 239.71 956.75 360 1919.53 239.71 1920 1 0 0 0.47 239.71"/></g></g></svg>