<svg xmlns="http://www.w3.org/2000/svg" viewBox="0 0 500 498.28">
  <defs>
    <style>
      .cls-1 {
        fill: #b9b9b9;
      }
    </style>
  </defs>
  <title>topo-lines_3</title>
  <g id="Layer_2" data-name="Layer 2">
    <g id="Layer_1-2" data-name="Layer 1">
      <g>
        <path class="cls-1" d="M9.65,87.44c4.6,2.09,9.37,4.23,17.18,2.23,7.45-2,23.66-11.28,25.56-18,.8-2.88.08-5.44-.55-7.72a22,22,0,0,1-.6-2.43c-.63-3.75-1-6.56-1.36-9.84-.14-1.3-.32-2.66-.49-4.16-.92-7.12-2.32-13.8-3.79-20.89-.44-2.19-.92-4.46-1.37-6.74-.56-2.84-1.39-5.61-2.18-8.31-.73-2.48-1.49-5-2-7.6a33.08,33.08,0,0,1-.62-4H38a39.8,39.8,0,0,0,.65,4.28C39.19,6.91,40,9.49,40.7,12s1.58,5.38,2.14,8.17c.48,2.28.93,4.53,1.41,6.76C45.7,34,47.07,40.65,48,47.72c.19,1.49.35,2.84.51,4.16.37,3.14.72,6.12,1.37,9.89.14.84.39,1.7.63,2.6.6,2.17,1.23,4.44.54,6.91-1.63,5.81-16.73,15-24.56,17-7.35,1.89-11.86-.14-16.24-2.12C7.16,84.79,4,83.35,0,83.37v1.4C3.68,84.77,6.6,86.07,9.65,87.44Z"/>
        <path class="cls-1" d="M19.09,144.26c3.61.78,7.35,1.58,10.52,2.44,6.25,1.7,9.48,4.67,10.42,9.56.69,3.55.53,7.86.34,12.43a84.69,84.69,0,0,0,.14,13.22c1.56,13.93,10.72,15.35,19.56,16.7a105.32,105.32,0,0,0,16.16,1.62c9.12,0,16-2.49,17.89-11,1.49-6.93.46-15.19-.63-24-.53-4.18-1.07-8.5-1.33-12.78a84.37,84.37,0,0,0-1-9.43c-1.28-7.16-4.56-11.95-7.72-16.6s-6-8.84-7.24-15.21c-1.58-8.3-1.65-15-.25-19.76,1.54-5.21,6.37-4.87,12.47-4.49a51.76,51.76,0,0,0,7.79.11l.3,0a36.13,36.13,0,0,0,6.37-.93c10.33-2.75,9.42-11.17,7.46-20.3-.2-.82-.39-1.66-.6-2.49-.74-2.93-1.46-5.75-.58-8.35a22.38,22.38,0,0,1,3.84-6.54,25.71,25.71,0,0,0,4.58-8c.16-.54.35-1.05.51-1.59.44-1.34.84-2.62,1.35-4a50,50,0,0,1,4.25-8.22,50.49,50.49,0,0,0,4.17-8.14,7.63,7.63,0,0,0,.23-3.71C126.25,8.16,109.9,3.75,109.21,3.56a47.54,47.54,0,0,0-6.42-1.12,39.23,39.23,0,0,1-5.35-.91C95.9,1.14,94.25.61,92.54,0h-4a74.1,74.1,0,0,0,8.51,2.9,49,49,0,0,0,5.51.94,47.92,47.92,0,0,1,6.24,1.07c6.53,1.74,16.7,5.93,18,10.32a6,6,0,0,1-.21,2.86,48,48,0,0,1-4,7.89,50.56,50.56,0,0,0-4.35,8.44c-.51,1.41-.92,2.69-1.37,4-.16.51-.34,1.06-.53,1.6a25,25,0,0,1-4.35,7.56,23.15,23.15,0,0,0-4.05,6.93c-1,3-.25,6,.56,9.14.17.81.38,1.63.58,2.44,1.89,8.76,2.7,16.21-6.48,18.65a38.45,38.45,0,0,1-6.1.9h-.32a53,53,0,0,1-7.56-.12c-6.19-.4-12-.77-13.89,5.47-1.5,5.06-1.44,11.92.19,20.44,1.3,6.65,4.44,11.26,7.47,15.74s6.28,9.21,7.51,16.07a88.79,88.79,0,0,1,.93,9.26c.25,4.32.79,8.67,1.32,12.86,1.07,8.65,2.1,16.79.65,23.49-2.57,11.93-16.81,10.76-32.44,8.34-10.56-1.65-17-3.51-18.41-15.48a88.6,88.6,0,0,1-.12-13c.19-4.65.37-9-.35-12.76-1.07-5.49-4.6-8.75-11.45-10.65-3.18-.84-6.95-1.66-10.58-2.45-1.93-.41-3.93-.84-5.81-1.28C10.19,140.83,5.65,140,0,139.19v1.43q8.3,1.2,13.26,2.36C15.14,143.41,17.16,143.83,19.09,144.26Z"/>
        <path class="cls-1" d="M9.14,56.51c1,0,2.12.05,3.37.12,1.53.07,3.25.18,5,.18,3.73,0,9.16-.35,13-3.28,4.63-3.55,6.28-8.86,5.4-17.25-.65-6-2.47-11.68-4.4-17.77-1.88-5.93-3.81-12-4.6-18.51H26c.81,6.58,2.76,12.77,4.67,18.79S34.35,30.54,35,36.39c.85,8-.71,13.08-5,16.4-3.58,2.75-8.79,3.07-12.4,3.07-1.76,0-3.48-.09-5-.16-1.24-.07-2.42-.12-3.4-.12a11.4,11.4,0,0,0-1.95.12A21.83,21.83,0,0,0,0,58.35v1.07a21.64,21.64,0,0,1,7.35-2.81A11.93,11.93,0,0,1,9.14,56.51Z"/>
        <path class="cls-1" d="M171.6,12.77c.1.77.21,1.49.26,2.16,1.86,8.46,6.75,12.74,14.6,12.74h0a24.69,24.69,0,0,0,4-.34c7.65-1.22,23.74-5.77,30.49-9.84C228.16,13.14,231.75,5.77,233.56,0h-.49c-1.77,5.67-5.35,12.88-12.37,17.09-6.72,4.05-22.7,8.58-30.33,9.77a24.12,24.12,0,0,1-3.91.35h0c-7.58,0-12.35-4.17-14.14-12.35-.06-.63-.14-1.37-.27-2.14a26.19,26.19,0,0,1-.22-7.67,18.71,18.71,0,0,1,1.71-5H173a19.18,19.18,0,0,0-1.68,5A27.36,27.36,0,0,0,171.6,12.77Z"/>
        <path class="cls-1" d="M3.25,23.65c3.42,0,8-.65,10.54-3.74C16.75,16.32,18,8.07,17.6,0h-.42c.36,7.93-.85,16.07-3.76,19.61-1.88,2.3-5.49,3.57-10.17,3.57h0A26.75,26.75,0,0,1,0,23v.46a25.33,25.33,0,0,0,3.25.21Z"/>
        <path class="cls-1" d="M2.77,5.18A6.31,6.31,0,0,0,5.12,0H4.65A5.87,5.87,0,0,1,2.49,4.81,4.11,4.11,0,0,1,0,5.61H0v.45s0,0,0,0A4.71,4.71,0,0,0,2.77,5.18Z"/>
        <path class="cls-1" d="M65.12,44.72a6.38,6.38,0,0,0,4.09,1.74h0a5.56,5.56,0,0,0,4.09-2c3-3,4.59-9,4.47-13-.28-1.26-.54-2.7-.8-4.23-1.06-6.05-2.37-13.57-7.3-17-3.18-2.23-6.13-2-8.34.58-2.66,3.1-4,9.33-3.1,14.87.38,1.56.68,3.25,1,4.88C60.11,35.84,61.05,41.3,65.12,44.72ZM61.68,11.14a5,5,0,0,1,3.85-2,6.84,6.84,0,0,1,3.86,1.44c4.77,3.35,6.07,10.75,7.12,16.71.26,1.55.51,3,.79,4.21.14,3.88-1.46,9.67-4.34,12.62A5.21,5.21,0,0,1,69.21,46h0a5.93,5.93,0,0,1-3.79-1.61c-4-3.32-4.88-8.68-5.77-13.88-.28-1.63-.58-3.31-1-4.89C57.86,20.23,59.12,14.14,61.68,11.14Z"/>
        <path class="cls-1" d="M234.47,46.93c-4.22-3.49-9.5-6.74-19.59-6.74-1.63,0-3.41.11-5.25.27C200,41.33,186.7,47,177.81,52.19c-2.18,1.27-8.76,5.13-6.39,11a46.85,46.85,0,0,0,20.21,19.68,41.36,41.36,0,0,0,14.3,4.35c.67.05,1.35.09,2,.09h0c8.07,0,18-3.88,25.82-10.11a20.1,20.1,0,0,0,8-15.38A18.94,18.94,0,0,0,234.47,46.93Zm-1,29.91c-7.77,6.16-17.54,10-25.52,10-.69,0-1.36,0-2-.08a40.87,40.87,0,0,1-14.15-4.3,46.49,46.49,0,0,1-20-19.47c-2.23-5.44,4.11-9.16,6.2-10.37,8.85-5.18,22.07-10.79,31.64-11.67,1.83-.17,3.58-.26,5.2-.26,10,0,15.16,3.17,19.3,6.65,4.68,3.86,7.21,9,7.14,14.47A19.65,19.65,0,0,1,233.49,76.84Z"/>
        <path class="cls-1" d="M221.65,51.39c-2.51-1.88-6.23-2.92-10.46-2.92-8.7,0-18.93,4.44-21,11.86a9.69,9.69,0,0,0-.14,3.44,13.08,13.08,0,0,1,.08,2.07v.06l0,0c2.88,8.6,11.25,11.66,18.11,11.66h0c8.57,0,18.4-4.75,19.65-15.17v0A16.65,16.65,0,0,0,221.65,51.39Zm-13.4,25.77h0c-6.69,0-14.83-3-17.67-11.33a18,18,0,0,0-.07-2.09,9.18,9.18,0,0,1,.11-3.28C192.65,53.26,202.67,49,211.19,49c4.11,0,7.74,1,10.18,2.81a16.1,16.1,0,0,1,6,10.66C226.19,72.54,216.63,77.16,208.25,77.16Z"/>
        <path class="cls-1" d="M312.84,59.81a11.43,11.43,0,0,0-6.59-1.91,14.05,14.05,0,0,0-8,2.38,73.15,73.15,0,0,0-6.41,5.84,69.68,69.68,0,0,1-5.75,5.37c-7.18,5.74-15.63,10.63-26.62,15.44a91.71,91.71,0,0,0-13.29,7.19c-2.44,1.58-4.71,3.28-6.88,4.92s-4.12,3.1-6.21,4.45A78.73,78.73,0,0,1,221,109.56a57.32,57.32,0,0,1-11,3.34,26,26,0,0,1-3.23.22,24.54,24.54,0,0,1-8.14-1.56,30.61,30.61,0,0,0-5.4-1.38,13.05,13.05,0,0,0-1.84-.13c-7.69,0-10.78,7.35-12.64,11.74l-.29.7c-4.14,9.81-5.88,20.46-5.28,32.55.4,8.42,0,12.64-3.6,17A64.34,64.34,0,0,1,164,177.9c-4.3,4.07-8,7.54-8.6,13.72-1.19,6.8,1.25,14.82,6.39,20.92,4.86,5.8,11.47,9.13,18.17,9.13h0a23,23,0,0,0,7.51-1.34c7.58-2.73,19.72-15.91,24-24.35l1.66-3.4c3.39-6.88,6.3-12.84,11.85-17.61a47.21,47.21,0,0,1,13.68-8.62c4.6-1.89,10-2.61,15.72-3.37,7.65-1,15.52-2,21.38-6.16,9.29-7.68,20.74-17.84,26.86-28.15a137.51,137.51,0,0,0,8.55-18.55c1.82-4.91.82-12.56-.18-20-.26-1.91-.51-3.9-.72-5.76a25.5,25.5,0,0,0,.44-2.73,27.17,27.17,0,0,1,1.6-6.63,18.23,18.23,0,0,1,.95-2.07C315.09,69.14,318,63.39,312.84,59.81Zm-.08,12.94c-.41.81-.74,1.51-1,2.09a28,28,0,0,0-1.58,6.77c-.15,1-.26,1.85-.45,2.74l0,0v0c.21,1.88.47,3.88.74,5.83,1,7.31,2,14.89.17,19.7a133.88,133.88,0,0,1-8.47,18.47c-6.12,10.27-17.53,20.39-26.76,28-5.73,4-13.58,5.07-21.17,6.07-5.76.75-11.18,1.47-15.84,3.4a48,48,0,0,0-13.81,8.67c-5.61,4.86-8.54,10.86-12,17.79L211,195.77c-4.23,8.37-16.23,21.42-23.72,24.11a21.69,21.69,0,0,1-7.34,1.3h0c-6.56,0-13.07-3.25-17.82-8.93-5.05-6-7.46-13.86-6.28-20.56.59-6,4.23-9.48,8.45-13.46a61.57,61.57,0,0,0,5.7-5.88c3.69-4.49,4.11-8.79,3.69-17.33-.6-12,1.1-22.61,5.24-32.34l.32-.71c1.79-4.29,4.79-11.46,12.18-11.46a11.14,11.14,0,0,1,1.79.14,28.19,28.19,0,0,1,5.29,1.35,24.7,24.7,0,0,0,8.3,1.58,23.91,23.91,0,0,0,3.3-.23A56.33,56.33,0,0,0,221.14,110a80.88,80.88,0,0,0,12.19-6.1c2.11-1.35,4.11-2.86,6.25-4.46s4.44-3.31,6.86-4.89a89.52,89.52,0,0,1,13.23-7.18c11-4.82,19.51-9.74,26.72-15.51a75.5,75.5,0,0,0,5.79-5.37,66.58,66.58,0,0,1,6.35-5.82,13.81,13.81,0,0,1,7.72-2.28,11,11,0,0,1,6.33,1.82C317.35,63.54,314.58,69.09,312.76,72.75Z"/>
        <path class="cls-1" d="M118.86,116.65h0a7.7,7.7,0,0,0,6-2.93c2.08-2.63,2.62-7,1.37-10.82-.94-3-2.82-5-5.15-5.74a4.82,4.82,0,0,0-5.28,1.51c-2.76,3.17-3.32,9.8-2.81,13.58A6.06,6.06,0,0,0,118.86,116.65ZM116.11,99a4.26,4.26,0,0,1,3.29-1.59,5.46,5.46,0,0,1,1.51.22c2.18.64,3.93,2.6,4.84,5.43,1.2,3.71.69,7.87-1.29,10.4a7.35,7.35,0,0,1-5.6,2.75h0a5.61,5.61,0,0,1-5.46-4.07C112.91,108.49,113.44,102,116.11,99Z"/>
        <path class="cls-1" d="M275.07,98a16.31,16.31,0,0,0-2.68-.23c-6.18,0-14.13,3.14-19.27,7.61-1.15,1-2.14,2-3.12,2.92s-2.25,2.17-3.67,3.38c-4.24,3.62-9.1,6-13.77,8.42-5.79,2.92-11.26,5.69-14.77,10.27a13.51,13.51,0,0,0-2.91,9.36v.07c.16.44.32.88.48,1.34,2.3,6.58,4.7,13.42,14.7,13.42.21,0,.42,0,.65,0a56.69,56.69,0,0,0,7.46-1,97.64,97.64,0,0,1,9.87-1.33c12.92-.88,18.85-2.07,25.49-10.46a35,35,0,0,0,6.69-14.4,60.84,60.84,0,0,0,.45-9.81c0-2,0-3.82.06-5.56l0-1C281.16,104.07,281.39,99.07,275.07,98Zm5.26,13-.07,1c-.08,1.76-.07,3.62-.07,5.58a55.78,55.78,0,0,1-.42,9.74,34.62,34.62,0,0,1-6.61,14.19c-6.53,8.23-12.37,9.41-25.14,10.28a88.38,88.38,0,0,0-9.93,1.35,55.41,55.41,0,0,1-7.39,1l-.63,0c-9.67,0-12-6.67-14.26-13.13-.14-.42-.32-.86-.46-1.28a13.09,13.09,0,0,1,2.81-9c3.44-4.5,8.88-7.27,14.61-10.15,4.7-2.38,9.58-4.84,13.86-8.49,1.44-1.21,2.6-2.31,3.7-3.4s1.95-1.9,3.09-2.88c5.07-4.42,12.88-7.49,19-7.49a13.32,13.32,0,0,1,2.59.21C280.91,99.47,280.67,104,280.33,111Z"/>
        <path class="cls-1" d="M23.16,131.6c9.44.93,15.65,1.45,25.49,1.94a6.25,6.25,0,0,0,2.42.44,19,19,0,0,0,4-.59c.58-.14,1.13-.27,1.67-.35l.09,0a6.57,6.57,0,0,0,.91-.84c.23-.23.44-.44.67-.63l.08-.06v-.08c.9-5.35,2-18.48-7-24.83l-.09,0a37.67,37.67,0,0,0-8.53-.93c-5.8,0-11.66,1.15-17.33,2.26C20,109,14.28,110.09,8.6,110.14A55.66,55.66,0,0,1,.88,109a6.24,6.24,0,0,1-.88-.19v.49l.77.16a57.18,57.18,0,0,0,7.81,1.16c5.74,0,11.49-1.2,17-2.28s11.45-2.27,17.22-2.27a36.45,36.45,0,0,1,8.39.92c8.7,6.19,7.68,18.94,6.81,24.26-.23.19-.42.4-.63.61a9.06,9.06,0,0,1-.81.74c-.51.11-1,.21-1.61.35a18.66,18.66,0,0,1-3.9.58,5.94,5.94,0,0,1-2.28-.42l-.07,0c-9.86-.47-16.09-1-25.53-1.93-4.89-.49-9.59-2-14.14-3.49a87.41,87.41,0,0,0-9-2.56v.49a80.28,80.28,0,0,1,8.91,2.53A66.72,66.72,0,0,0,23.16,131.6Z"/>
        <path class="cls-1" d="M55,177.7c1.71,6.39,10,10.35,16.64,10.35h0c4,0,7.41-1.37,9.51-3.84,2.27-2.68,3-6.49,2.25-11.35-1.09-6.7-7.07-16.88-12.28-20.93a6.06,6.06,0,0,0-3.55-1.6,3.89,3.89,0,0,0-1.94.53c-2.39,1.23-8.09,13.74-9.67,18.9a22.52,22.52,0,0,0-1,7.86Zm1.43-7.8c1.57-5.15,7.2-17.48,9.41-18.64a3.85,3.85,0,0,1,1.73-.47,5.45,5.45,0,0,1,3.25,1.51c5.16,4,11,14,12.12,20.63.76,4.7,0,8.42-2.16,11-2,2.37-5.24,3.67-9.14,3.67h0c-6.49,0-14.5-3.81-16.19-10A21.78,21.78,0,0,1,56.4,169.9Z"/>
        <path class="cls-1" d="M133.26,151.93a7.77,7.77,0,0,0-4.3-1.23,7,7,0,0,0-1.56.16c-8.63,1.58-15.93,12.95-15.86,21.16.34,7,5.32,12.26,11.58,12.26h0a10.32,10.32,0,0,0,3-.44c6.44-2,10.47-9.63,11.6-16.37C138.9,160.56,137.21,154.76,133.26,151.93Zm4,15.47c-1.08,6.62-5,14.11-11.26,16a9.82,9.82,0,0,1-2.88.44h0c-6,0-10.79-5.09-11.12-11.81-.07-8,7-19.16,15.49-20.72a10.41,10.41,0,0,1,1.47-.12,7.32,7.32,0,0,1,4,1.12C136.81,155,138.39,160.69,137.26,167.4Z"/>
        <path class="cls-1" d="M8.44,195.47c3.44-10.54,1.89-19.12-4.7-26.22A15.07,15.07,0,0,0,0,166.56v.53a13.28,13.28,0,0,1,3.39,2.49c6.47,7,8,15.37,4.61,25.74-1.37,4.17-3.93,8-6.44,11.75-.53.81-1,1.58-1.56,2.39v.86c.63-1,1.3-2,2-3C4.46,203.6,7.07,199.7,8.44,195.47Z"/>
        <path class="cls-1" d="M333.7,242.19a8.81,8.81,0,0,0-6.24,2.58c-1.93,1.81-3.16,4.62-3.78,8.56-.94,3.76-.84,8.92,1.53,11.95a6.28,6.28,0,0,0,5.19,2.46h0l.37,0c3-.12,6.37-2,9.07-5s4.25-6.82,4-10C343.39,245.88,338.26,242.19,333.7,242.19Zm5.79,20.2c-2.61,2.93-5.88,4.73-8.74,4.87l-.35,0h0a5.85,5.85,0,0,1-4.82-2.3c-2.26-2.89-2.35-7.89-1.42-11.56.6-3.84,1.79-6.56,3.63-8.31a8.44,8.44,0,0,1,5.91-2.44c4.35,0,9.23,3.52,9.7,10.1C343.63,255.81,342.16,259.4,339.49,262.39Z"/>
        <path class="cls-1" d="M216.19,261.6c1.07,1.49,2.2,3,3.2,4.66.7,1.16,1.4,2.64,2.17,4.18,2.44,5,5.2,10.67,9.7,10.67h0c2,0,4-1.07,6.27-3.28,4.84-4.72,8.86-14.18,7.14-20.72a8.89,8.89,0,0,0-6.72-6.57,19.72,19.72,0,0,0-5-.52l-2.11,0c-.68,0-1.38,0-2.07,0-1.07,0-1.93-.05-2.72-.12a24.55,24.55,0,0,1-5.15-1.36,19.1,19.1,0,0,0-6.16-1.35,8.21,8.21,0,0,0-2.21.27l-.09,0a4.59,4.59,0,0,0-1.77,4v0C211.68,255.26,213.88,258.33,216.19,261.6ZM212.69,248a8.59,8.59,0,0,1,2.05-.23,18.9,18.9,0,0,1,6,1.33,25.68,25.68,0,0,0,5.26,1.35,20.59,20.59,0,0,0,2.77.14l2.11,0c.68,0,1.38,0,2.07,0a18.92,18.92,0,0,1,4.86.51,8.34,8.34,0,0,1,6.4,6.23c1.7,6.39-2.26,15.63-7,20.26-2.14,2.09-4.14,3.16-6,3.16h0c-4.21,0-6.91-5.54-9.29-10.42-.76-1.56-1.48-3-2.2-4.19-1-1.67-2.12-3.21-3.19-4.71-2.3-3.21-4.48-6.24-5.44-9.86A4,4,0,0,1,212.69,248Z"/>
        <path class="cls-1" d="M69.65,302.51l.47.18a45.54,45.54,0,0,0,15.07,3.08c6.21,0,10-2.23,10.83-6.45a9.34,9.34,0,0,0-1.67-8.14C91.28,287.4,85.07,286,80.28,286h-.86c-4.19.14-12,.35-16.21,3.58a7.1,7.1,0,0,0-2.65,3.79C59.21,298.37,66,301.07,69.65,302.51Zm-8.63-9A6.63,6.63,0,0,1,63.49,290c4.07-3.12,11.81-3.35,15.93-3.47h.12c.25,0,.5,0,.74,0,4.7,0,10.74,1.3,13.7,5a8.86,8.86,0,0,1,1.58,7.76c-.84,4-4.33,6.09-10.37,6.09a45.32,45.32,0,0,1-14.91-3.06l-.46-.19C66.3,300.67,59.77,298.09,61,293.53Z"/>
        <path class="cls-1" d="M361.42,21.23a83.24,83.24,0,0,0-4.58,13.42c-.87,4-3.54,7.84-6.59,9.51a7.85,7.85,0,0,1-6.7.49c-9.5-3.53-18.36-12.49-21.71-16.19-.56-.6-1.09-1.21-1.63-1.83-3.7-4.12-7.51-8.37-12.77-11.21-4.54-2.54-10.95-2.73-21.9-2.21l-.59,0c-5.69.28-12.14.59-14.28-2.2-1-1.3-1.06-3.21-.23-5.84A19.49,19.49,0,0,1,273.26,0h-1.72a19.49,19.49,0,0,0-2.43,4.79c-1,3.11-.85,5.42.45,7.1,2.6,3.37,9.14,3.06,15.46,2.74l.59,0c10.69-.5,16.9-.35,21.16,2,5.05,2.74,8.79,6.89,12.37,10.91l1.67,1.85c3.42,3.77,12.47,12.91,22.26,16.54a9.37,9.37,0,0,0,7.86-.56c3.44-1.9,6.3-6,7.3-10.44a83.68,83.68,0,0,1,4.49-13.19,87.66,87.66,0,0,0,4.51-13c.66-2.84,1.3-5.75,1.91-8.56a.3.3,0,0,0,.05-.16h-1.44c-.61,2.76-1.22,5.61-1.89,8.4A89.24,89.24,0,0,1,361.42,21.23Z"/>
        <path class="cls-1" d="M340.62.56A7.66,7.66,0,0,0,342.77,0h-6.24A8.45,8.45,0,0,0,340.62.56Z"/>
        <path class="cls-1" d="M458.58,16.84a46.41,46.41,0,0,0-5,12.05c-1.4,6,1,12.2,3.37,18.2a56.54,56.54,0,0,1,2.91,8.77c1.49,7.11.37,12.81-.77,18.86-.14.63-.27,1.26-.39,1.91-.84,4.49-.14,8.51,2,11.63s5.66,5.09,10.19,5.83a13.38,13.38,0,0,0,2.53.23c4.61,0,8.28-2.14,12.16-4.43,3.47-2,7.08-4.13,11.71-4.91a17.55,17.55,0,0,1,2.67-.21v-1.4a17.39,17.39,0,0,0-2.91.24c-4.88.79-8.6,3-12.19,5.08s-7.21,4.22-11.44,4.22a15.44,15.44,0,0,1-2.32-.19c-4.12-.7-7.33-2.53-9.25-5.26S459.3,81,460.09,76.9c.1-.64.24-1.3.37-1.93,1.19-6.18,2.33-12,.79-19.39a61.44,61.44,0,0,0-3-9c-2.28-5.79-4.6-11.75-3.32-17.35a46,46,0,0,1,4.88-11.7c2.77-5.12,5.38-10,4.89-17.51h-1.4C463.77,7.18,461.25,11.88,458.58,16.84Z"/>
        <path class="cls-1" d="M390.81,4.56c1.58,2,3.19,4.16,4.94,6.13,4.76,5.36,10.69,8.47,16.43,11.47a59.16,59.16,0,0,1,10.1,6.1C428,32.91,430.9,37.47,429,47c-1.37,6.84-3.74,16.1-6,21.37-1.78,4-4.58,7.1-7.3,10.06-4.9,5.32-9.53,10.37-7.46,20.27a91,91,0,0,0,4.62,13.91c1.17,3,2.38,6,3.35,9.09a110.77,110.77,0,0,1,2.73,11c.16.83.34,1.65.53,2.46,1.12,5.24,4.65,7.82,10.75,7.82a39.45,39.45,0,0,0,7.16-.79c3.95-.7,7.44-1.66,10.81-2.59a74,74,0,0,1,11.59-2.55,58.9,58.9,0,0,1,5.9-.31,128.84,128.84,0,0,1,17.23,1.58c2.12.3,4.33.56,6.65.84,3.82.47,7.33.93,10.47,1.39v-1.43c-3.1-.43-6.52-.89-10.32-1.33-2.29-.28-4.5-.58-6.63-.86a128.29,128.29,0,0,0-17.4-1.58,51.52,51.52,0,0,0-6,.32,72.84,72.84,0,0,0-11.81,2.58c-3.35.91-6.81,1.87-10.67,2.58a39.46,39.46,0,0,1-6.93.73c-5.42,0-8.4-2.12-9.38-6.7-.2-.79-.35-1.61-.53-2.45a109.37,109.37,0,0,0-2.77-11.16c-1-3.09-2.19-6.18-3.37-9.18a85.25,85.25,0,0,1-4.56-13.67c-1.91-9.21,2.28-13.79,7.14-19,2.79-3,5.67-6.19,7.53-10.45,2.33-5.37,4.75-14.74,6.12-21.65,2-10.21-1.27-15.27-7.19-20.13a62.11,62.11,0,0,0-10.35-6.28c-5.64-2.95-11.44-6-16-11.16-1.72-1.92-3.33-4-4.9-6C391,2.47,390,1.23,389,0h-1.83l.18.23C388.54,1.65,389.7,3.12,390.81,4.56Z"/>
        <path class="cls-1" d="M473.61,6.49a42.61,42.61,0,0,1-.33,4.79,33.51,33.51,0,0,1-3.19,8.86c-2.21,4.69-4.51,9.49-4.19,18.62v.12c.7,2.17,1.3,4.88,1.93,7.74,2,8.92,4.2,19,11,21.05a10.13,10.13,0,0,0,2.89.36,20.13,20.13,0,0,0,3-.24c4.24-.68,7.42-3,10.8-5.39,1.44-1,2.9-2,4.46-3V58.35a56.52,56.52,0,0,0-5,3.3c-3.3,2.33-6.41,4.56-10.44,5.21a17.59,17.59,0,0,1-2.83.25,9.18,9.18,0,0,1-2.64-.35c-6.27-1.85-8.43-11.67-10.35-20.34-.64-2.87-1.23-5.58-1.93-7.77-.3-8.86,1.93-13.54,4.1-18.09a34,34,0,0,0,3.26-9.1,40.92,40.92,0,0,0,.35-4.93c.13-2.41.22-5.13.6-6.11l0-.1V0h-.93V.16A32,32,0,0,0,473.61,6.49Z"/>
        <path class="cls-1" d="M413.9,11.32c3.68,1.49,12.82,5,17.61,5.72a15.86,15.86,0,0,0,2.35.17h0A11.26,11.26,0,0,0,443.14,13c2.05-2.73,2.54-6.44,1.37-10.38a5.51,5.51,0,0,0-.72-1.35,6.27,6.27,0,0,1-.54-.95,2.09,2.09,0,0,1-.14-.3h-.5c.07.18.13.33.2.49a10.38,10.38,0,0,0,.59,1,4.45,4.45,0,0,1,.65,1.23c1.14,3.8.69,7.33-1.28,10a10.77,10.77,0,0,1-8.91,4h0a18.28,18.28,0,0,1-2.3-.16c-4.72-.7-13.81-4.21-17.49-5.68A38.18,38.18,0,0,1,399.47,0h-.59A38.36,38.36,0,0,0,413.9,11.32Z"/>
        <path class="cls-1" d="M490.05,20.14c1.93,1.6,5.88,2.84,9.95,3.3V23c-4.25-.49-8-1.86-9.65-3.19-6.07-4.9-7.65-12.72-7-19.79h-.47C482.23,7.18,483.86,15.16,490.05,20.14Z"/>
        <path class="cls-1" d="M495.14,2.33A5.28,5.28,0,0,0,500,6.05V5.6a4.79,4.79,0,0,1-4.4-3.39A7.62,7.62,0,0,1,495.35,0h-.47A8.13,8.13,0,0,0,495.14,2.33Z"/>
        <path class="cls-1" d="M366.53,33.72c-.9,2.67-1.69,5.44-2.42,8.12-1.42,5.16-2.92,10.48-5.39,15.27-5.21,10-10.79,16.56-17.09,20C334,81.3,330.4,88.69,332.54,95.93c2,6.7,9.39,12.79,15.41,15.63,6.53,3,13.75,4.88,20.72,6.63,1.54.41,3.05.78,4.58,1.18s3,.82,4.59,1.28,3.49,1,5.27,1.47a44.65,44.65,0,0,0,10.8,1.72h.25c2.54,0,4.45-.68,5.68-2.08,2.09-2.37,1.9-6.27,1.46-9.78-.21-1.66-.48-3.33-.74-5.1-1.21-7.79-2.47-15.88.56-23.07,1.74-4.09,4.65-7.25,7.76-10.62s6.31-6.86,8.16-11.37c1.22-3,3.26-10.43,2.14-17.07-1.48-8.59-7.57-12.17-14-16a62,62,0,0,1-8.11-5.39A43.35,43.35,0,0,1,393.88,19c-3.37-5.07-7.58-11.36-12.2-11.36A5.67,5.67,0,0,0,378,9.12c-5.2,4.49-7.88,13.2-10,20.16C367.44,30.86,367,32.37,366.53,33.72Zm12-23.88a4.75,4.75,0,0,1,3.12-1.3c4.11,0,8.34,6.34,11.41,11a42.64,42.64,0,0,0,3.3,4.56l.05.06a62,62,0,0,0,8.25,5.47c6.26,3.7,12.17,7.17,13.57,15.33,1,6-.7,13.18-2.08,16.56-1.79,4.34-4.95,7.78-8,11.07s-6.12,6.65-7.93,10.92c-3.14,7.44-1.84,15.65-.61,23.56.25,1.75.51,3.44.74,5.09.38,3.12.59,6.93-1.25,9-1.05,1.19-2.68,1.77-5,1.77h-.23a44.72,44.72,0,0,1-10.58-1.7c-1.77-.44-3.54-1-5.24-1.45s-3.11-.88-4.64-1.3l-4.57-1.18c-6.94-1.73-14.11-3.56-20.55-6.58-6-2.82-13.09-8.87-14.91-15-2-6.79,1.39-13.76,8.65-17.74,6.45-3.53,12.17-10.21,17.47-20.4,2.53-4.88,4-10.25,5.46-15.46.72-2.65,1.51-5.4,2.38-8,.46-1.39.93-2.86,1.43-4.47C370.93,22.7,373.56,14.16,378.56,9.84Z"/>
        <path class="cls-1" d="M382.23,48.35l1.33.84c2.77,1.7,5.37,3.34,6.65,7.09a23.25,23.25,0,0,1,.56,2.46c.51,2.42,1,4.89,3.49,5.91a4.68,4.68,0,0,0,1.07.1l0-.24v.24h0c3.86-.44,7.84-4,9.23-8.2a8.52,8.52,0,0,0-2.3-9.35A15.49,15.49,0,0,0,398,44.58,13.72,13.72,0,0,1,392.72,41a30.29,30.29,0,0,1-3.25-6.7c-.15-.43-.31-.83-.45-1.2-.32-.75-.63-1.8-1-2.91-.85-2.84-2-6.4-3.62-7.82a2.58,2.58,0,0,0-1.68-.7c-1.95,0-3.6,2.61-4.63,4.8-2.29,4.84-3.39,12.39-.44,17.49A13,13,0,0,0,382.23,48.35Zm-3.7-21.72c.8-1.7,2.4-4.54,4.21-4.54a2.13,2.13,0,0,1,1.38.58c1.58,1.33,2.62,4.82,3.48,7.61.33,1.11.66,2.18,1,2.95q.24.57.48,1.17c1,2.46,2,5.27,3.33,6.85a13.79,13.79,0,0,0,5.4,3.73A16.25,16.25,0,0,1,402,47.54a8.08,8.08,0,0,1,2.16,8.85c-1.32,4.07-5.11,7.45-8.83,7.87h0a3.66,3.66,0,0,1-.91-.07c-2.24-.89-2.68-3.14-3.17-5.54a20.45,20.45,0,0,0-.62-2.51c-1.3-3.91-4.12-5.67-6.81-7.35-.45-.26-.89-.54-1.35-.82a13.35,13.35,0,0,1-4.4-4.28C375.19,38.7,376.3,31.35,378.53,26.63Z"/>
        <path class="cls-1" d="M440,69.32l.11,0a5,5,0,0,0,2,.44h0c1.93,0,3.68-1.28,4.8-3.51,1.41-2.84,1.34-6.28-.19-8.3l-.05-.07a4.37,4.37,0,0,0-4.53-.12l-.05.05A12,12,0,0,0,440,69.23Zm2.44-11.14a3.77,3.77,0,0,1,4,.12c1.4,1.89,1.43,5.07.08,7.77-1,2.07-2.61,3.26-4.36,3.26h0a4.92,4.92,0,0,1-1.74-.36A11.47,11.47,0,0,1,442.42,58.18Z"/>
        <path class="cls-1" d="M359.14,91.47c1,5.78,7,10.06,11.83,13.5.5.35,1,.68,1.43,1,1.86,1.37,5.32,3.86,8.35,3.86a4.39,4.39,0,0,0,2.72-.86c2.22-1.65,2.79-5.26,3.25-8.19.09-.6.19-1.17.28-1.67l.49-2.35c1.46-7.26,3.14-15.49-.44-22a6.81,6.81,0,0,0-4-3.19,15,15,0,0,0-5-.74c-3.89,0-8.4,1.12-11,2.77A17.86,17.86,0,0,0,359.14,91.47Zm18.91-20.21a14.34,14.34,0,0,1,4.83.74,6.48,6.48,0,0,1,3.77,3c3.49,6.4,1.84,14.54.37,21.74-.16.78-.32,1.57-.48,2.33-.1.53-.19,1.1-.28,1.72-.45,2.8-1,6.33-3.05,7.86a4.09,4.09,0,0,1-2.46.77c-2.87,0-6.26-2.44-8.08-3.76-.44-.33-.93-.66-1.42-1-4.76-3.42-10.71-7.63-11.67-13.21A17.45,17.45,0,0,1,367.35,74,22.12,22.12,0,0,1,378.05,71.26Z"/>
        <path class="cls-1" d="M490.91,107.81a63,63,0,0,0-9.21,1.4,56.94,56.94,0,0,1-9.56,1.39c-4.63-.41-8.74-2.42-12.68-4.35-4.53-2.21-9.2-4.53-14.78-4.53a24.57,24.57,0,0,0-11.1,2.9l-.05,0,0,0a7.54,7.54,0,0,0-.59,4.58l.05.63.05.07a3.13,3.13,0,0,1,.68,1.18c.11.23.18.42.29.61v0c5.7,6.86,14.11,7.28,22.21,7.68,5.07.25,10.3.51,14.81,2.34a41,41,0,0,0,16.63,3.61h0a34.86,34.86,0,0,0,4.74-.3,18.55,18.55,0,0,1,2.42-.16,27.1,27.1,0,0,1,5.21.56v-.45a27,27,0,0,0-5.21-.58,15.44,15.44,0,0,0-2.49.18,36.94,36.94,0,0,1-4.67.29h0a40.72,40.72,0,0,1-16.45-3.58c-4.58-1.86-9.86-2.12-15-2.38-8-.39-16.28-.81-21.82-7.49a2.65,2.65,0,0,1-.27-.53,4.92,4.92,0,0,0-.73-1.3l0-.44a7.7,7.7,0,0,1,.51-4.26,24.11,24.11,0,0,1,10.82-2.79c5.46,0,10.11,2.25,14.57,4.44,4,2,8.14,4,12.89,4.42a55.6,55.6,0,0,0,9.65-1.42,61.28,61.28,0,0,1,9.14-1.37,38.39,38.39,0,0,1,9.07,1v-.49A40.63,40.63,0,0,0,490.91,107.81Z"/>
        <path class="cls-1" d="M474.49,161.11a23.7,23.7,0,0,0-2.77-.18c-8.16,0-13.7,4.77-19.54,9.86l-.65.56c-1.42,1.21-2.88,2.32-4.27,3.41a45,45,0,0,0-9.08,8.49c-4.32,5.7-4.07,13-3.85,20.07a72.85,72.85,0,0,1,0,8v.07a21.11,21.11,0,0,0,3.41,8.48c1.91,2.52,4.63,4.26,7.26,5.91a27.8,27.8,0,0,1,6.93,5.49c.9,1.09,1.7,2.26,2.55,3.49a26.41,26.41,0,0,0,5.64,6.63,26.75,26.75,0,0,0,15.62,4.91h0c6.79,0,12.4-2.47,15.38-6.77,2.25-3.21,2.55-7.17,2.86-11.37a52.87,52.87,0,0,1,.62-5.61c.8-4.46,3-8.42,5.4-12.18v-.86c-2.61,4-5,8.18-5.86,12.93a52.86,52.86,0,0,0-.61,5.69c-.32,4.14-.62,8-2.77,11.14-2.92,4.16-8.39,6.56-15,6.56h0A26.15,26.15,0,0,1,460.42,241a25.26,25.26,0,0,1-5.56-6.51c-.81-1.2-1.65-2.42-2.56-3.53a28.32,28.32,0,0,0-7.05-5.58c-2.58-1.63-5.29-3.33-7.14-5.81a20.81,20.81,0,0,1-3.3-8.26c.17-2.58.07-5.33,0-8-.25-7-.48-14.21,3.73-19.77,2.69-3.55,5.76-5.91,9-8.41,1.41-1.07,2.86-2.19,4.29-3.42l.64-.56c5.79-5,11.27-9.75,19.25-9.75a21,21,0,0,1,2.72.19l3.26.39c7.14.86,16.46,1.94,22.3,5.1v-.53c-6-3.1-15.14-4.19-22.24-5C476.62,161.37,475.53,161.25,474.49,161.11Z"/>
        <path class="cls-1" d="M382.4,197.05c-7.71-.49-10.7,6.51-13.33,12.65a40.45,40.45,0,0,1-2.81,5.81,14.75,14.75,0,0,1-11.77,7.14,16.05,16.05,0,0,0-4.12.88,17.94,17.94,0,0,0-2.32,1.17,10.18,10.18,0,0,1-3.79,1.55,21,21,0,0,1-3,.17h-1.71a20.28,20.28,0,0,0-3.68.25,31.52,31.52,0,0,0-12.54,4.94c-6.11,4.3-9.83,11.41-11.37,21.76-.21,1.42-.49,2.93-.79,4.54-1.25,6.83-2.81,15.34.14,21.32a10.85,10.85,0,0,0,10.12,6.07,16.69,16.69,0,0,0,3.49-.4c5.58-1.27,9.65-4.14,14-7.21a62,62,0,0,1,8.37-5.32c6.21-3.12,13.15-5.42,19.87-7.67,2.41-.79,4.92-1.63,7.3-2.47,1.51-.55,3.07-1,4.7-1.54,1.14-.36,2.28-.71,3.41-1.11,3.68-1.21,7.87-2.79,11.12-5.32,10.09-7.89,12.49-28.08,7.38-39.07C397.91,208.44,390.07,197.54,382.4,197.05Zm20.14,38.69c-1.29,8-4.65,14.59-9.17,18.15-3.19,2.5-7.33,4.06-11,5.27-1.15.37-2.29.72-3.4,1.09-1.67.51-3.23,1-4.74,1.54-2.4.82-4.89,1.67-7.29,2.47-6.74,2.25-13.69,4.57-19.93,7.69a65.38,65.38,0,0,0-8.44,5.37c-4.27,3-8.3,5.89-13.79,7.12a15.69,15.69,0,0,1-3.39.39,10.4,10.4,0,0,1-9.7-5.83c-2.9-5.81-1.33-14.25-.09-21,.3-1.59.58-3.12.77-4.56,1.53-10.19,5.18-17.19,11.18-21.42a31.05,31.05,0,0,1,12.35-4.86,18.73,18.73,0,0,1,3.61-.26h1.71a23.65,23.65,0,0,0,3.08-.16,11.19,11.19,0,0,0,3.95-1.61,17.09,17.09,0,0,1,2.26-1.16,16.81,16.81,0,0,1,4-.83,16.6,16.6,0,0,0,4-.8,17.07,17.07,0,0,0,8.09-6.55,42.61,42.61,0,0,0,2.86-5.89c2.56-6,5.49-12.84,12.88-12.35s15.14,11.19,18.24,17.84C403.05,220.63,403.77,228.25,402.54,235.74Z"/>
        <path class="cls-1" d="M21,251.23c3.89-.62,8.49-.93,12.91-1.25,6.35-.45,12.35-.87,16.63-2a21.89,21.89,0,0,0,12.9-10.14,15.41,15.41,0,0,0,1.54-12c-2.56-8.69-12.07-7.39-18.33-6.53-6.88.95-16.79,2-23.6.25-6.47-1.69-8.37-7.16-6-17.21a67.26,67.26,0,0,1,2.54-7.79c2.12-5.77,4.33-11.74,2.81-17.34A24.38,24.38,0,0,0,21,173.25,34.21,34.21,0,0,0,0,155.63v1.48a32.71,32.71,0,0,1,19.74,16.77,20.32,20.32,0,0,1,1.37,3.61c1.42,5.16-.71,10.91-2.78,16.48a73.2,73.2,0,0,0-2.61,8c-.93,4-3.81,16.07,7,18.88,7,1.82,17.16.77,24.12-.2,7.7-1.07,14.76-1.43,16.83,5.53a14.19,14.19,0,0,1-1.44,11,20.58,20.58,0,0,1-12,9.46c-4.14,1.16-10.08,1.56-16.34,2-4.47.32-9.09.63-13.05,1.25A105,105,0,0,0,6,253.56c-1.95.6-4,1.2-6,1.76v1.45c2.19-.59,4.33-1.24,6.42-1.87A102.93,102.93,0,0,1,21,251.23Z"/>
        <path class="cls-1" d="M20.39,301.91c10.86,5.72,18.75,11.51,23.45,17.27s10.37,11.56,18.16,13a71.65,71.65,0,0,0,12.47,1.16c7.41,0,13.92-1.35,19.29-4.05a25.61,25.61,0,0,0,8.36-7.06c1.14-1.4,2.23-2.86,3.3-4.3a46.09,46.09,0,0,1,8-9.13c.61-.5,1.26-1,2-1.58,3.69-3,8.28-6.78,12.12-8.67a29.56,29.56,0,0,1,7.37-2.09c4.41-.84,9-1.72,11.76-5.63,3.07-4.25,3.73-11.58,4.26-17.46.14-1.4.26-2.7.39-3.87,1.35-11-2.9-16.3-7-21.39-2.35-2.95-4.62-5.74-5.88-9.58l-.19-.59a38,38,0,0,0-1.69-4.58c-1.58-3.3-3.82-4.95-6.65-4.95-4.16,0-8.65,3.65-10.8,5.4-1.64,1.32-3.25,2.49-5,3.74l-2.55,1.88c-6.28,4.7-10.24,11.26-14.07,17.61a108.23,108.23,0,0,1-6.71,10.26c-2.9,2.88-7.16,4.88-12.32,5.72a73.42,73.42,0,0,1-10.23.67c-2.44.05-5,.09-7.51.26-1.51.13-3,.27-4.51.44-2.33.25-4.56.48-6.7.51a47.72,47.72,0,0,1-11.44-1.49c-2-.44-3.86-.84-5.82-1.09a27.86,27.86,0,0,0-3.19-.21,37.14,37.14,0,0,0-9.53,1.39c-1.76.49-3.6.89-5.37,1.28C9.37,275.84,4.39,277,0,279.39v.54c4.39-2.47,9.44-3.63,14.33-4.72,1.78-.42,3.62-.82,5.35-1.3a36.09,36.09,0,0,1,9.43-1.37,21.12,21.12,0,0,1,3.12.22A56.13,56.13,0,0,1,38,273.83a48.36,48.36,0,0,0,11.56,1.5c2.16,0,4.4-.28,6.77-.52,1.46-.16,3-.32,4.48-.42,2.54-.18,5-.23,7.49-.28a73.48,73.48,0,0,0,10.3-.65c5.26-.88,9.59-2.92,12.56-5.9A106.53,106.53,0,0,0,98,257.25c3.82-6.32,7.75-12.85,13.94-17.5.88-.64,1.72-1.26,2.53-1.87,1.72-1.25,3.33-2.42,5-3.74,2.12-1.73,6.54-5.32,10.52-5.32,2.63,0,4.74,1.6,6.23,4.71.56,1.19,1.14,3,1.67,4.52l.19.6c1.3,3.93,3.67,6.86,6,9.72,4,5,8.21,10.19,6.89,21-.14,1.18-.26,2.5-.39,3.86-.52,5.86-1.19,13.11-4.17,17.27-2.7,3.73-7.18,4.61-11.49,5.44a30.1,30.1,0,0,0-7.46,2.12c-3.91,1.91-8.52,5.7-12.23,8.73-.7.53-1.35,1.08-2,1.58-3.26,2.62-5.74,6-8.14,9.21-1,1.43-2.14,2.9-3.26,4.29a25.5,25.5,0,0,1-8.2,6.94,42.9,42.9,0,0,1-19.09,4,69.43,69.43,0,0,1-12.37-1.16c-7.66-1.36-13.13-7-17.91-12.8S31.53,307.25,20.6,301.51A65,65,0,0,0,9.84,297.4,72.44,72.44,0,0,1,0,293.74v.51a73.19,73.19,0,0,0,9.69,3.59A69.6,69.6,0,0,1,20.39,301.91Z"/>
        <path class="cls-1" d="M190.1,357.62a42.13,42.13,0,0,0,6.85.56,41.31,41.31,0,0,0,8.28-.81c7.4-1.53,14.4-4.79,22.68-10.6,1.78-1.24,3.63-2.44,5.44-3.59,7.72-4.93,15.72-10,17.39-20.25.07-.44.14-.89.19-1.33.69-5.3.19-10.67-.26-15.84-.7-7.67-1.41-15.58,1.63-23.34a27.75,27.75,0,0,1,3.33-5.63,31.48,31.48,0,0,0,2.84-4.54c1.72-3.46,2.71-8,3.44-12.09l.12-.65a43.37,43.37,0,0,1,1.72-7.21c2.2-5.61,6.3-7.19,10.64-8.88.38-.12.72-.28,1.07-.4,7.33-2.86,15.07-7.3,16.86-18.4,1.28-8,.05-16.23-1.2-21.71-2.45-10.77-9.84-18.12-20.28-20.19a37.76,37.76,0,0,0-7-.7c-7.32,0-13.54,2.45-17.51,6.89-3.65,4.11-5.19,9.6-4.47,15.92.14,1.12.33,2.06.51,3s.33,1.7.43,2.63c.87,7.84-.35,13.88-3.54,17.44a11,11,0,0,1-8.54,3.53,19.82,19.82,0,0,1-4.25-.49c-1.33-.3-2.7-.71-4-1.11a28.18,28.18,0,0,0-8.42-1.67,15.88,15.88,0,0,0-4.63.69c-6.3,1.89-14.58,8.68-21.23,14.14-4.6,3.77-7.7,8-9.21,12.63-1,3-1.93,6-2.86,8.95-4,12.65-8.14,25.73-14.82,37.37-.53.93-1.14,1.89-1.79,2.89-1.67,2.58-3.39,5.26-4.07,7.95a20.76,20.76,0,0,0-.37,5.52,29.76,29.76,0,0,1-.19,4.44,29.08,29.08,0,0,0,0,11.46C158.63,350,178.58,355.65,190.1,357.62Zm-34.35-34.79a29,29,0,0,0,.2-4.57,20.69,20.69,0,0,1,.35-5.29c.63-2.55,2.31-5.14,3.95-7.69.66-1,1.28-2,1.82-2.91,6.74-11.74,10.88-24.88,14.9-37.56.93-2.95,1.87-6,2.86-8.93,1.45-4.44,4.45-8.55,8.91-12.21,6.59-5.41,14.79-12.13,20.89-14a15.55,15.55,0,0,1,4.37-.63,27.77,27.77,0,0,1,8.14,1.62c1.33.4,2.7.82,4.09,1.12a21.39,21.39,0,0,0,4.44.53,11.77,11.77,0,0,0,9.24-3.87c3.37-3.75,4.69-10.05,3.78-18.15-.13-1-.29-1.81-.46-2.69s-.35-1.82-.48-2.93c-.7-6,.76-11.26,4.22-15.14,3.8-4.26,9.75-6.59,16.82-6.59a36.11,36.11,0,0,1,6.88.68c10.05,2,17.17,9.09,19.54,19.47,1.23,5.41,2.44,13.48,1.18,21.34-1.37,8.58-6.09,13.7-16.27,17.68l-1.07.42c-4.33,1.67-8.84,3.41-11.15,9.39a40.34,40.34,0,0,0-1.78,7.4L261,260c-.72,4-1.68,8.49-3.35,11.84a30,30,0,0,1-2.77,4.41,29,29,0,0,0-3.44,5.84c-3.1,8-2.4,16-1.7,23.74.46,5.14.95,10.45.28,15.66-.05.42-.1.84-.17,1.3-1.62,9.79-9.07,14.56-17,19.6-1.8,1.16-3.68,2.35-5.47,3.61-8.18,5.74-15.05,9-22.32,10.46a40.4,40.4,0,0,1-8.1.79,41.46,41.46,0,0,1-6.69-.55c-11.31-1.93-30.84-7.45-34.51-22.73A28.79,28.79,0,0,1,155.75,322.83Z"/>
        <path class="cls-1" d="M193.6,347.91c.89,0,1.8,0,2.68-.1,11.05-1,18.16-6.93,25.67-13.16,1.86-1.54,3.79-3.14,5.79-4.67a20.54,20.54,0,0,0,6.87-8.75c3-7.7.13-16.67-7.59-23.39a75.49,75.49,0,0,0-12.76-8.35,17.63,17.63,0,0,0-3.4-1.33,18.56,18.56,0,0,1-3.12-1.18,8.46,8.46,0,0,1-2.88-2.45,17.25,17.25,0,0,0-1.47-1.62A11,11,0,0,0,196,280.3a14,14,0,0,0-7.14,1.95c-2.47,1.51-3.47,3.89-4.44,6.17a17.26,17.26,0,0,1-2.57,4.63,29,29,0,0,1-6.09,4.95,32.21,32.21,0,0,0-6,4.72c-7.07,7.77-8.82,17.46-4.77,26.63A32.08,32.08,0,0,0,193.6,347.91ZM170.12,303a31.87,31.87,0,0,1,5.86-4.65,30,30,0,0,0,6.2-5,17.55,17.55,0,0,0,2.65-4.75c1-2.34,1.92-4.55,4.24-6a13.53,13.53,0,0,1,6.91-1.88,10.38,10.38,0,0,1,7.09,2.48,17.83,17.83,0,0,1,1.44,1.58,9.22,9.22,0,0,0,3,2.59,20,20,0,0,0,3.17,1.2A17.07,17.07,0,0,1,214,289.9a75.17,75.17,0,0,1,12.66,8.29c7.58,6.6,10.44,15.36,7.46,22.86a20,20,0,0,1-6.72,8.55c-2,1.52-3.93,3.14-5.79,4.7-7.46,6.18-14.49,12-25.4,13a23.4,23.4,0,0,1-2.65.14,31.57,31.57,0,0,1-28.16-18.28C161.47,320.18,163.16,310.65,170.12,303Z"/>
        <path class="cls-1" d="M186.72,334.18a14.6,14.6,0,0,0,3.07.31c6.77,0,14.56-4.35,15.91-11.65a11.79,11.79,0,0,0,.19-2.66c-.22-4.93-4.7-7.88-11.92-7.88-4.37,0-9,1.16-11.62,2.88-3.86,2.57-5.66,6.33-4.93,10.26C178.23,329.7,181.88,333.12,186.72,334.18Zm-4.11-18.62c2.5-1.66,7.06-2.79,11.36-2.79,2.61,0,11.14.55,11.45,7.42a10.54,10.54,0,0,1-.19,2.58c-1.27,7-9,11.27-15.44,11.27a15.12,15.12,0,0,1-3-.32c-4.63-1-8.16-4.3-8.91-8.37C177.18,321.62,178.91,318,182.61,315.56Z"/>
        <path class="cls-1" d="M62.91,486.84a92.11,92.11,0,0,0-11.38-2.49c-.51-.07-1-.12-1.44-.19a11.5,11.5,0,0,0-5.41,0c-5,1.53-7.38,6.58-6.7,14.12H39.4c-.42-4.82.14-11.1,5.69-12.79a10.54,10.54,0,0,1,4.77,0l1.47.23a80.09,80.09,0,0,1,11.21,2.45c6,1.6,12.43,4.32,18.57,7,2.57,1.09,5.1,2.17,7.52,3.12h4c-3.42-1.21-7.11-2.77-10.93-4.4C75.46,491.23,69,488.49,62.91,486.84Z"/>
        <path class="cls-1" d="M26.58,488.91c.05-1.87.09-3.66,0-5.42,0-.61,0-1.24-.09-1.86-.32-5.61-.61-10.91,1.88-13.63a6.86,6.86,0,0,1,5-2c4.25-.14,8.56,2.23,13.18,4.79a72.09,72.09,0,0,0,8.89,4.4,51.55,51.55,0,0,0,15.3,3.41c.55,0,1.09.07,1.6.07,7.81,0,14.3-3.06,15.79-7.44a7.17,7.17,0,0,0,.17-3.79l-.07-.26A29.22,29.22,0,0,0,85.6,460a31.18,31.18,0,0,1-3.34-9.37c-1.38-9.51,2.88-15.33,6.71-18.54,7-5.9,15.64-6.93,26.29-7.72l1.37-.09c10.81-.77,21-1.51,26.33-10.61,4.32-7.39,9.41-17.07,10.34-26.48.72-7.31-2.32-12.24-5.51-17.47a64.45,64.45,0,0,1-3.89-7l0-.07-.05-.08a36,36,0,0,1-5.34-7.56c-3.15-5.36-6.42-10.91-12.52-12a10.29,10.29,0,0,0-1.6-.12,16.47,16.47,0,0,0-5.49,1.07,60.34,60.34,0,0,0-6.3,3,45.84,45.84,0,0,1-9,3.89,74.57,74.57,0,0,1-7.88,1.47,77.34,77.34,0,0,0-8.1,1.48c-5.16,1.28-10.16,2.73-15,4.1-9.82,2.81-19.11,5.48-29.84,7.13-10.9,1.63-19,3.33-24.34,10a47,47,0,0,0-5.5,9.4,43.11,43.11,0,0,1-6.2,10.27c-1.14,1.28-2.3,2.49-3.44,3.65S1,400.72,0,401.91v1.46c1.21-1.49,2.54-2.9,4-4.33,1.12-1.18,2.3-2.39,3.44-3.71a43.33,43.33,0,0,0,6.36-10.45,46.86,46.86,0,0,1,5.37-9.25c5.13-6.42,13.07-8.07,23.76-9.68s20.54-4.44,30-7.14c4.83-1.37,9.83-2.81,15-4.09a76.36,76.36,0,0,1,8-1.47,71.59,71.59,0,0,0,8-1.49,46,46,0,0,0,9.23-4,62.22,62.22,0,0,1,6.17-2.93,16.77,16.77,0,0,1,5.16-1,9.66,9.66,0,0,1,1.44.11c5.67,1,8.84,6.38,11.9,11.56a36.37,36.37,0,0,0,5.4,7.7,66,66,0,0,0,3.91,7c3.11,5.07,6.05,9.87,5.37,16.87-.91,9.22-6,18.79-10.21,26.11-5.06,8.65-14.6,9.33-25.6,10.14l-1.37.09c-10.82.79-19.65,1.86-26.82,7.93-4,3.36-8.47,9.45-7,19.38a32.33,32.33,0,0,0,3.39,9.67,26.61,26.61,0,0,1,2.61,6.89l.05.27a5.87,5.87,0,0,1-.14,3.31c-1.35,4-7.47,6.83-14.89,6.83-.49,0-1,0-1.55-.07a50.94,50.94,0,0,1-15-3.35A73.35,73.35,0,0,1,47,470c-4.7-2.62-9.14-5.07-13.65-4.9a7.71,7.71,0,0,0-5.69,2.28c-2.77,3-2.47,8.51-2.12,14.32,0,.65.07,1.26.09,1.89.09,1.71.05,3.46,0,5.32s-.09,3.91,0,5.86c0,1.19.15,2.37.29,3.54h.95c-.14-1.17-.26-2.37-.31-3.58C26.51,492.77,26.54,490.83,26.58,488.91Z"/>
        <path class="cls-1" d="M340,394.12a7.69,7.69,0,0,0,4.14,1.34,6.38,6.38,0,0,0,2.11-.37c2.72-1,5.22-3.84,7.5-8.56,8.21-17.11,9.46-30,3.62-37.23a7,7,0,0,0-5.65-2.82c-6.68,0-14.19,8.38-16.35,12.89-3.42,7.09-2.95,16.09-2.6,19.6C333.26,383.84,334.54,390.7,340,394.12Zm-4.23-34.54c2.07-4.3,9.56-12.65,16-12.65a6.61,6.61,0,0,1,5.3,2.67c5.7,7.08,4.44,19.79-3.69,36.7-2.22,4.63-4.65,7.44-7.22,8.35a6.56,6.56,0,0,1-5.86-.91c-5.28-3.32-6.53-10-7-14.81C332.88,375.44,332.42,366.56,335.77,359.58Z"/>
        <path class="cls-1" d="M298.81,347.56l-.18,0c-3.38.09-6.44,3.65-7.21,6.95-.93,1.38.11,3.4,1.14,4.42l0,0,0,0a3.93,3.93,0,0,0,1.18.12h.47l.05,0c3.12-2.47,5.88-7.07,4.53-11.33Zm-4.69,11.11h-.29a3.16,3.16,0,0,1-1-.11c-.87-.89-1.79-2.66-1-3.8l0-.07c.66-3,3.51-6.43,6.58-6.64C299.63,352,297.05,356.3,294.12,358.67Z"/>
        <path class="cls-1" d="M5.51,444.39h0a16.29,16.29,0,0,0,2.09-.16,45.18,45.18,0,0,0,7.17-1.93,43.71,43.71,0,0,1,8.88-2.21,28.31,28.31,0,0,1,3-.18c9.39,0,13.86,5.2,18.6,10.7,3.88,4.48,7.88,9.11,14.77,10.92h.07c5.26-.17,5.55-4.87,5.84-10.28a48.26,48.26,0,0,1,.67-6.4c1.24-6.28,5.74-14.46,12-21.84l.16-.23a26.07,26.07,0,0,1,4.17-4.17c6.16-4.65,14.32-4.67,23-4.67a86.8,86.8,0,0,0,12.54-.6c5.88-.84,10.13-3,13-6.67,4.68-6,6.91-14.4,5.61-21.45a16.26,16.26,0,0,0-7.45-11.42c-7.07-4.35-17.83-9.16-24.69-9.95a57,57,0,0,0-5.75-.26,44.14,44.14,0,0,0-5,.23c-6.23.64-13,2.94-20.28,5.42-7.53,2.56-15.28,5.19-22.32,5.77-1.5.14-3.07.23-4.57.3-6.06.33-12.32.7-16.22,3.66-4.24,3.25-6.05,7.56-8.14,12.6-.57,1.39-1.17,2.86-1.86,4.33a69.4,69.4,0,0,1-5.08,7.41c-2.9,3.91-5.93,7.93-7.42,12.16-.67,1.94-1.23,4-1.78,6a46.09,46.09,0,0,1-3.94,10.9c-.23.37-.46.72-.69,1.07A12,12,0,0,0,0,437.35v4.32C.89,443.46,2.79,444.39,5.51,444.39ZM2.23,433.72a11.67,11.67,0,0,0,.68-1.1c2-3.3,3-7.22,4-11,.55-2,1.11-4.08,1.77-6,1.48-4.18,4.48-8.17,7.37-12a67.3,67.3,0,0,0,5.13-7.48c.68-1.49,1.28-3,1.87-4.38,2.06-4.95,3.85-9.21,8-12.37,3.81-2.91,10-3.25,16-3.58,1.53-.07,3.09-.18,4.62-.28,7.07-.6,14.87-3.26,22.42-5.82,7.19-2.44,14-4.78,20.16-5.41,1.35-.12,3-.21,4.91-.21,2.12,0,4.3.11,5.7.26,6.79.78,17.46,5.57,24.47,9.88a15.81,15.81,0,0,1,7.28,11.09A28,28,0,0,1,131,406.39c-2.79,3.56-6.93,5.68-12.69,6.52a90.08,90.08,0,0,1-12.47.58c-8.33,0-17,0-23.23,4.76a26.09,26.09,0,0,0-4.24,4.24l-.18.21c-6.3,7.46-10.82,15.71-12.09,22.06a49.62,49.62,0,0,0-.68,6.49c-.28,5.38-.53,9.63-5.37,9.84-6.72-1.79-10.67-6.37-14.49-10.77-4.79-5.6-9.35-10.86-18.95-10.86-1,0-2,.05-3,.15a46.49,46.49,0,0,0-9,2.25,43.22,43.22,0,0,1-7.12,1.91,16.25,16.25,0,0,1-2,.16h0c-2.72,0-4.53-1-5.28-2.86A9.94,9.94,0,0,1,2.23,433.72Z"/>
        <path class="cls-1" d="M257.79,390c-1.88-5.46-4.6-12.51-6.56-16-1.3-2.31-3.2-4.68-7.3-4.68a12.3,12.3,0,0,0-1.46.09,87.32,87.32,0,0,0-10.77,2.35A104.62,104.62,0,0,1,216.09,375c-8,.84-18.2,1.56-27.42,1.95A13.37,13.37,0,0,0,177.47,393l0,0c.23.4.49.79.74,1.21.4.65.82,1.31,1.17,2l0,.05.05.06c3.53,2.22,8.09,3.1,12.92,4,5.29,1,10.73,2.09,15.68,5a60.77,60.77,0,0,1,7.33,5.23,54.45,54.45,0,0,0,6.13,4.44,55.88,55.88,0,0,0,21.4,7.14,28.1,28.1,0,0,0,3,.19h0c3.89,0,6.47-1.1,8.42-3.58,4.35-5.54,5.75-17.49,4.84-23.61C259.11,394.62,258.25,391.37,257.79,390ZM254,418.55c-1.86,2.38-4.26,3.4-8,3.4a29.62,29.62,0,0,1-3-.18,56,56,0,0,1-21.21-7.07,57,57,0,0,1-6.07-4.4,60.06,60.06,0,0,0-7.4-5.28c-5-2.95-10.49-4-15.84-5-4.74-.93-9.23-1.8-12.67-3.94-.33-.69-.77-1.35-1.16-2-.24-.37-.49-.78-.7-1.14a12.65,12.65,0,0,1,2-10.09,12.86,12.86,0,0,1,8.77-5.41c9.21-.36,19.46-1.08,27.42-1.93a105.5,105.5,0,0,0,15.68-3.21,88.1,88.1,0,0,1,10.71-2.33,7.51,7.51,0,0,1,1.4-.1c3.86,0,5.65,2.26,6.89,4.45,1.93,3.44,4.64,10.46,6.51,15.9a48.72,48.72,0,0,1,1.41,5.1C259.74,402,257.88,413.6,254,418.55Z"/>
        <path class="cls-1" d="M90.51,398.05h0a26.69,26.69,0,0,0,11.37-2.26c3.52-1.7,5.37-4.19,5.37-7.21,0-6.63-6.34-9-12.27-9a25.53,25.53,0,0,0-14.66,4.54c-2.27,1.72-4.67,3.9-4.32,8C77.11,396.19,84.28,398.05,90.51,398.05ZM80.6,384.51A25,25,0,0,1,95,380.05c7.39,0,11.79,3.18,11.79,8.53,0,3.58-2.77,5.65-5.1,6.79a26,26,0,0,1-11.16,2.21h0c-7.39,0-13.18-2.3-14-5.56C76.14,388.23,78.42,386.14,80.6,384.51Z"/>
        <path class="cls-1" d="M237.3,390a15.44,15.44,0,0,0-10.72-3.83,22.47,22.47,0,0,0-12,3.53l-.09.07,0,.09a1.36,1.36,0,0,1-.42.81l-.05.07a2.39,2.39,0,0,0,.14,2,3.42,3.42,0,0,1,.28,1.22V394l.05.07c3.49,4.44,10,12.76,17.57,12.76h0a11.2,11.2,0,0,0,3.54-.6,7.71,7.71,0,0,0,5.3-5.84A11.57,11.57,0,0,0,237.3,390Zm3.12,10.31a7.16,7.16,0,0,1-5,5.5,10,10,0,0,1-3.4.57h0c-7.3,0-13.71-8.08-17.16-12.5a3.12,3.12,0,0,0-.32-1.3,2,2,0,0,1-.12-1.62,2,2,0,0,0,.47-.91,21.83,21.83,0,0,1,11.67-3.42A15.05,15.05,0,0,1,237,390.3,11.09,11.09,0,0,1,240.42,400.26Z"/>
        <path class="cls-1" d="M194.46,421a31.22,31.22,0,0,0-5.39-1.05,88.37,88.37,0,0,0-8.89-.46c-17.32,0-30.72,5.13-35.81,13.72a103.35,103.35,0,0,0-5,9.7c-3.05,6.55-5.66,12.2-12.78,18.34a49.5,49.5,0,0,1-5.53,4c-1.28.84-2.6,1.72-3.83,2.62-2.38,1.75-4.84,3.58-4.79,7.43v.07l0,.06a29.23,29.23,0,0,0,9.42,10.77c4.62,3.09,14.25,6.24,21.88,7.16a43.39,43.39,0,0,0,4.56.3h0c9.74,0,14.72-4.41,20-9,1.46-1.26,3-2.61,4.6-3.86.86-.67,1.75-1.33,2.65-2,9.24-7.05,19.73-15.05,29-26a18.44,18.44,0,0,0,4-7.3C210.67,435.32,202.56,423.56,194.46,421Zm13.68,24.32a18.66,18.66,0,0,1-3.93,7.09c-9.19,10.91-19.65,18.87-28.89,25.94-.92.67-1.79,1.35-2.65,2-1.65,1.26-3.16,2.6-4.64,3.88-5.2,4.58-10.12,8.89-19.68,8.89a35.66,35.66,0,0,1-4.51-.28c-7.58-.91-17.08-4-21.66-7.07a28.58,28.58,0,0,1-9.25-10.56c0-3.61,2.33-5.33,4.61-7,1.2-.89,2.53-1.77,3.81-2.59a52.12,52.12,0,0,0,5.56-4c7.21-6.22,9.86-11.89,12.91-18.49a97.65,97.65,0,0,1,4.93-9.68C149.79,425,163,420,180.18,420c2.94,0,5.93.14,8.84.43a33.44,33.44,0,0,1,5.31,1.06C202.25,424,210.18,435.46,208.14,445.32Z"/>
        <path class="cls-1" d="M178.26,430.79c-7.77,0-15.75,2.93-19.4,7.12-3.81,4.35-6.25,10.6-8.61,16.62-1.18,3-2.41,6.17-3.76,9a8.09,8.09,0,0,0-.05,8,7,7,0,0,0,6.16,3.28h0a8,8,0,0,0,1.35-.1,15,15,0,0,0,3.84-1.41c3.39-1.58,7.3-3.58,11.44-5.68l4.45-2.27a44.77,44.77,0,0,0,10.3-7.4c3.71-3.68,7.83-9.42,8.72-13.86q1.05-5.26-1.72-8.65C188.56,432.42,184.05,430.79,178.26,430.79Zm14,13.12c-.88,4.35-4.93,10-8.58,13.62a44.85,44.85,0,0,1-10.2,7.31c-1.47.76-3,1.51-4.43,2.27-4.16,2.1-8.07,4.09-11.44,5.68a16,16,0,0,1-3.72,1.37,8.2,8.2,0,0,1-1.28.09h0a6.51,6.51,0,0,1-5.74-3.05,7.51,7.51,0,0,1,0-7.51c1.36-2.81,2.59-5.95,3.78-9,2.36-6,4.78-12.19,8.53-16.49,3.56-4.09,11.4-6.95,19-6.95,5.63,0,10,1.57,12.36,4.39C192.35,437.77,192.91,440.55,192.25,443.91Z"/>
        <path class="cls-1" d="M121.79,448.51c1.47-1.67,3.46-5.1,3.23-7.56-.39-4.12-3.93-6.48-9.72-6.48-6.63,0-14.76,3.27-16.35,8.14a5.47,5.47,0,0,0-.12,2.55,12.44,12.44,0,0,1,.07,2v.06l0,.07c1.82,4.08,5.72,6.43,10.67,6.43h0A16.93,16.93,0,0,0,121.79,448.51Zm-12.19,4.77c-4.74,0-8.46-2.23-10.21-6.12a12.52,12.52,0,0,0-.11-2.07,5,5,0,0,1,.12-2.32c1.49-4.61,9.56-7.84,15.9-7.84,2.61,0,8.74.6,9.26,6.07.21,2.28-1.74,5.65-3.12,7.19A16.36,16.36,0,0,1,109.6,453.28Z"/>
        <path class="cls-1" d="M336.47,462.74l0,.07a4.12,4.12,0,0,0,3,1.49,3.15,3.15,0,0,0,1.77-.54l.05-.07a2.7,2.7,0,0,0,.56-2.25c-.31-1.83-2.12-3.16-2.68-3.54l-.05,0h-.06a2.89,2.89,0,0,0-1.57.16c-1.71,1-1.34,3.21-1.09,4.67Zm1.29-4.32a2.84,2.84,0,0,1,1.26-.1,5.52,5.52,0,0,1,2.45,3.19,2.34,2.34,0,0,1-.47,1.86,2.47,2.47,0,0,1-1.47.47,3.61,3.61,0,0,1-2.6-1.3C336.68,461.14,336.37,459.26,337.76,458.42Z"/>
        <path class="cls-1" d="M238.14,477.86c.42-3.93,0-7.67-1.09-9.09-2.59-3.49-10.12-4.73-16.33-4.73a31.44,31.44,0,0,0-10.33,1.44c-4.57,1.68-9.58,6.19-13.62,9.82-2.31,2.05-4.93,4.12-7.44,6.14-6.47,5.14-13.12,10.42-16.3,16.84h.51c3.2-6.23,9.72-11.44,16.09-16.49,2.51-2,5.12-4.05,7.46-6.14,4-3.61,9-8.09,13.47-9.74a31.74,31.74,0,0,1,10.16-1.42c5.81,0,13.46,1.2,16,4.55,1,1.31,1.39,5,1,8.77-.51,4.82-2.6,13.44-4.29,19.38-.12.37-.22.72-.33,1.09h.47a8,8,0,0,0,.3-.95C235.56,491.33,237.63,482.7,238.14,477.86Z"/>
        <path class="cls-1" d="M3,475.72A14.1,14.1,0,0,0,0,476v.49a14.14,14.14,0,0,1,3-.35,12,12,0,0,1,9.74,5c2.64,3.44,4.17,10.18,4.49,17.07h.42c-.32-7-1.84-13.84-4.53-17.37A12.57,12.57,0,0,0,3,475.72Z"/>
        <path class="cls-1" d="M213.75,490.46a1.2,1.2,0,0,1-.31-.58,1.4,1.4,0,0,0-.49-.81l-.07,0a4.46,4.46,0,0,0-1.51-.27c-3.37,0-6.39,3.79-6.77,7.05l0,.13.12.1a1.16,1.16,0,0,1,.28.46,1.35,1.35,0,0,0,.14.35l0,.07.05,0a4.82,4.82,0,0,0,2.21.52h0a6.9,6.9,0,0,0,6.42-6.84v-.1ZM211.63,495a6,6,0,0,1-4.21,2h0a4.35,4.35,0,0,1-1.93-.45c0-.06-.05-.13-.09-.2a1.56,1.56,0,0,0-.33-.6c.4-3,3.19-6.52,6.3-6.52a4.7,4.7,0,0,1,1.32.23,1.09,1.09,0,0,1,.31.58,1.33,1.33,0,0,0,.39.7A6.09,6.09,0,0,1,211.63,495Z"/>
        <path class="cls-1" d="M2.81,493.07a4.62,4.62,0,0,0-2.6-.84l-.21,0v.47H.21a4.15,4.15,0,0,1,2.32.72,5.75,5.75,0,0,1,2.14,4.67c0,.07,0,.12,0,.17h.47v-.17A6,6,0,0,0,2.81,493.07Z"/>
        <path class="cls-1" d="M488,269.51c-8.65,3.12-15.53,10.86-16.32,18.35-.44,3.91.58,9.56,7.78,14.07.47.28.89.56,1.34.83,3.88,2.4,7.2,4.47,9.48,8.61,2.65,4.82,2.16,9.12,1.6,14.1-.15,1.32-.3,2.69-.39,4.08-.42,6.33,3.75,10.61,8.56,14.77v-1.88c-4.1-3.65-7.53-7.49-7.18-12.82.11-1.36.25-2.69.41-4,.56-5,1.07-9.72-1.77-14.93-2.46-4.47-5.95-6.65-10-9.14l-1.29-.81c-5.23-3.28-7.71-7.7-7.18-12.75.77-7,7.25-14.21,15.44-17.18A104.43,104.43,0,0,1,500,267.68h0v-1.44l-.33.07A104.51,104.51,0,0,0,488,269.51Z"/>
        <path class="cls-1" d="M481.42,145.09c-6.47-.93-12.8-1.67-19-.21-7.77,1.84-13.85,5.75-19.9,10-3.42,2.36-7.21,4.7-10.89,7-5.44,3.39-10.6,6.55-13.93,9.44-7.07,6.14-9.56,12.61-8.6,22.39,1,10.5,3.14,19,5.21,27.31,1.49,6,3,12.14,4.13,19,.28,1.7.57,3.42.89,5.24,1.37,7.85,2.91,16.72,2.14,23.57-1,9.17-7.75,16.91-17.56,20.19l-2.88.54h2.35c0,.05-.05.12-.09.19a.8.8,0,0,0,.06.48c.05.1-2.76.32-2.65.39.31.21,3.65,0,3.88-.32v0c10.19-3.47,17.2-11.63,18.28-21.29.77-7-.79-16-2.16-23.95-.31-1.83-.61-3.55-.87-5.23-1.12-6.93-2.67-13.14-4.18-19.14-2-8.21-4.16-16.69-5.17-27.12-.92-9.25,1.43-15.39,8.12-21.16,3.26-2.83,8.35-6,13.75-9.32,3.69-2.26,7.51-4.61,11-7,6.16-4.27,11.88-7.95,19.42-9.74,5.9-1.39,12.09-.69,18.42.25l5.93.84c4.51.61,8.81,1.21,12.86,2v-1.42c-4-.77-8.24-1.35-12.68-2C485.39,145.65,483.44,145.39,481.42,145.09Z"/>
        <path class="cls-1" d="M459.12,484.86c-2.94-4.23-5.73-8.23-4.19-13.95,1-3.79,4.07-5.82,7.3-8,3.42-2.3,7-4.63,8-9.26,1.37-6,.91-20.7-.09-25.16a24.87,24.87,0,0,0-2.05-5.11c-1.72-3.56-3.67-7.59-2.4-11.35,1.66-4.89,7.82-8.49,13.81-12,2.47-1.44,4.8-2.82,6.8-4.25,5.39-3.91,13.51-9.82,11.91-19.19-1.29-7.58-7.57-10.82-14.22-14.26a75.17,75.17,0,0,1-11.46-8c-4.51-3.56-9.16-7.25-14.3-9.34l-1.7-.72a26.42,26.42,0,0,0-3.93-1.51c-.47-.14-1-.26-1.53-.42-4.36-1.19-10.35-2.8-16.12-2.8a24.21,24.21,0,0,0-5.21.52C421,342,414.51,352.56,412.63,362c-3.3,16.46,2.86,26.06,8.27,34.55a52.29,52.29,0,0,1,5.57,10.26,15.49,15.49,0,0,1,.67,8.93c-2.54,10.09-10.33,18.93-18.6,28.3-2,2.25-4.06,4.59-6.05,7A105.94,105.94,0,0,1,390,463.76l-.32.26a36.22,36.22,0,0,0-6.8,6.86c-.25.33-.48.68-.69,1-4.63,7.45-5.24,13.63-1.88,18.94a24.93,24.93,0,0,0,4.14,4.63c.93.9,1.88,1.81,2.74,2.81H389l-.56-.68a33.39,33.39,0,0,0-3-3.14,23.73,23.73,0,0,1-3.91-4.37c-3.06-4.81-2.44-10.51,1.87-17.44.2-.32.42-.63.62-.95a36.33,36.33,0,0,1,6.6-6.63l.31-.26a105.91,105.91,0,0,0,12.61-12.91c2-2.37,4.08-4.71,6.06-6.95,8.38-9.49,16.29-18.48,18.89-28.88a17.18,17.18,0,0,0-.7-9.77,54.06,54.06,0,0,0-5.72-10.55c-5.26-8.24-11.24-17.59-8.05-33.5,1.81-9,7.88-19,16-20.78a24.36,24.36,0,0,1,4.91-.47c5.58,0,11.46,1.6,15.75,2.77l1.53.41a24.11,24.11,0,0,1,3.74,1.43c.56.25,1.14.51,1.72.73,5,2,9.54,5.64,14,9.13a74.93,74.93,0,0,0,11.7,8.15c6.6,3.42,12.3,6.36,13.48,13.24,1.45,8.51-6.25,14.12-11.37,17.83a75.51,75.51,0,0,1-6.69,4.17c-6.19,3.63-12.59,7.35-14.4,12.74-1.45,4.31.61,8.61,2.46,12.4a27.27,27.27,0,0,1,1.95,4.81c1,4.33,1.36,18.86.1,24.56-.91,4.07-4.09,6.17-7.42,8.39s-6.7,4.49-7.86,8.8c-1.72,6.34,1.39,10.79,4.4,15.11,2.25,3.23,4.6,6.58,5.16,10.88.07.59.11,1.17.16,1.73h1.4c0-.61-.09-1.24-.17-1.91C463.93,491.74,461.49,488.25,459.12,484.86Z"/>
        <path class="cls-1" d="M493.84,413.49a75.57,75.57,0,0,1-5,11.3c-.47.81-1,1.61-1.56,2.46-3,4.59-6.33,9.79-5,19.79a38.47,38.47,0,0,0,1.56,6.17c.95,3,1.93,6.07,1.67,9.25a22.19,22.19,0,0,1-2.3,7.24c-1,2-1.93,3.69-2.84,5.34-3.37,6.1-6,10.94-6.09,23.24h.93c0-12,2.54-16.56,6-22.81.93-1.63,1.86-3.35,2.84-5.35a22.24,22.24,0,0,0,2.41-7.58c.26-3.36-.74-6.56-1.71-9.63a37.92,37.92,0,0,1-1.54-6c-1.28-9.64,2-14.69,4.9-19.16.52-.84,1.07-1.65,1.56-2.49a77.65,77.65,0,0,0,5.12-11.42,53.15,53.15,0,0,1,3.44-7.85,29.87,29.87,0,0,1,1.84-2.61v-1.44a29.12,29.12,0,0,0-2.65,3.56A53,53,0,0,0,493.84,413.49Z"/>
        <path class="cls-1" d="M444.68,399h0c9.51,0,22.78-8.48,24.15-18,.77-5.42-1.78-12-7-18-6.54-7.54-15.59-12.42-23.08-12.42a14.11,14.11,0,0,0-8.51,2.63c-7.64,5.53-8.27,15.44-8.06,22.46,2.18,12.23,10.25,21.53,20.06,23.14A16.26,16.26,0,0,0,444.68,399Zm-22-23.39c-.19-6.86.44-16.61,7.88-22a13.83,13.83,0,0,1,8.23-2.52c7.35,0,16.28,4.8,22.73,12.24,5.11,5.93,7.63,12.35,6.86,17.65-1.33,9.3-14.33,17.58-23.67,17.58a13,13,0,0,1-2.35-.19C432.7,396.83,424.79,387.67,422.65,375.65Z"/>
        <path class="cls-1" d="M499.79,441.18l0,.05a3.89,3.89,0,0,1,.19.42v-4.26A11.77,11.77,0,0,0,499.79,441.18Z"/>
        <path class="cls-1" d="M445,381.3a5.46,5.46,0,0,0,4.84-3.33,4.28,4.28,0,0,0-1-4.85,4.71,4.71,0,0,0-3.35-1.28,5.26,5.26,0,0,0-4,1.76,4.88,4.88,0,0,0-1,4l0,.05c1.32,3.2,3.44,3.67,4.58,3.67Zm-4.12-3.82a4.28,4.28,0,0,1,.89-3.58,4.83,4.83,0,0,1,3.67-1.6,4.34,4.34,0,0,1,3,1.16,3.78,3.78,0,0,1,1,4.31,5,5,0,0,1-4.42,3.06C443.23,380.83,441.77,379.65,440.88,377.48Z"/>
        <path class="cls-1" d="M442.16,426.81a7.45,7.45,0,0,0-2,.3c-6.07,1.91-8,9.45-6.77,15.94l0,.06c1.3,2.7,4.09,4.24,7.65,4.24h0a13,13,0,0,0,9-3.68,8,8,0,0,0,2.38-6C452.32,432.9,447.42,426.81,442.16,426.81Zm7.61,16.53a12.38,12.38,0,0,1-8.7,3.54h0c-3.38,0-6-1.42-7.21-3.95-1.19-6.26.63-13.56,6.42-15.35a5.82,5.82,0,0,1,1.88-.3c4.88,0,9.7,5.88,9.88,10.42A7.65,7.65,0,0,1,449.77,443.34Z"/>
        <path class="cls-1" d="M432.79,473.19c-3.09-4.89-7.54-7.86-12.58-8.35a14.71,14.71,0,0,0-1.51-.07c-8.49,0-19,6.41-23.54,12.39a12,12,0,0,0-2.44,8.44,29.65,29.65,0,0,0,6.16,12.68h.61a29,29,0,0,1-6.31-12.75,11.53,11.53,0,0,1,2.35-8.09c4.45-5.89,14.82-12.19,23.17-12.19a11.94,11.94,0,0,1,1.48.07c4.87.45,9.21,3.37,12.22,8.14,2.58,4.05,4.64,9.82,6.64,15.4,1.14,3.23,2.33,6.54,3.57,9.42h.51c-1.28-2.93-2.49-6.3-3.66-9.58C437.47,483.09,435.4,477.3,432.79,473.19Z"/>
        <path class="cls-1" d="M483.75,493a33.88,33.88,0,0,0-.89,5.3h.47a35.61,35.61,0,0,1,.88-5.21c1-7.52,8.35-14.91,15.79-16.54V476C492.26,477.63,484.79,485.12,483.75,493Z"/>
        <path class="cls-1" d="M496.26,494.33a6.82,6.82,0,0,0-1.38,3.95h.47a6.24,6.24,0,0,1,1.28-3.66,4.7,4.7,0,0,1,3.37-1.9v-.47A5.12,5.12,0,0,0,496.26,494.33Z"/>
        <path class="cls-1" d="M487.4,153.25c-7.52-1.34-15.29-2.74-22.63-.9-7,1.76-12.37,6.07-18.1,10.63-2.07,1.65-4.21,3.34-6.44,5l-.9.63c-3.91,2.77-7.94,5.63-11.73,8.72l-.06.05c-5.14,5.29-5.56,12.6-5.31,19,0,1.17.07,2.39.12,3.61.26,7.6.54,15.48,1.77,19.93,1.46,5.28,4.49,9.51,7.42,13.63,4.46,6.27,8.69,12.18,7.27,21.15a26.81,26.81,0,0,1-.93,3.68,23.12,23.12,0,0,0-1.11,4.88,14.61,14.61,0,0,0,.42,4,20.73,20.73,0,0,1,.39,2.57,26.48,26.48,0,0,1-3,13.26,30.13,30.13,0,0,1-21.44,15.59c-3.05.58-6.14,1.3-9.14,2a109.82,109.82,0,0,1-15.56,2.92c-1.23.08-2.4.19-3.58.28-10.33.84-19.23,1.54-29.16,6.17-2.4,1.13-5,2.06-7.54,3-7.61,2.72-15.49,5.53-18.77,13.75a112.89,112.89,0,0,1-7.28,14.09c-3.74,6.46-7.62,13.12-9.42,20.75-1.37,5.76-.51,11.6.35,17.27.12.72.21,1.45.31,2.17,1.12,7.76,1.6,14.18.26,20.34-1.59,7.42-6.28,11-17.91,13.77-10.87,2.58-15.38,4.09-17.65,15.7-.38,2.11-.75,4.26-1.1,6.35-2.37,13.74-4.58,26.72-16.81,30.33-3.35,1-8.6.81-12.11-1.49a7.87,7.87,0,0,1-3.64-5.82,60.27,60.27,0,0,1-.39-6.07c-.12-3.49-.23-6.79-1.19-9.58-2.05-5.91-7.84-9.46-14.53-13.6-3-1.87-6.14-3.79-9.14-6.08-2.17-1.65-4-3.28-5.86-4.83-4.88-4.21-9.09-7.82-15.95-9.33a74.68,74.68,0,0,0-12.91-1.25c-9.12-.38-17.74-.73-20-6.49-.83-2.1-.33-5.23.12-8,0-.33.11-.67.14-1,.18-1.11.33-2.28.51-3.51,1.26-9.3,3-22,11.72-23.32,3.07-.45,6.79-.09,10.68.32,1.36.12,2.74.28,4.13.37a71,71,0,0,0,27.38-3.06c6.16-1.87,11-5.4,15.79-8.8,4.56-3.28,8.88-6.37,14.14-8,2-.62,4.21-1.11,6.56-1.63,8.48-1.86,18.09-4,20.85-13.55,2.19-7.68-1.3-16-4.69-24a73.34,73.34,0,0,1-4-11c-2-8.32,1.61-17.74,4.77-26,.65-1.74,1.26-3.35,1.84-5,1.91-5.45,4.51-8.84,9.84-13,8.13-6.25,13-13,18.2-24.86.36-.88.73-1.7,1.12-2.56,1.61-3.74,3.14-7.25,4.95-11.9a52.25,52.25,0,0,1,6.71-8.47c3.37-3.65,6.3-6.81,7.36-12.28.21-1,.31-2.09.43-3.21a34.06,34.06,0,0,1,.51-3.81c1.2-5.84,5.3-9.26,9.27-12.56,3.42-2.84,7-5.79,8.33-10.19,1.25-4,1.28-6.56.88-11.13-.86-9.4-4.07-16.63-8.83-19.86-3.12-2.1-6.86-2.52-11.05-1.26-8.33,2.51-21,18.4-23.47,21.56-.58.74-1.14,1.49-1.7,2.21-3.85,5.06-7.46,9.81-12.76,11.79-4.6,1.72-10.7,2.37-17.16,3.09-3.89.42-8,.86-11.73,1.56-15.36,2.83-26.23,13.55-28.34,28-.14,1-.19,2.09-.26,3.23a21.43,21.43,0,0,1-1.09,6.88c-1.54,3.7-5.44,4.52-9.54,5.42-1.28.28-2.6.56-3.85.93-4.45,1.31-8.31,3.86-12.08,6.35-4.51,3-9.16,6-15,7.19a67,67,0,0,1-7.6.92,48.79,48.79,0,0,0-9.77,1.44c-8.81,2.71-6.74,11-5.09,17.63.37,1.43.7,2.79.91,4,1.11,6.25.63,13-1.49,21.14-.44,1.72-.79,3.41-1.12,5-.91,4.37-1.79,8.51-4.32,12.65-2.09,3.46-3.93,4.26-7,5.61-.82.36-1.74.76-2.74,1.27-9.15,4.52-16.09,10.72-23.4,17.28l-1.58,1.4a86.26,86.26,0,0,0-6.65,6.91,75.44,75.44,0,0,1-7.4,7.57c-4.55,3.78-10.16,6.7-17.62,9.14-5.15,1.68-10.45,3.12-15.54,4.52A222.68,222.68,0,0,0,51,353.93c-6.84,2.74-22,4.69-31.31,1.62C14.86,354,8.84,350,1.26,343.55c-.45-.37-.87-.74-1.26-1.13v1.9l.35.31c7.81,6.7,13.84,10.58,18.93,12.26,9.93,3.27,25.39,1.08,32.28-1.66A219.93,219.93,0,0,1,75,347.84c5.12-1.38,10.4-2.84,15.61-4.54,7.63-2.51,13.37-5.49,18.05-9.4a69.7,69.7,0,0,0,7.58-7.71,88.53,88.53,0,0,1,6.53-6.79l1.58-1.42c7.26-6.49,14.1-12.61,23.09-17.05,1-.47,1.89-.89,2.7-1.24,3.07-1.36,5.28-2.34,7.61-6.16,2.63-4.35,3.53-8.62,4.48-13.11.33-1.6.7-3.26,1.12-4.93,2.18-8.4,2.65-15.31,1.51-21.75-.23-1.28-.56-2.65-.93-4.11-1.69-6.7-3.39-13.63,4.12-16a50.86,50.86,0,0,1,9.47-1.37c2.67-.25,5.43-.48,7.78-.93,6.1-1.23,10.87-4.39,15.47-7.42,3.84-2.53,7.46-4.91,11.7-6.18,1.21-.35,2.49-.63,3.76-.89,4.29-.93,8.7-1.88,10.54-6.23A22.78,22.78,0,0,0,228,203.3a27.31,27.31,0,0,1,.27-3.12c2-13.81,12.44-24.09,27.19-26.81,3.72-.69,7.75-1.12,11.63-1.54,6.54-.71,12.74-1.37,17.49-3.16,5.67-2.13,9.42-7.06,13.39-12.25.56-.73,1.1-1.47,1.66-2.19,6.69-8.6,16.65-19.25,22.78-21.11,3.79-1.12,7.1-.75,9.86,1.11,4.42,3,7.42,9.82,8.22,18.82.39,4.21.44,6.62-.8,10.55s-4.49,6.7-7.9,9.56c-4.16,3.46-8.44,7-9.73,13.37a37.46,37.46,0,0,0-.55,3.91c-.1,1.1-.23,2.14-.4,3.11-1,5.06-3.79,8.08-7,11.59a50.76,50.76,0,0,0-6.93,8.74l-.05.12c-1.79,4.65-3.34,8.18-4.95,11.9-.39.86-.76,1.68-1.13,2.56-5,11.63-9.84,18.23-17.73,24.31-5.62,4.3-8.32,7.86-10.34,13.62-.57,1.58-1.19,3.21-1.84,4.93-3.24,8.49-6.91,18.1-4.8,26.87a74.76,74.76,0,0,0,4.07,11.18c3.29,7.79,6.72,15.88,4.63,23.11-2.51,8.75-11.69,10.77-19.77,12.54-2.39.52-4.65,1-6.69,1.65-5.47,1.72-10.1,5-14.54,8.23-4.65,3.33-9.44,6.8-15.39,8.61a69.83,69.83,0,0,1-26.86,3c-1.37-.09-2.75-.23-4.07-.37-4-.38-7.8-.75-11-.29-9.79,1.42-11.58,14.77-12.93,24.5-.16,1.25-.32,2.39-.48,3.48-.07.31-.12.65-.17,1-.46,2.95-1,6.28,0,8.74,2.65,6.59,11.68,7,21.3,7.35a77.08,77.08,0,0,1,12.68,1.21c6.49,1.44,10.39,4.81,15.32,9,1.82,1.58,3.72,3.2,5.91,4.9,3.05,2.31,6.23,4.28,9.28,6.16,6.46,4,12,7.42,13.91,12.86.9,2.59,1,5.79,1.13,9.17a61.24,61.24,0,0,0,.38,6.21,9.41,9.41,0,0,0,4.28,6.81c3.88,2.51,9.6,2.74,13.27,1.67C273.6,465,276,451,278.32,437.44c.35-2.09.73-4.23,1.12-6.3,2.05-10.65,5.86-12.09,16.58-14.61,10.26-2.42,17-5.76,19-14.84,1.37-6.37.92-12.95-.23-20.83-.1-.74-.22-1.45-.33-2.19-.86-5.77-1.68-11.25-.37-16.74,1.74-7.4,5.58-14,9.27-20.35a109.21,109.21,0,0,0,7.36-14.28c3-7.65,10.29-10.25,17.95-13,2.56-.91,5.21-1.86,7.67-3,9.68-4.53,18.49-5.23,28.67-6l3.57-.28a108.3,108.3,0,0,0,15.78-2.95c3-.68,6.07-1.44,9.07-2a31.59,31.59,0,0,0,22.44-16.35,27.33,27.33,0,0,0,3.15-14,23.42,23.42,0,0,0-.42-2.74,12.86,12.86,0,0,1-.38-3.63,20.17,20.17,0,0,1,1-4.58,27.41,27.41,0,0,0,1-3.89c1.49-9.53-3.09-16-7.52-22.18-2.86-4-5.83-8.14-7.23-13.18-1.2-4.31-1.44-12.1-1.7-19.61,0-1.21-.09-2.42-.14-3.61-.25-6.14.17-13.07,4.89-18,3.75-3,7.75-5.91,11.61-8.65l.92-.65c2.26-1.59,4.42-3.31,6.5-5,5.6-4.48,10.92-8.69,17.6-10.37,7-1.77,14.32-.47,22,.91,2.35.42,4.75.88,7.16,1.2a35,35,0,0,1,5.68,1.28v-1.48a35.48,35.48,0,0,0-5.49-1.19C492.14,154.11,489.72,153.68,487.4,153.25Z"/>
        <path class="cls-1" d="M480.18,258.53c-2.41.17-4.9.33-7.5.66-6.43.79-8.21,3-11.12,6.67-.44.54-.87,1.12-1.4,1.72-.62.76-1.21,1.44-1.79,2.12-3.53,4.14-6.33,7.42-6.61,14.35-.25,5.92,2.33,9.51,5.31,13.67.46.61.91,1.25,1.39,1.91s.82,1.2,1.29,1.83c5,7,12.57,17.66,8.27,25.49-4.84,8.82-20.42,5.81-28.77,4.17l-.81-.14c-.9-.17-1.81-.35-2.72-.56-7-1.44-14.32-2.94-17.6,1.56L417,333.69c-5.06,7.47-9.83,14.52-11.81,22.64A68.88,68.88,0,0,0,404,380.44c.64,5.18,3.42,10.4,6.13,15.46,3.86,7.22,7.47,14,4.91,20.19-2.39,5.68-7.25,10.14-11.95,14.47a78.87,78.87,0,0,0-7.93,8c-1.1,1.37-2.23,2.7-3.31,4-4.58,5.44-8.88,10.58-11.72,17.1-.69,1.55-1.37,3.09-2.06,4.58a94.89,94.89,0,0,0-4.54,11.11c-2.37,7.49-4.09,15.25-5.74,22.74a.74.74,0,0,1,0,.17h1.45c1.62-7.42,3.3-15.12,5.65-22.49a91.54,91.54,0,0,1,4.48-10.93l2.08-4.61c2.74-6.35,7-11.41,11.5-16.77,1.08-1.3,2.22-2.65,3.31-4A78.31,78.31,0,0,1,404,431.6c4.82-4.42,9.81-9,12.28-15,2.84-6.77-1.12-14.21-5-21.38-2.63-4.95-5.36-10.06-6-15a67.17,67.17,0,0,1,1.16-23.61c1.91-7.88,6.63-14.84,11.59-22.2l1.14-1.66c2.74-3.77,9.56-2.37,16.16-1,.93.17,1.84.38,2.74.54l.81.16c8.71,1.68,24.93,4.82,30.28-4.88,4.73-8.63-3.14-19.66-8.35-27-.48-.65-.9-1.26-1.32-1.84s-.91-1.3-1.37-1.91c-2.95-4.13-5.3-7.36-5.07-12.79.26-6.44,2.79-9.39,6.3-13.5.6-.68,1.19-1.38,1.82-2.13s1-1.2,1.39-1.74c2.9-3.63,4.35-5.44,10.21-6.16,2.56-.3,5-.49,7.4-.65a110.37,110.37,0,0,0,11.32-1.21c3-.53,5.74-1.19,8.42-2v-1.45c-2.75.77-5.61,1.47-8.63,2C487.32,258,483.68,258.28,480.18,258.53Z"/>
        <path class="cls-1" d="M352.37,491.56c8.86-4.61,12.81-13.3,15.51-21.17.7-2,1.35-4.06,2-6,.72-2.23,1.46-4.52,2.23-6.77a110.78,110.78,0,0,1,7.42-17.49l.47-.83a22.65,22.65,0,0,1,4.21-5.93c2.39-2.19,3.51-4.52,4.95-7.47l.46-.91a53.46,53.46,0,0,1,3.36-5.62,48.73,48.73,0,0,0,3.85-6.61c2-4.49.7-8.88-.56-13.12-.43-1.46-.86-3-1.16-4.41-1.12-5.61-.28-10.61.61-15.93.39-2.33.79-4.75,1-7.24s.3-5.33.35-7.95a82.82,82.82,0,0,1,.58-9.81c.58-4.07,2.18-7.43,3.7-10.68a41.89,41.89,0,0,0,2.83-7c1-3.51,1.17-9.88-2.07-13.05-2.27-2.18-5.48-2.27-8.32-2.34-.84,0-1.67-.07-2.44-.14a25.92,25.92,0,0,1-6-1.51,33.69,33.69,0,0,0-5.57-1.47c-6.37-.95-13.86.12-17.78.83-5.79,1.08-14.17,3.91-18.28,7.05-3.72,2.86-6.67,8.37-9.28,13.24-1.1,2.11-2.17,4.07-3.21,5.72-.3.48-.61,1-.91,1.43-4.93,7.66-9.6,14.92-8.28,30.35.28,3.29,1.33,14.59,3.3,21.15,1.14,3.86,3.28,6.93,5.35,9.88,3,4.28,5.58,8,4.66,13.19a10.65,10.65,0,0,1-4.08,7,8.57,8.57,0,0,1-6.6,1.27,30.71,30.71,0,0,1-5.12-1.62,30.17,30.17,0,0,0-5.14-1.66c-5.14-1-8.65-.92-13,.26-12.52,3.39-15.45,15.46-18.54,28.23-.28,1.14-.56,2.28-.83,3.42-3.26,13-8.26,21.07-17.82,28.82-.79.63-1.56,1.21-2.32,1.74-.49.39-1,.72-1.4,1.07-4.4,3.39-7.42,5.88-9.93,8.84h1.86a68.38,68.38,0,0,1,8.93-7.73c.42-.36.89-.69,1.37-1,.77-.56,1.56-1.14,2.38-1.79,9.83-8,14.95-16.24,18.28-29.58.28-1.12.56-2.28.85-3.42,3-12.37,5.82-24,17.54-27.19a24.72,24.72,0,0,1,12.32-.25,29.42,29.42,0,0,1,4.91,1.58,29,29,0,0,0,5.38,1.7,9.93,9.93,0,0,0,7.65-1.51,12.1,12.1,0,0,0,4.67-7.89c1-5.79-1.86-9.91-4.91-14.25-2-2.86-4.09-5.82-5.14-9.45-1.91-6.46-3-17.63-3.27-20.92-1.26-14.93,3.29-22,8.07-29.43.32-.49.62-.95.93-1.46,1.06-1.68,2.14-3.67,3.29-5.79,2.52-4.75,5.38-10.12,8.87-12.79,3.93-3,12-5.75,17.69-6.77,3.8-.72,11.12-1.75,17.31-.84a32.36,32.36,0,0,1,5.34,1.44,30.53,30.53,0,0,0,6.33,1.56c.82.07,1.67.1,2.53.12,2.7.07,5.49.18,7.35,2,2.82,2.72,2.54,8.58,1.72,11.65a39.05,39.05,0,0,1-2.74,6.77c-1.58,3.34-3.23,6.81-3.84,11.09a85.88,85.88,0,0,0-.57,10c-.08,2.59-.14,5.28-.36,7.84s-.64,4.84-1,7.17c-.86,5.2-1.77,10.56-.6,16.41.32,1.54.77,3.07,1.21,4.52,1.23,4.2,2.41,8.16.62,12.16a46.72,46.72,0,0,1-3.74,6.42,59.42,59.42,0,0,0-3.47,5.76l-.44.93c-1.37,2.8-2.46,5-4.63,7.05a22.86,22.86,0,0,0-4.5,6.3l-.47.8a109.81,109.81,0,0,0-7.51,17.72c-.79,2.25-1.52,4.57-2.24,6.79-.64,2-1.3,4-2,6-2.63,7.61-6.42,16-14.82,20.37a24.54,24.54,0,0,0-4.34,3.14c-2.19,1.82-4.49,3.7-6.94,4-4.48.48-7.51-3.12-10.42-6.59-.85-1-1.64-2-2.46-2.81-2.3-2.32-4.56-4.88-5.72-7.65a41.38,41.38,0,0,1-2.46-7.91c-.31-1.51-.61-3.13-.93-4.83-2-11-4.54-24.63-17.37-23.72l-.14,0-.14.05c-5.89,3-7.93,10.16-9.71,16.46l-.18.63c-3.07,10.83-5.89,19.72-11.58,27.37-1.16,1.53-2.38,3-3.58,4.42-1.52,1.83-3,3.62-4.23,5.42h1.72c1.06-1.49,2.3-3,3.58-4.52s2.44-2.92,3.62-4.5c5.86-7.82,8.7-16.84,11.82-27.82l.18-.61c1.68-6,3.61-12.76,8.89-15.53,11.42-.74,13.72,11.67,15.76,22.6.31,1.72.61,3.31.94,4.86a43.86,43.86,0,0,0,2.51,8.15c1.27,3,3.63,5.67,6,8.09.77.81,1.56,1.74,2.38,2.7,2.16,2.58,4.5,5.39,7.6,6.58h6.18a22.77,22.77,0,0,0,5.56-3.73A23.81,23.81,0,0,1,352.37,491.56Z"/>
        <path class="cls-1" d="M11.86,264.32c8.46-2.78,16.47-5.39,28.09-3,10.09,2.05,20.58,2.12,28.81.23,13.36-3.11,13.92-14,14.77-30.39,0-.89.1-1.79.15-2.65a30.87,30.87,0,0,0,0-7.31c-1.18-8.35-9.11-11.23-16.7-12.93-5.44-1.23-11-1.14-16.3-1.07a78,78,0,0,1-11.35-.35c-3.39-.42-5.67-1.49-7-3.23-2.16-2.9-1.65-7.44-.79-13.07,2.54-16.18-1.14-24-7.88-31.4-6-6.6-14.21-9.41-23.72-11.23v1.42c9.16,1.77,17,4.52,22.67,10.75,6.47,7.09,10,14.62,7.56,30.23-.93,6-1.46,10.81,1,14.13,1.55,2.06,4.14,3.31,7.92,3.8a86,86,0,0,0,11.56.35c5.24-.07,10.68-.16,16,1,7.47,1.68,14.54,4.26,15.63,11.77a33.55,33.55,0,0,1,0,7c0,.88-.14,1.77-.18,2.68-.91,17.71-1.87,26.34-13.68,29.09-8,1.86-18.32,1.77-28.21-.23-12-2.42-20.14.23-28.81,3.07-3,1-6.12,2-9.38,2.78l-2,.47v1.44c.77-.2,1.56-.35,2.35-.56C5.68,266.33,8.82,265.3,11.86,264.32Z"/>
        <path class="cls-1" d="M411.11,149a1.35,1.35,0,0,1-.27-.47,2.28,2.28,0,0,0-.77-1.18c-1.39-1-4.47-1.53-7.75-2l-2.85-.45c-10.56-1.93-20.51-6.65-30.15-11.23-3.34-1.58-6.78-3.19-10.18-4.69l-1.28-.56c-9.25-4-17.21-7.49-24.09-15.05-5.63-6.19-9-12.93-9.89-19.51-1.37-10.59,2.58-15.26,6.77-20.21,1.21-1.44,2.46-2.91,3.6-4.56,2-2.86,3.63-6.16,2.22-10.88-1.31-4.45-5.17-7.54-9.66-11.15-.63-.53-1.3-1.07-2-1.62a96.54,96.54,0,0,1-8.33-7.93c-4.55-4.7-8.47-8.75-13.9-10.44-5.08-1.59-11-.59-16.29,2.74-5.48,3.46-9.37,8.88-10.13,14.12a44.13,44.13,0,0,0-.12,7.48,36.39,36.39,0,0,1-.33,8.86c-1.65,7.29-9,11.23-15.21,13.8a175.26,175.26,0,0,0-18.6,9.67c-8.79,5-17.07,9.76-25.26,11.81-8.77,2.21-17.13-.56-24.51-3a71,71,0,0,0-7.91-2.35c-8.34-1.77-14,1.14-15.6,8a51,51,0,0,0-.9,6.66c-.14,1.53-.29,3.11-.5,4.62-1.18,7.42-4.2,13.52-7.14,19.42-2.48,5-5,10.17-6.43,16.07a78.29,78.29,0,0,0-1.22,9.35,83.05,83.05,0,0,1-1.58,11.19,72.8,72.8,0,0,1-5.63,13.76c-1.39,2.87-2.86,5.86-4.16,9.08-.37.92-.72,1.85-1.06,2.74-2.54,6.77-4.73,12.61-14.24,10.91-10-1.75-18.72-8.93-21.25-17.45-1.82-6.11-2.35-16.9-1.17-23.53,1.37-7.75,5.38-18.6,12.09-23.68a34.5,34.5,0,0,1,7.94-4.3c4.06-1.77,8.27-3.6,12.09-8.67,4.18-5.52,7-18.26,4.58-30a61.21,61.21,0,0,0-4.47-12.54,97.53,97.53,0,0,1-4.42-11.37A33.81,33.81,0,0,1,130.49,58a60.54,60.54,0,0,1,1.91-7.43l.43-1.36c2.59-8.78,5.85-19.67,15.08-21.79,4.88-1.11,8.9,2.26,13.14,5.84,2.76,2.32,5.62,4.72,8.9,6,7.52,3.06,15.72.67,24.4-1.89,3-.88,6.07-1.79,9.21-2.49,3.51-.81,7.07-1.3,10.49-1.77a75.93,75.93,0,0,0,14.39-2.92c6.82-2.36,11.21-6.87,15.16-15.52,3.28-7.21,5.59-11.2,8.84-14.74h-1.86c-2.91,3.44-5.21,7.46-8.25,14.14C238.56,22.42,234.4,26.7,228,28.91a75.09,75.09,0,0,1-14.09,2.88c-3.48.47-7,1-10.62,1.81-3.21.72-6.31,1.63-9.33,2.51-8.4,2.47-16.39,4.82-23.46,1.93-3.07-1.25-5.84-3.58-8.52-5.83-4.32-3.63-8.79-7.38-14.35-6.1-10,2.31-13.41,13.63-16.13,22.73l-.4,1.37a51.87,51.87,0,0,0-1.95,7.62,34.84,34.84,0,0,0,.72,12.92,95.51,95.51,0,0,0,4.48,11.51,63,63,0,0,1,4.4,12.28c2.33,11.23-.44,23.74-4.33,28.88-3.62,4.77-7.48,6.46-11.55,8.25a36.91,36.91,0,0,0-8.23,4.45c-7,5.34-11.19,16.57-12.63,24.57-1.23,6.94-.68,17.77,1.2,24.15,2.68,9,11.87,16.62,22.36,18.48,10.67,1.86,13.27-5.09,15.81-11.81.33-.89.69-1.83,1-2.72,1.28-3.17,2.73-6.14,4.14-9,2.26-4.67,4.4-9,5.7-14a80.16,80.16,0,0,0,1.61-11.42,82,82,0,0,1,1.21-9.18c1.35-5.73,3.77-10.59,6.32-15.75,3-6,6-12.21,7.24-19.84.25-1.55.39-3.14.53-4.69a50.45,50.45,0,0,1,.88-6.49c1.88-8.16,9.54-7.8,13.94-6.88a67,67,0,0,1,7.76,2.29c7.56,2.54,16.12,5.38,25.3,3.07,8.35-2.13,17.12-7.13,25.61-12a170.59,170.59,0,0,1,18.44-9.58c6.53-2.72,14.25-6.86,16-14.8a36.46,36.46,0,0,0,.4-9.22,39,39,0,0,1,.09-7.21c.7-4.86,4.33-9.89,9.47-13.14,4.93-3.1,10.46-4.05,15.16-2.58,5.05,1.57,8.88,5.51,13.28,10.07a104.61,104.61,0,0,0,8.46,8c.66.56,1.33,1.1,2,1.61,4.45,3.6,8,6.43,9.19,10.48,1.28,4.35-.37,7.3-2,9.66-1.09,1.62-2.36,3.06-3.53,4.48-4.19,4.93-8.53,10.05-7.11,21.28.9,6.87,4.44,13.86,10.27,20.3,7.07,7.77,15.19,11.29,24.58,15.37l1.26.56c3.37,1.47,6.81,3.1,10.14,4.66,9.72,4.62,19.77,9.37,30.51,11.34.89.17,1.86.31,2.89.47,2.81.42,6,.91,7.11,1.77.16.09.21.27.31.55a3.57,3.57,0,0,0,.34.68,12.52,12.52,0,0,1-5.62,8.65c-1.91,1.24-3.56,1.16-5.65,1-.59-.05-1.19-.07-1.84-.08-7.86-.07-16.35,7.79-19.87,13.38a72.31,72.31,0,0,0-4.83,9.93c-.81,1.88-1.61,3.81-2.49,5.62-5.12,10.54-10.6,17.29-15.84,19.51a45.11,45.11,0,0,0-4.11,2.07,30.83,30.83,0,0,1-5.24,2.49,67.1,67.1,0,0,1-7.46,1.84,66.52,66.52,0,0,0-7.47,1.81c-14,4.54-21,16.08-27.28,32l-.28.74c-.62,1.58-1.27,3.23-2,4.84a47.72,47.72,0,0,1-6.74,9.65c-3.3,4-6.38,7.74-7.35,12.49a53.15,53.15,0,0,0-.72,9.55c0,1.94-.05,3.94-.21,5.94-.47,5.44-1,11.6,2.21,17.2,2.21,3.84,4.49,7.4,6.88,11.17l1.16,1.85a40.06,40.06,0,0,1,2.59,5,29.51,29.51,0,0,0,4.62,7.71l.19.22h.3c.19,0,.42,0,.67,0a5.39,5.39,0,0,0,1.51-.16l.15-.05.14-.12a38.48,38.48,0,0,0,5.3-7.44,39,39,0,0,1,5.46-7.51,108.11,108.11,0,0,1,14.59-12.35,92.53,92.53,0,0,1,33.88-14.63c10.91-2.21,23.58-4.33,35.7-1.67a.11.11,0,0,0,.07,0l.48.11h.14c2.8.45,4.07-.46,4.07-.46s1.23-1.9-.6-1.28a7.76,7.76,0,0,1-3.61.28h0c-12.47-2.81-25.39-.63-36.51,1.65a94,94,0,0,0-34.4,14.82A110,110,0,0,0,315,318.05a40.66,40.66,0,0,0-5.67,7.81,38.71,38.71,0,0,1-5,7c-.27,0-.74.05-1.25.05a28.94,28.94,0,0,1-4.19-7.14,39.88,39.88,0,0,0-2.67-5.14l-1.17-1.86c-2.37-3.77-4.64-7.3-6.83-11.14-3-5.19-2.49-11.12-2-16.34.17-2.07.21-4.1.23-6.07a49.75,49.75,0,0,1,.68-9.28c.9-4.4,3.9-8,7.05-11.87a49.06,49.06,0,0,0,6.93-9.93c.79-1.67,1.46-3.34,2.09-5l.26-.7c6.11-15.56,12.93-26.82,26.43-31.19a57.23,57.23,0,0,1,7.31-1.77,78.56,78.56,0,0,0,7.63-1.88,32.53,32.53,0,0,0,5.49-2.62,38.33,38.33,0,0,1,3.95-2c5.63-2.4,11.21-9.21,16.56-20.21.9-1.84,1.72-3.79,2.51-5.68a70.55,70.55,0,0,1,4.74-9.72c3.35-5.34,11.37-12.81,18.67-12.72.61,0,1.21,0,1.78.07,2.16.12,4.2.24,6.48-1.27a13.94,13.94,0,0,0,6.3-10v-.33Z"/>
        <path class="cls-1" d="M500,293.74c-4.47-2.07-6.7-3.88-6.72-6.25s2.28-5.33,6.72-7.56v-.54c-4.79,2.36-7.23,5.45-7.19,8.12s2.42,4.56,7.19,6.74Z"/>
      </g>
    </g>
  </g>
</svg>
