<svg width="258" height="269" viewBox="0 0 258 269" fill="none" xmlns="http://www.w3.org/2000/svg">
<path d="M189.861 82.7758C191.475 81.922 192.496 80.2559 192.523 78.4298C192.55 76.6036 191.579 74.9081 189.991 74.0069L112.802 30.2174C111.272 29.3493 109.398 29.3493 107.868 30.2174L30.6798 74.0069C29.0913 74.9081 28.1205 76.6036 28.1475 78.4298C28.1745 80.2559 29.195 81.922 30.8095 82.7758L107.998 123.596C109.46 124.37 111.21 124.37 112.673 123.596L189.861 82.7758Z" fill="#8ED79A" stroke="#8ED79A" stroke-width="10" stroke-linecap="round" stroke-linejoin="round"/>
<path d="M192.523 78.3558C192.523 76.6026 191.605 74.9775 190.103 74.0729C188.602 73.1682 186.736 73.1162 185.186 73.9359L107.998 114.757C106.36 115.623 105.335 117.324 105.335 119.177L105.335 212.693C105.335 214.526 106.338 216.212 107.949 217.087C109.56 217.962 111.52 217.885 113.057 216.887L190.246 166.789C191.666 165.867 192.523 164.288 192.523 162.595L192.523 78.3558Z" fill="#7FAECF" stroke="#7FAECF" stroke-width="10" stroke-linecap="round" stroke-linejoin="round"/>
<path d="M115.335 119.177C115.335 117.324 114.311 115.623 112.673 114.757L35.4845 73.9359C33.9346 73.1162 32.0688 73.1682 30.567 74.0729C29.0652 74.9775 28.147 76.6026 28.147 78.3558V162.966C28.147 164.666 29.0103 166.249 30.4391 167.169L107.627 216.896C109.166 217.887 111.122 217.959 112.729 217.083C114.336 216.207 115.335 214.523 115.335 212.693V119.177Z" fill="#CFA07F" stroke="#CFA07F" stroke-width="10" stroke-linecap="round" stroke-linejoin="round"/>
<path d="M115.335 203.487L115.335 122.188L182.523 86.6562L182.523 159.879L115.335 203.487Z" fill="#7FAECF" stroke="#7FAECF" stroke-width="10" stroke-linecap="round" stroke-linejoin="round"/>
<path d="M38.147 86.6562L105.335 122.188V203.524L38.147 160.239V86.6562Z" fill="#CFA07F" stroke="#CFA07F" stroke-width="10" stroke-linecap="round" stroke-linejoin="round"/>
<path d="M110.335 40.3149L177.119 78.2019L110.335 113.52L43.5513 78.2019L110.335 40.3149Z" fill="#8ED79A" stroke="#8ED79A" stroke-width="10" stroke-linecap="round" stroke-linejoin="round"/>
<path d="M33.147 78.3558L110.335 34.5663L187.523 78.3558V162.966L110.335 213.064L33.147 162.966V78.3558Z" stroke="black" stroke-width="10" stroke-linecap="round" stroke-linejoin="round"/>
<path d="M80.7313 149.8C77.2113 149.8 73.8246 149.187 70.5713 147.96C67.3179 146.733 64.6513 144.947 62.5713 142.6C60.5446 140.2 59.5312 137.347 59.5312 134.04C59.5312 133.24 59.6113 132.36 59.7713 131.4C59.8779 130.92 60.1179 130.52 60.4913 130.2C60.8646 129.827 61.2913 129.64 61.7713 129.64H72.6513C73.3979 129.64 73.9313 129.827 74.2513 130.2C74.5713 130.573 74.7846 131.133 74.8913 131.88C74.8913 134.12 75.4513 135.747 76.5713 136.76C77.6913 137.773 79.3979 138.28 81.6913 138.28C87.2913 138.28 90.8379 134.867 92.3313 128.04L97.2113 104.92H71.3713C70.7846 104.92 70.3313 104.733 70.0113 104.36C69.7446 103.987 69.6646 103.507 69.7713 102.92L71.4513 95C71.5579 94.4133 71.8513 93.9333 72.3313 93.56C72.8113 93.1867 73.3179 93 73.8513 93H112.571C113.158 93 113.611 93.1867 113.931 93.56C114.198 93.8267 114.331 94.1733 114.331 94.6C114.331 94.7067 114.305 94.84 114.251 95L107.131 128.44C105.638 135.533 102.731 140.867 98.4113 144.44C94.1446 148.013 88.2513 149.8 80.7313 149.8ZM121.531 149.8C114.864 149.8 109.744 148.36 106.171 145.48C102.597 142.6 100.811 138.44 100.811 133C100.811 131.507 100.971 129.88 101.291 128.12C102.037 123.747 103.077 118.84 104.411 113.4C106.064 106.68 109.477 101.48 114.651 97.8C119.877 94.0667 126.251 92.2 133.771 92.2C138.464 92.2 142.437 92.92 145.691 94.36C148.944 95.7467 151.371 97.56 152.971 99.8C154.624 102.04 155.451 104.44 155.451 107C155.451 107.427 155.397 108.067 155.291 108.92C155.184 109.4 154.917 109.8 154.491 110.12C154.117 110.44 153.664 110.6 153.131 110.6H141.451C140.917 110.6 140.517 110.52 140.251 110.36C139.984 110.2 139.771 109.907 139.611 109.48C139.291 107.933 138.491 106.6 137.211 105.48C135.984 104.307 134.037 103.72 131.371 103.72C124.971 103.72 120.917 107.08 119.211 113.8C118.251 117.587 117.264 122.227 116.251 127.72C116.091 128.84 116.011 129.827 116.011 130.68C116.011 135.747 118.757 138.28 124.251 138.28C127.397 138.28 130.091 137.48 132.331 135.88C134.571 134.227 136.037 131.72 136.731 128.36L137.051 126.84H129.531C128.944 126.84 128.491 126.653 128.171 126.28C127.904 125.853 127.824 125.347 127.931 124.76L129.211 118.84C129.317 118.253 129.611 117.773 130.091 117.4C130.571 116.973 131.104 116.76 131.691 116.76H151.851C152.437 116.76 152.891 116.947 153.211 117.32C153.424 117.64 153.531 117.987 153.531 118.36C153.531 118.52 153.504 118.68 153.451 118.84L151.531 127.96C150.517 132.493 148.624 136.413 145.851 139.72C143.077 142.973 139.584 145.48 135.371 147.24C131.211 148.947 126.597 149.8 121.531 149.8Z" fill="black"/>
</svg>
