<svg width="258" height="269" viewBox="0 0 258 269" fill="none" xmlns="http://www.w3.org/2000/svg">
<path d="M189.861 82.7758C191.475 81.922 192.496 80.2559 192.523 78.4298C192.55 76.6036 191.579 74.9081 189.991 74.0069L112.802 30.2174C111.272 29.3493 109.398 29.3493 107.868 30.2174L30.6798 74.0069C29.0913 74.9081 28.1205 76.6036 28.1475 78.4298C28.1745 80.2559 29.195 81.922 30.8095 82.7758L107.998 123.596C109.46 124.37 111.21 124.37 112.673 123.596L189.861 82.7758Z" fill="#8ED79A" stroke="#8ED79A" stroke-width="10" stroke-linecap="round" stroke-linejoin="round"/>
<path d="M192.523 78.3558C192.523 76.6026 191.605 74.9775 190.103 74.0729C188.602 73.1682 186.736 73.1162 185.186 73.9359L107.998 114.757C106.36 115.623 105.335 117.324 105.335 119.177L105.335 212.693C105.335 214.526 106.338 216.212 107.949 217.087C109.56 217.962 111.52 217.885 113.057 216.887L190.246 166.789C191.666 165.867 192.523 164.288 192.523 162.595L192.523 78.3558Z" fill="#7FAECF" stroke="#7FAECF" stroke-width="10" stroke-linecap="round" stroke-linejoin="round"/>
<path d="M115.335 119.177C115.335 117.324 114.311 115.623 112.673 114.757L35.4845 73.9359C33.9346 73.1162 32.0688 73.1682 30.567 74.0729C29.0652 74.9775 28.147 76.6026 28.147 78.3558V162.966C28.147 164.666 29.0103 166.249 30.4391 167.169L107.627 216.896C109.166 217.887 111.122 217.959 112.729 217.083C114.336 216.207 115.335 214.523 115.335 212.693V119.177Z" fill="#CFA07F" stroke="#CFA07F" stroke-width="10" stroke-linecap="round" stroke-linejoin="round"/>
<path d="M115.335 203.487L115.335 122.188L182.523 86.6562L182.523 159.879L115.335 203.487Z" fill="#7FAECF" stroke="#7FAECF" stroke-width="10" stroke-linecap="round" stroke-linejoin="round"/>
<path d="M38.147 86.6562L105.335 122.188V203.524L38.147 160.239V86.6562Z" fill="#CFA07F" stroke="#CFA07F" stroke-width="10" stroke-linecap="round" stroke-linejoin="round"/>
<path d="M110.335 40.3149L177.119 78.2019L110.335 113.52L43.5513 78.2019L110.335 40.3149Z" fill="#8ED79A" stroke="#8ED79A" stroke-width="10" stroke-linecap="round" stroke-linejoin="round"/>
<path d="M33.147 78.3558L110.335 34.5663L187.523 78.3558V162.966L110.335 213.064L33.147 162.966V78.3558Z" stroke="black" stroke-width="10" stroke-linecap="round" stroke-linejoin="round"/>
<path d="M85.5203 150.8C82.0003 150.8 78.6136 150.187 75.3603 148.96C72.107 147.733 69.4403 145.947 67.3603 143.6C65.3336 141.2 64.3203 138.347 64.3203 135.04C64.3203 134.24 64.4003 133.36 64.5603 132.4C64.667 131.92 64.907 131.52 65.2803 131.2C65.6536 130.827 66.0803 130.64 66.5603 130.64H77.4403C78.187 130.64 78.7203 130.827 79.0403 131.2C79.3603 131.573 79.5736 132.133 79.6803 132.88C79.6803 135.12 80.2403 136.747 81.3603 137.76C82.4803 138.773 84.187 139.28 86.4803 139.28C92.0803 139.28 95.627 135.867 97.1203 129.04L102 105.92H76.1603C75.5736 105.92 75.1203 105.733 74.8003 105.36C74.5336 104.987 74.4536 104.507 74.5603 103.92L76.2403 96C76.347 95.4133 76.6403 94.9333 77.1203 94.56C77.6003 94.1867 78.107 94 78.6403 94H117.36C117.947 94 118.4 94.1867 118.72 94.56C118.987 94.8267 119.12 95.1733 119.12 95.6C119.12 95.7067 119.094 95.84 119.04 96L111.92 129.44C110.427 136.533 107.52 141.867 103.2 145.44C98.9336 149.013 93.0403 150.8 85.5203 150.8Z" fill="black"/>
<path d="M123.851 161.8C117.184 161.8 112.064 160.36 108.491 157.48C104.918 154.6 103.131 150.44 103.131 145C103.131 143.507 103.291 141.88 103.611 140.12C104.358 135.747 105.398 130.84 106.731 125.4C108.384 118.68 111.798 113.48 116.971 109.8C122.198 106.067 128.571 104.2 136.091 104.2C140.784 104.2 144.758 104.92 148.011 106.36C151.264 107.747 153.691 109.56 155.291 111.8C156.944 114.04 157.771 116.44 157.771 119C157.771 119.427 157.718 120.067 157.611 120.92C157.504 121.4 157.238 121.8 156.811 122.12C156.438 122.44 155.984 122.6 155.451 122.6H143.771C143.238 122.6 142.838 122.52 142.571 122.36C142.304 122.2 142.091 121.907 141.931 121.48C141.611 119.933 140.811 118.6 139.531 117.48C138.304 116.307 136.358 115.72 133.691 115.72C127.291 115.72 123.238 119.08 121.531 125.8C120.571 129.587 119.584 134.227 118.571 139.72C118.411 140.84 118.331 141.827 118.331 142.68C118.331 147.747 121.078 150.28 126.571 150.28C129.718 150.28 132.411 149.48 134.651 147.88C136.891 146.227 138.358 143.72 139.051 140.36L139.371 138.84H131.851C131.264 138.84 130.811 138.653 130.491 138.28C130.224 137.853 130.144 137.347 130.251 136.76L131.531 130.84C131.638 130.253 131.931 129.773 132.411 129.4C132.891 128.973 133.424 128.76 134.011 128.76H154.171C154.758 128.76 155.211 128.947 155.531 129.32C155.744 129.64 155.851 129.987 155.851 130.36C155.851 130.52 155.824 130.68 155.771 130.84L153.851 139.96C152.838 144.493 150.944 148.413 148.171 151.72C145.398 154.973 141.904 157.48 137.691 159.24C133.531 160.947 128.918 161.8 123.851 161.8Z" fill="black"/>
<path d="M110 213V178" stroke="black" stroke-width="4" stroke-linecap="round"/>
<path d="M159 93.6015L188 78" stroke="black" stroke-width="4" stroke-linecap="round"/>
<path d="M63 94L33 78" stroke="black" stroke-width="4" stroke-linecap="round"/>
</svg>
