<?xml version="1.0" encoding="utf-8"?>
<!-- Generator: Adobe Illustrator 24.0.0, SVG Export Plug-In . SVG Version: 6.00 Build 0)  -->
<svg version="1.1" id="Layer_1" xmlns="http://www.w3.org/2000/svg" xmlns:xlink="http://www.w3.org/1999/xlink" x="0px" y="0px"
	 viewBox="0 0 258 269" style="enable-background:new 0 0 258 269;" xml:space="preserve">
<style type="text/css">
	.st0{display:none;fill:#d5b86f;stroke:#d5b86f;stroke-width:10;stroke-linecap:round;stroke-linejoin:round;}
	.st1{display:none;fill:#8b5752;stroke:#8b5752;stroke-width:10;stroke-linecap:round;stroke-linejoin:round;}
	.st2{display:none;fill:#485851;stroke:#485851;stroke-width:10;stroke-linecap:round;stroke-linejoin:round;}
	.st3{fill:#8b5752;stroke:#8b5752;stroke-width:10;stroke-linecap:round;stroke-linejoin:round;}
	.st4{fill:#485851;stroke:#485851;stroke-width:10;stroke-linecap:round;stroke-linejoin:round;}
	.st5{fill:#d5b86f;stroke:#d5b86f;stroke-width:10;stroke-linecap:round;stroke-linejoin:round;}
	.st6{fill:none;stroke:#000000;stroke-width:10;stroke-linecap:round;stroke-linejoin:round;}
	.st7{fill:none;stroke:#000000;stroke-width:4;stroke-linecap:round;}
</style>
<path class="st0" d="M189.9,82.8c1.6-0.9,2.6-2.5,2.7-4.3c0-1.8-0.9-3.5-2.5-4.4l-77.2-43.8c-1.5-0.9-3.4-0.9-4.9,0L30.7,74
	c-1.6,0.9-2.6,2.6-2.5,4.4c0,1.8,1,3.5,2.7,4.3l77.2,40.8c1.5,0.8,3.2,0.8,4.7,0L189.9,82.8z"/>
<path class="st1" d="M192.5,78.4c0-1.8-0.9-3.4-2.4-4.3c-1.5-0.9-3.4-1-4.9-0.1L108,114.8c-1.6,0.9-2.7,2.6-2.7,4.4v93.5
	c0,1.8,1,3.5,2.6,4.4s3.6,0.8,5.1-0.2l77.2-50.1c1.4-0.9,2.3-2.5,2.3-4.2V78.4z"/>
<path class="st2" d="M115.3,119.2c0-1.9-1-3.6-2.7-4.4L35.5,73.9c-1.5-0.8-3.4-0.8-4.9,0.1c-1.5,0.9-2.4,2.5-2.4,4.3V163
	c0,1.7,0.9,3.3,2.3,4.2l77.2,49.7c1.5,1,3.5,1.1,5.1,0.2c1.6-0.9,2.6-2.6,2.6-4.4V119.2z"/>
<path class="st3" d="M115.3,203.5v-81.3l67.2-35.5v73.2L115.3,203.5z"/>
<path class="st4" d="M38.1,86.7l67.2,35.5v81.3l-67.2-43.3V86.7z"/>
<path class="st5" d="M110.3,40.3l66.8,37.9l-66.8,35.3L43.6,78.2L110.3,40.3z"/>
<path class="st6" d="M33.1,78.4l77.2-43.8l77.2,43.8V163l-77.2,50.1L33.1,163V78.4z"/>
<path d="M85.5,150.8c-3.5,0-6.9-0.6-10.2-1.8c-3.3-1.2-5.9-3-8-5.4c-2-2.4-3-5.3-3-8.6c0-0.8,0.1-1.7,0.2-2.6
	c0.1-0.5,0.3-0.9,0.7-1.2c0.4-0.4,0.8-0.6,1.3-0.6h10.9c0.7,0,1.3,0.2,1.6,0.6s0.5,0.9,0.6,1.7c0,2.2,0.6,3.9,1.7,4.9
	c1.1,1,2.8,1.5,5.1,1.5c5.6,0,9.1-3.4,10.6-10.2l4.9-23.1H76.2c-0.6,0-1-0.2-1.4-0.6c-0.3-0.4-0.3-0.9-0.2-1.4l1.7-7.9
	c0.1-0.6,0.4-1.1,0.9-1.4s1-0.6,1.5-0.6h38.7c0.6,0,1,0.2,1.4,0.6c0.3,0.3,0.4,0.6,0.4,1c0,0.1,0,0.2-0.1,0.4l-7.1,33.4
	c-1.5,7.1-4.4,12.4-8.7,16C98.9,149,93,150.8,85.5,150.8z"/>
<path d="M123.9,161.8c-6.7,0-11.8-1.4-15.4-4.3c-3.6-2.9-5.4-7-5.4-12.5c0-1.5,0.2-3.1,0.5-4.9c0.7-4.4,1.8-9.3,3.1-14.7
	c1.7-6.7,5.1-11.9,10.2-15.6c5.2-3.7,11.6-5.6,19.1-5.6c4.7,0,8.7,0.7,11.9,2.2c3.3,1.4,5.7,3.2,7.3,5.4c1.7,2.2,2.5,4.6,2.5,7.2
	c0,0.4-0.1,1.1-0.2,1.9c-0.1,0.5-0.4,0.9-0.8,1.2c-0.4,0.3-0.8,0.5-1.4,0.5h-11.7c-0.5,0-0.9-0.1-1.2-0.2c-0.3-0.2-0.5-0.5-0.6-0.9
	c-0.3-1.5-1.1-2.9-2.4-4c-1.2-1.2-3.2-1.8-5.8-1.8c-6.4,0-10.5,3.4-12.2,10.1c-1,3.8-1.9,8.4-3,13.9c-0.2,1.1-0.2,2.1-0.2,3
	c0,5.1,2.7,7.6,8.2,7.6c3.1,0,5.8-0.8,8.1-2.4c2.2-1.7,3.7-4.2,4.4-7.5l0.3-1.5h-7.5c-0.6,0-1-0.2-1.4-0.6c-0.3-0.4-0.3-0.9-0.2-1.5
	l1.3-5.9c0.1-0.6,0.4-1.1,0.9-1.4c0.5-0.4,1-0.6,1.6-0.6h20.2c0.6,0,1,0.2,1.4,0.6c0.2,0.3,0.3,0.7,0.3,1c0,0.2,0,0.3-0.1,0.5
	l-1.9,9.1c-1,4.5-2.9,8.5-5.7,11.8c-2.8,3.3-6.3,5.8-10.5,7.5C133.5,160.9,128.9,161.8,123.9,161.8z"/>
<path class="st7" d="M110,213v-35"/>
<path class="st7" d="M159,93.6L188,78"/>
<path class="st7" d="M63,94L33,78"/>
</svg>
