<?xml version="1.0" encoding="utf-8"?>
<!-- Generator: Adobe Illustrator 23.0.1, SVG Export Plug-In . SVG Version: 6.00 Build 0)  -->
<svg version="1.1" id="Layer_1" xmlns="http://www.w3.org/2000/svg" xmlns:xlink="http://www.w3.org/1999/xlink" x="0px" y="0px"
	 viewBox="0 0 32 32" style="enable-background:new 0 0 32 32;" xml:space="preserve">
<style type="text/css">
	.st0{fill:#303245;}
</style>
<path class="st0" d="M16,0.5C7.4,0.5,0.5,7.4,0.5,16s7,15.5,15.5,15.5s15.5-7,15.5-15.5S24.6,0.5,16,0.5z M23.7,22.4H8.3
	c-0.7,0-1.3-0.6-1.3-1.3c0-0.7,0.6-1.3,1.3-1.3h15.4c0.7,0,1.3,0.6,1.3,1.3C25,21.8,24.4,22.4,23.7,22.4z M23.7,17.3H8.3
	C7.6,17.3,7,16.7,7,16s0.6-1.3,1.3-1.3h15.4c0.7,0,1.3,0.6,1.3,1.3S24.4,17.3,23.7,17.3z M23.7,12.2H8.3c-0.7,0-1.3-0.6-1.3-1.3
	c0-0.7,0.6-1.3,1.3-1.3h15.4c0.7,0,1.3,0.6,1.3,1.3C25,11.6,24.4,12.2,23.7,12.2z"/>
</svg>
