<?xml version="1.0" encoding="utf-8"?>
<!-- Generator: Adobe Illustrator 23.0.1, SVG Export Plug-In . SVG Version: 6.00 Build 0)  -->
<svg version="1.1" id="Layer_1" xmlns="http://www.w3.org/2000/svg" xmlns:xlink="http://www.w3.org/1999/xlink" x="0px" y="0px"
	 viewBox="0 0 32 32" style="enable-background:new 0 0 32 32;" xml:space="preserve">
<style type="text/css">
	.st0{fill:#796DA8;}
</style>
<g>
	<path class="st0" d="M16,0.5C7.4,0.5,0.5,7.4,0.5,16s7,15.5,15.5,15.5s15.5-7,15.5-15.5S24.6,0.5,16,0.5z M22.4,20.5
		c0.5,0.5,0.5,1.3,0,1.8s-1.3,0.5-1.8,0L16,17.8l-4.5,4.5c-0.5,0.5-1.3,0.5-1.8,0s-0.5-1.3,0-1.8l4.5-4.5l-4.5-4.5
		c-0.5-0.5-0.5-1.3,0-1.8s1.3-0.5,1.8,0l4.5,4.5l4.5-4.5c0.5-0.5,1.3-0.5,1.8,0s0.5,1.3,0,1.8L17.8,16L22.4,20.5z"/>
</g>
</svg>
